<?xml version="1.0" encoding="iso-8859-1"?>
<!-- Generator: Adobe Illustrator 19.0.0, SVG Export Plug-In . SVG Version: 6.00 Build 0)  -->
<svg version="1.1" id="Layer_1" xmlns="http://www.w3.org/2000/svg" xmlns:xlink="http://www.w3.org/1999/xlink" x="0px" y="0px"
	 viewBox="0 0 396.932 396.932" style="enable-background:new 0 0 396.932 396.932;" xml:space="preserve">
<ellipse style="fill:#B8CBCD;" cx="199.016" cy="349.68" rx="190.668" ry="47.252"/>
<path style="fill:#F7BB83;" d="M129.492,342.004c-25.224,25.22-66.108,25.22-91.328,0l0,0c-25.224-25.22-25.224-66.108,0-91.328
	l219.76-219.764c25.22-25.22,66.108-25.22,91.328,0l0,0c25.22,25.22,25.22,66.108,0,91.328L129.492,342.004z"/>
<path style="fill:#6E4123;" d="M83.824,372.92c-20.452,0-39.684-7.968-54.148-22.432C15.212,336.024,7.248,316.796,7.248,296.34
	s7.964-39.684,22.432-54.152l219.76-219.76C263.904,7.964,283.132,0,303.588,0s39.684,7.964,54.148,22.428
	c29.856,29.86,29.856,78.44,0,108.296l-219.76,219.76C123.512,364.952,104.28,372.92,83.824,372.92z M303.588,24
	c-14.044,0-27.248,5.468-37.18,15.4L46.648,259.16c-9.932,9.932-15.4,23.136-15.4,37.18s5.468,27.248,15.4,37.176
	c9.932,9.932,23.136,15.404,37.176,15.404c14.044,0,27.248-5.472,37.18-15.404l219.76-219.76c20.5-20.5,20.5-53.856,0-74.36
	C330.836,29.468,317.636,24,303.588,24z"/>
<path style="fill:#F6E89A;" d="M38.164,122.244c-25.22-25.224-25.22-66.108,0-91.328l0,0c25.22-25.224,66.108-25.224,91.328,0
	l219.76,219.76c25.22,25.22,25.22,66.108,0,91.328l0,0c-25.22,25.22-66.108,25.22-91.328,0L38.164,122.244z"/>
<path style="fill:#8D4520;" d="M303.588,372.92c-20.456,0-39.684-7.964-54.148-22.428L29.68,130.728
	c-29.86-29.86-29.86-78.44,0-108.3C44.144,7.964,63.372,0,83.828,0s39.684,7.964,54.152,22.432l219.76,219.76
	c29.86,29.856,29.86,78.44,0,108.296C343.276,364.956,324.044,372.92,303.588,372.92z M83.828,24
	c-14.044,0-27.248,5.468-37.176,15.4c-20.5,20.5-20.5,53.856,0,74.36l219.76,219.76c9.932,9.928,23.136,15.4,37.18,15.4
	s27.248-5.468,37.18-15.4c20.5-20.5,20.5-53.856,0-74.356l-219.76-219.76C111.076,29.468,97.872,24,83.828,24z"/>
<g>
	<path style="fill:#FFFFFF;" d="M240.156,189.272c5.408,5.408,6,13.58,1.324,18.256l-26.344,26.34
		c-4.676,4.676-12.848,4.084-18.252-1.32l-49.488-49.48c-5.408-5.404-5.996-13.576-1.32-18.256l26.344-26.34
		c4.672-4.676,12.848-4.084,18.256,1.32L240.156,189.272z"/>
	<circle style="fill:#FFFFFF;" cx="101.108" cy="243.36" r="12"/>
	<circle style="fill:#FFFFFF;" cx="137.868" cy="280.16" r="12"/>
	<circle style="fill:#FFFFFF;" cx="64.348" cy="280.16" r="12"/>
	<circle style="fill:#FFFFFF;" cx="101.108" cy="316.92" r="12"/>
	<circle style="fill:#FFFFFF;" cx="286.348" cy="58.16" r="12"/>
	<circle style="fill:#FFFFFF;" cx="323.108" cy="94.92" r="12"/>
	<circle style="fill:#FFFFFF;" cx="249.588" cy="94.92" r="12"/>
	<circle style="fill:#FFFFFF;" cx="286.348" cy="131.688" r="12"/>
</g>
<g>
</g>
<g>
</g>
<g>
</g>
<g>
</g>
<g>
</g>
<g>
</g>
<g>
</g>
<g>
</g>
<g>
</g>
<g>
</g>
<g>
</g>
<g>
</g>
<g>
</g>
<g>
</g>
<g>
</g>
</svg>
