<?xml version="1.0" encoding="iso-8859-1"?>
<!-- Generator: Adobe Illustrator 19.0.0, SVG Export Plug-In . SVG Version: 6.00 Build 0)  -->
<svg version="1.1" id="Layer_1" xmlns="http://www.w3.org/2000/svg" xmlns:xlink="http://www.w3.org/1999/xlink" x="0px" y="0px"
	 viewBox="0 0 472 472" style="enable-background:new 0 0 472 472;" xml:space="preserve">
<ellipse style="fill:#B8CBCD;" cx="237.328" cy="420.754" rx="190.668" ry="47.252"/>
<g>
	<path style="fill:#783741;" d="M182,461.49c-54.036,0-98-43.96-98-98v-188c0-6.628,5.372-12,12-12c6.628,0,12,5.372,12,12v188
		c0,40.804,33.196,74,74,74s74-33.196,74-74v-188c0-6.628,5.372-12,12-12s12,5.372,12,12v188C280,417.53,236.036,461.49,182,461.49z
		"/>
	<path style="fill:#783741;" d="M268,303.49c-6.628,0-12-5.372-12-12v-188c0-54.04,43.964-98,98-98c54.952,0,98,42.168,98,96
		c0,6.628-5.372,12-12,12s-12-5.372-12-12c0-40.376-32.504-72-74-72c-40.804,0-74,33.196-74,74v188
		C280,298.118,274.624,303.49,268,303.49z"/>
</g>
<circle style="fill:#FFBAB0;" cx="96" cy="293.474" r="36"/>
<path style="fill:#783741;" d="M96,341.49c-26.468,0-48-21.532-48-48s21.532-48,48-48s48,21.532,48,48S122.464,341.49,96,341.49z
	 M96,269.49c-13.236,0-24,10.764-24,24s10.764,24,24,24s24-10.764,24-24S109.232,269.49,96,269.49z"/>
<path style="fill:#FFBAB0;" d="M180,243.63c0,25.328-20.532,45.86-45.86,45.86H57.86c-25.328,0-45.86-20.532-45.86-45.86V59.35
	c0-25.328,20.532-45.86,45.86-45.86h76.28c25.328,0,45.86,20.532,45.86,45.86V243.63z"/>
<path style="fill:#783741;" d="M134.14,303.994H57.86c-31.904,0-57.86-25.956-57.86-57.86V61.854C0,29.95,25.956,3.994,57.86,3.994
	h76.28c31.904,0,57.86,25.956,57.86,57.86v184.28C192,278.038,166.044,303.994,134.14,303.994z M57.86,27.994
	C39.192,27.994,24,43.182,24,61.854v184.28c0,18.672,15.188,33.86,33.86,33.86h76.28c18.668,0,33.86-15.188,33.86-33.86V61.854
	c0-18.672-15.188-33.86-33.86-33.86C134.14,27.994,57.86,27.994,57.86,27.994z"/>
<path style="fill:#FFFFFF;" d="M40,161.49v68c0,17.252,12.768,32,30.02,32h51.96c17.252,0,30.02-14.752,30.02-32v-68H40z"/>
<g>
	<path style="fill:#783741;" d="M121.98,267.994H70.02c-21.32,0-38.02-17.572-38.02-40v-68c0-4.416,3.58-8,8-8h112
		c4.416,0,8,3.584,8,8v68C160,250.422,143.3,267.994,121.98,267.994z M48,167.994v60c0,13.456,9.672,24,22.02,24h51.96
		c12.348,0,22.02-10.544,22.02-24v-60H48z"/>
	<path style="fill:#783741;" d="M44,71.994H16c-4.42,0-8-3.584-8-8s3.58-8,8-8h28c4.416,0,8,3.584,8,8S48.416,71.994,44,71.994z"/>
	<path style="fill:#783741;" d="M56,103.994H12c-4.42,0-8-3.584-8-8s3.58-8,8-8h44c4.416,0,8,3.584,8,8S60.416,103.994,56,103.994z"
		/>
	<path style="fill:#783741;" d="M44,135.994H16c-4.42,0-8-3.584-8-8s3.58-8,8-8h28c4.416,0,8,3.584,8,8S48.416,135.994,44,135.994z"
		/>
	<path style="fill:#783741;" d="M460,183.994h-40c-6.628,0-12-5.372-12-12v-68c0-6.628,5.372-12,12-12h40c6.628,0,12,5.372,12,12v68
		C472,178.622,466.624,183.994,460,183.994z M432,159.994h16v-44h-16V159.994z"/>
	<path style="fill:#783741;" d="M440,233.49c-6.628,0-12-5.372-12-12v-44c0-6.628,5.372-12,12-12s12,5.372,12,12v44
		C452,228.118,446.624,233.49,440,233.49z"/>
	<path style="fill:#783741;" d="M104,221.49c0,6.6-3.6,12-8,12s-8-5.4-8-12v-24c0-6.6,3.6-12,8-12s8,5.4,8,12V221.49z"/>
	<path style="fill:#783741;" d="M84,217.49c-6.6,0-12-3.6-12-8s5.4-8,12-8h24c6.6,0,12,3.6,12,8s-5.4,8-12,8H84z"/>
</g>
<g>
</g>
<g>
</g>
<g>
</g>
<g>
</g>
<g>
</g>
<g>
</g>
<g>
</g>
<g>
</g>
<g>
</g>
<g>
</g>
<g>
</g>
<g>
</g>
<g>
</g>
<g>
</g>
<g>
</g>
</svg>
