<?xml version="1.0" encoding="iso-8859-1"?>
<!-- Generator: Adobe Illustrator 19.0.0, SVG Export Plug-In . SVG Version: 6.00 Build 0)  -->
<svg version="1.1" id="Layer_1" xmlns="http://www.w3.org/2000/svg" xmlns:xlink="http://www.w3.org/1999/xlink" x="0px" y="0px"
	 viewBox="0 0 486.494 486.494" style="enable-background:new 0 0 486.494 486.494;" xml:space="preserve">
<ellipse style="fill:#B8CBCD;" cx="243.247" cy="439.242" rx="190.668" ry="47.252"/>
<path style="fill:#FFBAB0;" d="M392.143,324.41c0,82.352-66.76,149.116-149.116,149.116S93.911,406.766,93.911,324.41
	c0.004-112.408,149.12-268.408,149.12-268.408S392.143,216.002,392.143,324.41z"/>
<path style="fill:#783741;" d="M243.031,481.526c-86.632,0-157.116-70.484-157.116-157.116
	c0-114.304,145.152-267.472,151.332-273.936c1.52-1.596,3.568-2.52,5.832-2.472c2.2,0.012,4.3,0.936,5.8,2.544
	c6.176,6.628,151.264,163.572,151.264,273.864C400.143,411.042,329.663,481.526,243.031,481.526z M242.963,67.866
	C215.619,97.99,101.915,229.01,101.915,324.41c0,77.812,63.304,141.116,141.116,141.116s141.116-63.304,141.116-141.116
	C384.143,232.326,270.199,98.526,242.963,67.866z"/>
<path style="fill:#FFBAB0;" d="M418.807,150.01c0,44.796-36.316,81.116-81.116,81.116c-44.796,0-81.116-36.32-81.116-81.116
	c0.004-61.148,81.12-138.008,81.12-138.008S418.807,91.042,418.807,150.01z"/>
<g>
	<path style="fill:#783741;" d="M337.695,239.126c-49.14,0-89.116-39.976-89.116-89.116c0-63.856,80.2-140.58,83.612-143.816
		c3.112-2.952,8.008-2.92,11.084,0.076c3.412,3.324,83.532,82.104,83.532,143.74C426.807,199.15,386.831,239.126,337.695,239.126z
		 M337.623,23.366c-17.948,18.38-73.044,78.704-73.044,126.644c0,40.316,32.8,73.116,73.116,73.116s73.116-32.8,73.116-73.116
		C410.807,103.766,355.523,42.114,337.623,23.366z"/>
	<path style="fill:#783741;" d="M243.031,485.526c-88.84,0-161.116-72.276-161.116-161.116c0-115.888,146.216-270.188,152.44-276.7
		c2.244-2.348,5.34-3.684,8.588-3.708c3.276-0.068,6.364,1.268,8.64,3.584c0.304,0.308,6.016,6.14,17.02,19.084
		c25.344-39.268,60.688-63.48,62.36-64.608c4.716-3.192,11.024-2.628,15.1,1.344c3.46,3.372,84.74,83.3,84.74,146.6
		c0,37.168-19.404,71.12-48.488,87.052c15.044,32.84,21.824,60.168,21.824,87.348C404.143,413.25,331.871,485.526,243.031,485.526z
		 M243.015,73.778c-31.412,35.036-137.1,159.692-137.1,250.632c0,75.604,61.508,137.116,137.116,137.116
		s137.116-61.508,137.116-137.116c0-26.344-7.62-53.472-24.708-87.956c-1.532-3.092-1.66-6.696-0.348-9.892
		c1.312-3.192,3.936-5.668,7.204-6.788c25.792-8.856,44.516-38.196,44.516-69.764c0-39.844-45.572-96.064-70.3-122.1
		c-13.076,10.436-39.344,33.896-55.496,65.128c-1.856,3.588-5.392,6.004-9.412,6.424c-4.012,0.432-7.98-1.212-10.536-4.34
		C253.427,85.778,247.391,78.742,243.015,73.778z"/>
	<path style="opacity:0.2;fill:#783741;enable-background:new    ;" d="M243.031,461.118c-88.84,0-161.116-72.276-161.116-161.116
		c0-6.628,5.372-12,12-12s12,5.372,12,12c0,75.604,61.508,137.116,137.116,137.116s137.112-61.512,137.112-137.116
		c0-6.628,5.372-12,12-12s12,5.372,12,12C404.143,388.842,331.871,461.118,243.031,461.118z"/>
</g>
<circle style="fill:#FFFFFF;" cx="336.579" cy="148.002" r="48"/>
<g>
	<path style="fill:#783741;" d="M344.579,160.002c0,6.6-3.6,12-8,12s-8-5.4-8-12v-24c0-6.6,3.6-12,8-12s8,5.4,8,12V160.002z"/>
	<path style="fill:#783741;" d="M324.579,156.002c-6.6,0-12-3.6-12-8s5.4-8,12-8h24c6.6,0,12,3.6,12,8s-5.4,8-12,8H324.579z"/>
</g>
<circle style="fill:#FFFFFF;" cx="242.579" cy="322.002" r="86"/>
<path style="fill:#783741;" d="M244.275,364.642c-2.048,0-4.092-0.78-5.656-2.344l-29.548-29.548
	c-10.22-10.22-10.22-26.848,0-37.072c4.948-4.952,11.532-7.68,18.532-7.68c6.156,0,11.988,2.108,16.672,5.98
	c4.684-3.868,10.512-5.976,16.668-5.976c7,0,13.584,2.728,18.536,7.68c10.22,10.22,10.22,26.848,0.004,37.072l-29.548,29.548
	C248.371,363.862,246.323,364.642,244.275,364.642z M227.607,304.002c-2.728,0-5.292,1.064-7.22,2.992
	c-3.984,3.984-3.984,10.464,0,14.444l23.892,23.892l23.888-23.892c3.984-3.984,3.984-10.464,0-14.444
	c-3.856-3.856-10.584-3.856-14.444,0l-3.788,3.788c-3.12,3.124-8.188,3.124-11.312,0.004l-3.792-3.788
	C232.899,305.066,230.335,304.002,227.607,304.002z"/>
<g>
</g>
<g>
</g>
<g>
</g>
<g>
</g>
<g>
</g>
<g>
</g>
<g>
</g>
<g>
</g>
<g>
</g>
<g>
</g>
<g>
</g>
<g>
</g>
<g>
</g>
<g>
</g>
<g>
</g>
</svg>
