<?xml version="1.0" encoding="iso-8859-1"?>
<!-- Generator: Adobe Illustrator 19.0.0, SVG Export Plug-In . SVG Version: 6.00 Build 0)  -->
<svg version="1.1" id="Layer_1" xmlns="http://www.w3.org/2000/svg" xmlns:xlink="http://www.w3.org/1999/xlink" x="0px" y="0px"
	 viewBox="0 0 486.492 486.492" style="enable-background:new 0 0 486.492 486.492;" xml:space="preserve">
<ellipse style="fill:#B8CBCD;" cx="209.92" cy="439.24" rx="190.668" ry="47.252"/>
<rect x="175.244" y="144" style="fill:#B2EDA6;" width="60" height="64"/>
<path style="fill:#3C663E;" d="M235.244,216h-60c-4.42,0-8-3.584-8-8v-64c0-4.416,3.58-8,8-8h60c4.416,0,8,3.584,8,8v64
	C243.244,212.416,239.66,216,235.244,216z M183.244,200h44v-48h-44V200z"/>
<path style="fill:#B2EDA6;" d="M307.244,240h-200c-11,0-20-9-20-20l0,0c0-11,9-20,20-20h200c11,0,20,9,20,20l0,0
	C327.244,231,318.244,240,307.244,240z"/>
<path style="fill:#3C663E;" d="M307.244,248h-200c-15.436,0-28-12.564-28-28s12.564-28,28-28h200c15.436,0,28,12.564,28,28
	S322.68,248,307.244,248z M107.244,208c-6.616,0-12,5.384-12,12s5.384,12,12,12h200c6.616,0,12-5.384,12-12s-5.384-12-12-12H107.244
	z"/>
<path style="fill:#B2EDA6;" d="M315.244,447.136V324c0-33.592-15.276-63.78-39.212-84h-141.58
	c-23.932,20.22-39.212,50.408-39.212,84v124l0,0v0.004c0,14.832,49.26,26.856,110.048,26.856
	c60.772,0,110.044-12.024,110.044-26.856C315.332,447.716,315.28,447.424,315.244,447.136z"/>
<path style="fill:#3C663E;" d="M205.288,482.86c-43.844,0-118.048-7.34-118.048-34.856V324c0-34.692,15.324-67.536,42.048-90.108
	c1.444-1.224,3.272-1.892,5.164-1.892h141.58c1.892,0,3.72,0.668,5.164,1.892c26.724,22.572,42.048,55.416,42.048,90.108v122.616
	c0.06,0.488,0.088,0.936,0.088,1.388C323.332,475.52,249.132,482.86,205.288,482.86z M137.44,248c-21.768,19.444-34.2,46.98-34.2,76
	v124c2.532,6.368,39.868,18.86,102.048,18.86c61.536,0,98.744-12.24,102-18.98c-0.028-0.276-0.048-0.564-0.048-0.744V324
	c0-29.02-12.428-56.556-34.2-76H137.44z"/>
<rect x="135.244" y="88" style="fill:#B2EDA6;" width="204" height="52"/>
<path style="fill:#3C663E;" d="M339.244,148h-204c-4.42,0-8-3.584-8-8V88c0-4.416,3.58-8,8-8h204c4.416,0,8,3.584,8,8v52
	C347.244,144.416,343.66,148,339.244,148z M143.244,132h188V96h-188V132z"/>
<path style="fill:#B2EDA6;" d="M423.244,204c-45.384,0-88-36.788-88-82.176c0-45.384,42.616-81.824,88-81.824V204z"/>
<path style="fill:#3C663E;" d="M423.244,212c-51.14,0-96-42.136-96-90.176c0-47.852,44.86-89.824,96-89.824c4.416,0,8,3.584,8,8v164
	C431.244,208.416,427.66,212,423.244,212z M415.244,48.408c-39.188,3.968-72,36.576-72,73.416c0,37.02,32.812,69.78,72,73.768
	V48.408z"/>
<path style="fill:#FFFFFF;" d="M419.24,212V32c0-11,5-20,16-20l0,0c11,0,20,9,20,20v180c0,11-9,20-20,20l0,0
	C424.24,232,419.24,223,419.24,212z"/>
<path style="fill:#3C663E;" d="M435.24,240c-14.356,0-24-11.252-24-28V32c0-16.748,9.644-28,24-28c15.436,0,28,12.564,28,28v180
	C463.24,227.436,450.676,240,435.24,240z M435.24,20c-6.612,0-8,6.528-8,12v180c0,5.472,1.388,12,8,12c6.616,0,12-5.384,12-12V32
	C447.24,25.384,441.856,20,435.24,20z"/>
<rect x="135.244" y="320" style="fill:#FFFFFF;" width="140" height="88"/>
<g>
	<path style="fill:#3C663E;" d="M275.24,416h-140c-4.42,0-8-3.584-8-8v-88c0-4.416,3.58-8,8-8h140c4.416,0,8,3.584,8,8v88
		C283.24,412.416,279.656,416,275.24,416z M143.24,400h124v-72h-124V400z"/>
	<path style="fill:#3C663E;" d="M205.288,480C103.996,480,83.24,467.212,83.24,448.004V324c0-25.32,7.74-48.096,23.072-68.016
		C88.464,255.352,75.24,236.704,75.24,220c0-16.992,13.684-36,32-36h56v-28h-28c-6.628,0-12-5.372-12-12V88c0-6.628,5.372-12,12-12
		h194.224c13.324-25.928,41.38-43.844,73.952-47.364C405.104,12.564,418.732,0,435.24,0c17.644,0,32,14.356,32,32v180
		c0,17.644-14.356,32-32,32c-16.544,0-30.192-12.616-31.836-28.736c-34.544-4.296-64.516-27.144-77.436-59.264h-78.724v28h60
		c18.316,0,32,19.008,32,36s-13.684,36-32,36h-3.056c15.316,19.916,23.056,42.688,23.056,68v115.668
		c0.06,0.484,0.088,0.976,0.088,1.476c0,0.06,0,0.172-0.004,0.276c0,0.004,0,0.004,0,0.004c-0.008,1.004-0.02,2.164-0.084,3.404
		l-0.196,2.308c-0.632,5.324-2.752,11.136-10.092,11.92C290.464,478.816,221.316,480,205.288,480z M107.24,444
		c4.156,2.496,23.192,12,98.052,12c57.48,0,91.448-10.46,97.952-16.44V324c0-27.792-11.432-50.964-34.952-70.832
		c-3.852-3.252-5.256-8.56-3.528-13.288c1.732-4.736,6.232-7.88,11.268-7.88h31.212c3.084,0,8-6.552,8-12s-4.916-12-8-12h-72
		c-6.628,0-12-5.372-12-12v-52c0-6.628,5.372-12,12-12h99.252c5.332,0,10.024,3.516,11.52,8.632
		C354.86,170.876,383.324,192,415.244,192c6.628,0,12,5.372,12,12v8c0,4.336,3.664,8,8,8s8-3.664,8-8V32c0-4.336-3.664-8-8-8
		s-8,3.664-8,8v8c0,6.628-5.372,12-12,12c-30.832,0-57.668,16.176-66.776,40.248c-1.764,4.668-6.236,7.752-11.224,7.752H147.24v32
		h28.004c6.628,0,11.996,5.372,11.996,12v52c0,6.628-5.368,12-11.996,12h-68c-3.088,0-8,6.552-8,12s4.912,12,8,12h27.212
		c5.04,0,9.54,3.144,11.268,7.88c1.732,4.732,0.324,10.036-3.528,13.288c-23.52,19.868-34.956,43.04-34.956,70.832V444z"/>
</g>
<g>
</g>
<g>
</g>
<g>
</g>
<g>
</g>
<g>
</g>
<g>
</g>
<g>
</g>
<g>
</g>
<g>
</g>
<g>
</g>
<g>
</g>
<g>
</g>
<g>
</g>
<g>
</g>
<g>
</g>
</svg>
