<?xml version="1.0" encoding="iso-8859-1"?>
<!-- Generator: Adobe Illustrator 19.0.0, SVG Export Plug-In . SVG Version: 6.00 Build 0)  -->
<svg version="1.1" id="Layer_1" xmlns="http://www.w3.org/2000/svg" xmlns:xlink="http://www.w3.org/1999/xlink" x="0px" y="0px"
	 viewBox="0 0 476.005 476.005" style="enable-background:new 0 0 476.005 476.005;" xml:space="preserve">
<ellipse style="fill:#B8CBCD;" cx="241.332" cy="419.997" rx="190.668" ry="47.252"/>
<path style="fill:#F6E89A;" d="M414.104,84.757l-30.34-56.94c-2.068-3.884-7.364-7.06-11.76-7.06H98.236
	c-4.4,0-9.368,3.332-11.036,7.404L64.004,84.757"/>
<path style="fill:#8D4520;" d="M64,96.761c-1.516,0-3.06-0.288-4.548-0.9c-6.132-2.512-9.068-9.524-6.552-15.656l23.2-56.596
	c3.524-8.608,12.832-14.852,22.136-14.852h273.768c8.804,0,18.208,5.644,22.352,13.416l30.34,56.944
	c3.116,5.848,0.9,13.116-4.944,16.232c-5.852,3.12-13.112,0.904-16.236-4.948l-30.34-56.94c-0.136-0.112-1.008-0.636-1.456-0.72
	l-273.1,0.016c-0.152,0.072-0.336,0.196-0.46,0.308L75.104,89.309C73.2,93.949,68.72,96.761,64,96.761z"/>
<path style="fill:#F6E89A;" d="M12.004,296.757l21.192-56.508c1.54-4.12,6.408-7.492,10.808-7.492h12c4.4,0,8,3.6,8,8v52"/>
<path style="fill:#8D4520;" d="M12.004,308.761c-1.404,0-2.824-0.248-4.216-0.768c-6.204-2.328-9.348-9.244-7.02-15.448
	l21.192-56.512c3.312-8.852,12.584-15.276,22.044-15.276h12c11.028,0,20,8.972,20,20v52c0,6.628-5.372,12-12,12s-12-5.372-12-12v-48
	H44.46c-0.064,0.04-0.132,0.084-0.192,0.132l-21.032,56.08C21.432,305.789,16.86,308.761,12.004,308.761z"/>
<path style="fill:#F6E89A;" d="M464.004,296.757l-17.612-56.364c-1.312-4.2-5.988-7.636-10.388-7.636h-16c-4.4,0-8,3.6-8,8v52"/>
<path style="fill:#8D4520;" d="M464,308.761c-5.108,0-9.844-3.288-11.448-8.424l-17.368-55.58h-11.18v48c0,6.628-5.372,12-12,12
	s-12-5.372-12-12v-52c0-11.028,8.972-20,20-20h16c9.588,0,18.98,6.904,21.84,16.06l17.612,56.36
	c1.976,6.324-1.548,13.056-7.876,15.032C466.388,308.581,465.188,308.761,464,308.761z"/>
<rect x="12.004" y="296.757" style="fill:#F6E89A;" width="452" height="120"/>
<path style="fill:#8D4520;" d="M464.004,424.757h-452c-4.42,0-8-3.584-8-8v-120c0-4.416,3.58-8,8-8h452c4.416,0,8,3.584,8,8v120
	C472.004,421.173,468.42,424.757,464.004,424.757z M20.004,408.757h436v-104h-436V408.757z"/>
<polyline style="fill:#F6E89A;" points="416.004,84.757 416.004,296.757 64.004,296.757 64.004,84.757 "/>
<g>
	<path style="fill:#8D4520;" d="M416.004,304.757h-352c-4.42,0-8-3.584-8-8v-212c0-4.416,3.58-8,8-8c4.416,0,8,3.584,8,8v204h336
		v-204c0-4.416,3.58-8,8-8c4.416,0,8,3.584,8,8v212C424.004,301.173,420.42,304.757,416.004,304.757z"/>
	<path style="fill:#8D4520;" d="M464.004,428.757h-452c-6.628,0-12-5.372-12-12v-120c0-1.44,0.256-2.864,0.764-4.212l24-64
		c1.756-4.684,6.232-7.788,11.236-7.788h12v-136c0-1.772,0.396-3.524,1.148-5.124l30.236-64c1.98-4.2,6.208-6.876,10.848-6.876H388
		c4.548,0,8.7,2.568,10.736,6.632l32,64c0.832,1.668,1.264,3.504,1.264,5.368v136h12c5.248,0,9.888,3.412,11.452,8.42l20,64
		c0.364,1.16,0.548,2.368,0.548,3.58v120C476.004,423.385,470.632,428.757,464.004,428.757z M24.004,404.757h428V298.589
		l-16.824-53.832h-15.176c-6.628,0-12-5.372-12-12V87.589l-27.42-54.832H97.84L72.004,87.449v145.308c0,6.628-5.372,12-12,12H44.32
		l-20.316,54.176V404.757z"/>
</g>
<rect x="124.004" y="124.757" style="fill:#FFFFFF;" width="232" height="136"/>
<g>
	<path style="fill:#8D4520;" d="M356.004,268.757h-232c-4.42,0-8-3.584-8-8v-136c0-4.416,3.58-8,8-8h232c4.416,0,8,3.584,8,8v136
		C364.004,265.173,360.42,268.757,356.004,268.757z M132.004,252.757h216v-120h-216V252.757z"/>
	<path style="fill:#8D4520;" d="M416.004,96.757h-356c-4.42,0-8-3.584-8-8s3.58-8,8-8h356c4.416,0,8,3.584,8,8
		S420.42,96.757,416.004,96.757z"/>
</g>
<path style="fill:#FFFFFF;" d="M194.004,368.757h-108c-7.7,0-14-6.3-14-14l0,0c0-7.7,6.3-14,14-14h108c7.7,0,14,6.3,14,14l0,0
	C208.004,362.457,201.7,368.757,194.004,368.757z"/>
<path style="fill:#8D4520;" d="M194.004,376.757h-108c-12.128,0-22-9.868-22-22s9.872-22,22-22h108c12.128,0,22,9.868,22,22
	S206.132,376.757,194.004,376.757z M86.004,348.757c-3.308,0-6,2.692-6,6s2.692,6,6,6h108c3.308,0,6-2.692,6-6s-2.692-6-6-6H86.004z
	"/>
<circle style="fill:#FFFFFF;" cx="386.004" cy="354.757" r="18"/>
<path style="fill:#8D4520;" d="M386.004,380.757c-14.336,0-26-11.664-26-26s11.664-26,26-26s26,11.664,26,26
	S400.34,380.757,386.004,380.757z M386.004,344.757c-5.516,0-10,4.488-10,10s4.484,10,10,10s10-4.488,10-10
	S391.52,344.757,386.004,344.757z"/>
<circle style="fill:#FFFFFF;" cx="314.004" cy="354.757" r="18"/>
<path style="fill:#8D4520;" d="M314.004,380.757c-14.336,0-26-11.664-26-26s11.664-26,26-26s26,11.664,26,26
	S328.34,380.757,314.004,380.757z M314.004,344.757c-5.516,0-10,4.488-10,10s4.484,10,10,10s10-4.488,10-10
	S319.52,344.757,314.004,344.757z"/>
<polyline style="fill:#FFFFFF;" points="160.004,208.757 236.004,208.757 256.004,156.757 280.004,236.757 304.004,184.757 
	320.004,204.757 352.004,204.757 "/>
<path style="fill:#8D4520;" d="M280.008,244.757c-0.188,0-0.38-0.008-0.568-0.02c-3.316-0.236-6.144-2.496-7.1-5.68l-17.276-57.58
	l-11.596,30.152c-1.188,3.088-4.156,5.128-7.464,5.128h-76c-4.42,0-8-3.584-8-8s3.58-8,8-8h70.504l18.032-46.872
	c1.228-3.192,4.236-5.236,7.768-5.124c3.416,0.128,6.376,2.416,7.36,5.696l17.924,59.76l15.144-32.816
	c1.164-2.516,3.548-4.256,6.296-4.592c2.776-0.336,5.484,0.78,7.216,2.944l13.6,17.004h28.156c4.416,0,8,3.584,8,8s-3.584,8-8,8h-32
	c-2.428,0-4.732-1.104-6.248-3l-7.912-9.892l-18.576,40.244C285.952,242.957,283.108,244.757,280.008,244.757z"/>
<g>
</g>
<g>
</g>
<g>
</g>
<g>
</g>
<g>
</g>
<g>
</g>
<g>
</g>
<g>
</g>
<g>
</g>
<g>
</g>
<g>
</g>
<g>
</g>
<g>
</g>
<g>
</g>
<g>
</g>
</svg>
