<?xml version="1.0" encoding="iso-8859-1"?>
<!-- Generator: Adobe Illustrator 19.0.0, SVG Export Plug-In . SVG Version: 6.00 Build 0)  -->
<svg version="1.1" id="Layer_1" xmlns="http://www.w3.org/2000/svg" xmlns:xlink="http://www.w3.org/1999/xlink" x="0px" y="0px"
	 viewBox="0 0 476.868 476.868" style="enable-background:new 0 0 476.868 476.868;" xml:space="preserve">
<ellipse style="fill:#B8CBCD;" cx="234.636" cy="429.616" rx="190.668" ry="47.252"/>
<path style="fill:#F6E89A;" d="M242.812,316.3l55.988,55.984l89.756-89.76l-55.984-55.976
	c21.88-56.416,10.096-122.88-35.436-168.416c-61.504-61.508-161.228-61.508-222.732,0c-61.508,61.508-61.508,161.228,0,222.732
	C119.936,326.4,186.4,338.184,242.812,316.3z"/>
<path style="fill:#8D4520;" d="M298.796,380.284c-2.12,0-4.156-0.844-5.656-2.344l-52.364-52.36
	c-17.688,6.232-36.18,9.384-55.056,9.384h-0.004c-44.192,0-85.732-17.208-116.968-48.444c-31.26-31.256-48.472-72.816-48.472-117.02
	c0-44.208,17.216-85.764,48.472-117.024C100.004,21.22,141.564,4,185.768,4c44.208,0,85.764,17.22,117.024,48.476
	c45.104,45.104,60.156,112.104,39.06,172.036l52.36,52.356c1.5,1.5,2.344,3.536,2.344,5.656s-0.84,4.156-2.344,5.656l-89.756,89.76
	C302.952,379.44,300.92,380.284,298.796,380.284z M242.808,308.3c2.084,0,4.132,0.812,5.66,2.344l50.328,50.328l78.444-78.448
	l-50.324-50.32c-2.244-2.244-2.948-5.592-1.804-8.552c21.428-55.248,8.228-118-33.632-159.864C263.244,35.552,225.7,20,185.768,20
	S108.296,35.552,80.06,63.788S36.276,129.568,36.276,169.5s15.548,77.472,43.784,105.708c28.216,28.216,65.74,43.756,105.656,43.756
	h0.004c18.648,0,36.88-3.404,54.196-10.12C240.856,308.476,241.84,308.3,242.808,308.3z"/>
<path style="fill:#FFFFFF;" d="M324.264,339.684l84.236,82.468c9.144,9.14,24.104,9.14,33.244,0c9.144-9.144,9.144-24.104,0-33.244
	l-84.236-82.468L324.264,339.684z"/>
<g>
	<path style="fill:#8D4520;" d="M425.12,437.008c-8.432,0-16.344-3.264-22.28-9.2L318.668,345.4
		c-1.528-1.492-2.392-3.536-2.404-5.672s0.832-4.188,2.344-5.7l33.244-33.244c3.1-3.1,8.124-3.124,11.252-0.06l84.236,82.468
		c5.996,5.984,9.264,13.9,9.264,22.332s-3.268,16.348-9.2,22.28C441.468,433.744,433.556,437.008,425.12,437.008z M335.636,339.624
		l78.456,76.812c5.944,5.94,16.176,5.88,21.992,0.06c2.912-2.912,4.516-6.808,4.516-10.968c0-4.16-1.604-8.052-4.512-10.956
		l-78.524-76.876L335.636,339.624z"/>
	<path style="fill:#8D4520;" d="M425.12,441.008c-9.5,0-18.42-3.684-25.108-10.372l-71.296-71.3l-21.432,21.432
		c-4.684,4.688-12.284,4.688-16.968,0l-50.6-50.592c-17.392,5.836-35.516,8.788-54,8.788c-45.256,0-87.804-17.62-119.8-49.616
		C33.904,257.336,16.272,214.772,16.272,169.5S33.904,81.66,65.916,49.648C97.932,17.632,140.496,0,185.768,0
		c45.276,0,87.84,17.632,119.852,49.648c45.592,45.596,61.2,113.04,40.824,173.8l50.592,50.588c2.252,2.252,3.516,5.3,3.516,8.484
		s-1.264,6.236-3.516,8.484l-18.112,18.112l71.3,71.304c6.684,6.684,10.372,15.596,10.372,25.1s-3.684,18.42-10.372,25.108
		C443.54,437.324,434.624,441.008,425.12,441.008z M328.716,330.368c3.184,0,6.236,1.264,8.488,3.516l79.784,79.784
		c4.308,4.304,11.968,4.304,16.272,0c2.156-2.156,3.344-5.048,3.344-8.14c0-3.088-1.184-5.976-3.34-8.128l-79.792-79.796
		c-4.684-4.688-4.684-12.284,0-16.968l18.112-18.112l-47.496-47.492c-3.364-3.36-4.424-8.392-2.704-12.824
		c20.856-53.772,8.008-114.844-32.736-155.588c-27.48-27.48-64.016-42.616-102.88-42.616c-38.86,0-75.4,15.136-102.88,42.616
		C55.404,94.1,40.272,130.64,40.272,169.504s15.132,75.4,42.612,102.88c27.464,27.46,63.98,42.584,102.828,42.584
		c18.156,0,35.904-3.312,52.756-9.852c4.44-1.72,9.464-0.656,12.824,2.704l47.504,47.5l21.432-21.432
		C322.48,331.632,325.532,330.368,328.716,330.368z"/>
</g>
<path style="fill:#FFFFFF;" d="M292.344,210.392c4.768-12.296,7.208-25.08,7.552-37.808H74.548
	c0.756,27.86,11.632,55.484,32.848,76.7c21.292,21.292,49.608,33.02,79.74,33.024c14.088,0,27.86-2.576,40.936-7.64
	c5.168-2.008,10.604-3.028,16.144-3.028c11.932,0,23.152,4.648,31.588,13.084l24.408,24.408l26.592-26.6l-24.4-24.396
	C289.896,245.62,285.948,226.884,292.344,210.392z"/>
<path style="fill:#8D4520;" d="M300.208,316.856c-2.12,0-4.156-0.844-5.656-2.344l-24.408-24.408
	c-6.928-6.924-16.136-10.74-25.932-10.74c-4.544,0-9.004,0.836-13.248,2.484c-14.016,5.428-28.76,8.184-43.832,8.184
	c-32.268-0.004-62.6-12.564-85.396-35.368c-21.848-21.848-34.344-51.016-35.188-82.136c-0.06-2.16,0.756-4.252,2.264-5.796
	c1.504-1.552,1.624-1.876,3.784-1.876h228c2.16,0,3.52,0.324,5.024,1.872c1.508,1.548,2.324,3.636,2.264,5.796
	c-0.376,13.996-3.096,27.616-8.088,40.488c-5.252,13.54-2.008,28.92,8.256,39.188l24.4,24.396c3.124,3.12,3.124,8.188,0.004,11.312
	l-26.592,26.6C304.368,316.012,302.332,316.856,300.208,316.856z M244.216,263.368c14.068,0,27.296,5.476,37.244,15.424
	l18.752,18.748l15.28-15.284l-18.744-18.74c-14.748-14.748-19.404-36.84-11.864-56.284c3.344-8.628,5.516-17.648,6.48-26.92H83.084
	c2.492,23.9,12.964,46.036,29.968,63.044c19.78,19.78,46.088,30.676,74.084,30.68c13.084,0,25.884-2.392,38.044-7.1
	C231.272,264.568,237.68,263.368,244.216,263.368z"/>
<g>
</g>
<g>
</g>
<g>
</g>
<g>
</g>
<g>
</g>
<g>
</g>
<g>
</g>
<g>
</g>
<g>
</g>
<g>
</g>
<g>
</g>
<g>
</g>
<g>
</g>
<g>
</g>
<g>
</g>
</svg>
