<?xml version="1.0" encoding="iso-8859-1"?>
<!-- Generator: Adobe Illustrator 19.0.0, SVG Export Plug-In . SVG Version: 6.00 Build 0)  -->
<svg version="1.1" id="Layer_1" xmlns="http://www.w3.org/2000/svg" xmlns:xlink="http://www.w3.org/1999/xlink" x="0px" y="0px"
	 viewBox="0 0 467.406 467.406" style="enable-background:new 0 0 467.406 467.406;" xml:space="preserve">
<ellipse style="fill:#B8CBCD;" cx="231.959" cy="394.457" rx="190.668" ry="47.252"/>
<path style="fill:#B9E3ED;" d="M455.407,257.697c0,0-99.26,136.952-221.704,136.952S11.999,257.697,11.999,257.697
	s99.26-136.952,221.704-136.952S455.407,257.697,455.407,257.697z"/>
<path style="fill:#324654;" d="M233.703,406.649c-127.104,0-227.22-136.116-231.42-141.912c-3.044-4.204-3.044-9.884,0-14.084
	c4.2-5.792,104.316-141.912,231.42-141.912s227.22,136.116,231.42,141.912c3.044,4.204,3.044,9.884,0,14.084
	C460.923,270.533,360.807,406.649,233.703,406.649z M27.183,257.697c21.98,27.368,107.332,124.952,206.52,124.952
	s184.54-97.584,206.52-124.952c-21.98-27.368-107.332-124.952-206.52-124.952S49.163,230.329,27.183,257.697z"/>
<circle style="fill:#FFFFFF;" cx="230.519" cy="260.217" r="93.632"/>
<g>
	<path style="fill:#324654;" d="M230.527,361.853c-56.04,0-101.632-45.592-101.632-101.636c0-56.04,45.592-101.632,101.632-101.632
		s101.636,45.592,101.636,101.632C332.163,316.261,286.571,361.853,230.527,361.853z M230.527,174.585
		c-47.22,0-85.632,38.416-85.632,85.632s38.416,85.636,85.632,85.636c47.22,0,85.636-38.416,85.636-85.636
		S277.747,174.585,230.527,174.585z"/>
	<path style="opacity:0.2;fill:#324654;enable-background:new    ;" d="M155.699,294.689h-16v-8c0-17.584,2.32-50.668,17.844-74.744
		c18.012-27.932,50.904-45.98,83.792-45.98h8v16h-8c-27.592,0-55.204,15.172-70.344,38.652
		c-13.304,20.628-15.288,50.252-15.288,66.072L155.699,294.689L155.699,294.689z"/>
	<circle style="fill:#324654;" cx="228.439" cy="259.777" r="47.204"/>
</g>
<path style="fill:#B9E3ED;" d="M228.459,314.969c-30.44,0-55.204-24.764-55.204-55.204s24.764-55.204,55.204-55.204
	s55.204,24.764,55.204,55.204S258.899,314.969,228.459,314.969z M228.459,220.565c-21.616,0-39.204,17.584-39.204,39.204
	c0,21.616,17.584,39.204,39.204,39.204c21.616,0,39.204-17.584,39.204-39.204C267.663,238.149,250.075,220.565,228.459,220.565z"/>
<g>
	<path style="fill:#324654;" d="M232.319,125.697c-6.628,0-12-5.372-12-12v-76c0-6.628,5.372-12,12-12c6.628,0,12,5.372,12,12v76
		C244.319,120.325,238.943,125.697,232.319,125.697z"/>
	<path style="fill:#324654;" d="M394.639,183.441c-3.072,0-6.144-1.172-8.484-3.516c-4.688-4.684-4.688-12.28,0-16.968l53.74-53.744
		c4.688-4.688,12.288-4.684,16.972,0c4.688,4.688,4.688,12.284,0,16.972l-53.74,53.74
		C400.779,182.269,397.707,183.441,394.639,183.441z"/>
	<path style="fill:#324654;" d="M76.375,183.441c-3.072,0-6.144-1.172-8.488-3.516l-53.736-53.744
		c-4.684-4.684-4.684-12.284,0.004-16.972c4.684-4.684,12.284-4.684,16.972,0l53.74,53.744c4.684,4.688,4.684,12.284,0,16.968
		C82.519,182.269,79.447,183.441,76.375,183.441z"/>
</g>
<g>
</g>
<g>
</g>
<g>
</g>
<g>
</g>
<g>
</g>
<g>
</g>
<g>
</g>
<g>
</g>
<g>
</g>
<g>
</g>
<g>
</g>
<g>
</g>
<g>
</g>
<g>
</g>
<g>
</g>
</svg>
