<?xml version="1.0" encoding="iso-8859-1"?>
<!-- Generator: Adobe Illustrator 19.0.0, SVG Export Plug-In . SVG Version: 6.00 Build 0)  -->
<svg version="1.1" id="Layer_1" xmlns="http://www.w3.org/2000/svg" xmlns:xlink="http://www.w3.org/1999/xlink" x="0px" y="0px"
	 viewBox="0 0 484 484" style="enable-background:new 0 0 484 484;" xml:space="preserve">
<ellipse style="fill:#B8CBCD;" cx="241.332" cy="393.994" rx="190.668" ry="47.252"/>
<path style="fill:#FFBAB0;" d="M384,150.754L353.848,97.71c-2.172-3.828-7.552-6.956-11.952-6.956H134.232
	c-4.4,0-9.44,3.3-11.204,7.332L100,150.754"/>
<path style="fill:#783741;" d="M99.992,162.758c-1.604,0-3.236-0.324-4.8-1.008c-6.072-2.656-8.844-9.728-6.188-15.8l23.028-52.668
	c3.68-8.416,13.016-14.524,22.2-14.524h207.664c8.684,0,18.096,5.48,22.388,13.028l30.148,53.044
	c3.276,5.76,1.26,13.088-4.504,16.36c-5.76,3.268-13.088,1.26-16.36-4.5l-30.152-53.044c-0.204-0.208-1.244-0.812-1.76-0.9
	l-207.092,0.008c-0.216,0.092-0.508,0.284-0.676,0.444l-22.896,52.364C109.024,160.07,104.616,162.754,99.992,162.758z"/>
<path style="fill:#FFBAB0;" d="M465.332,234.754l-25.62-48.916c-2.044-3.896-7.312-7.084-11.712-7.084h-40c-4.4,0-8,3.6-8,8v44"/>
<path style="fill:#783741;" d="M465.344,246.758c-4.32,0-8.496-2.34-10.64-6.432l-25.62-48.912c-0.116-0.084-0.948-0.588-1.38-0.676
	L392,190.754v40c0,6.628-5.372,12-12,12s-12-5.372-12-12v-44c0-11.028,8.972-20,20-20h40c8.84,0,18.236,5.684,22.34,13.512
	l25.624,48.916c3.076,5.872,0.808,13.124-5.064,16.2C469.124,246.314,467.22,246.758,465.344,246.758z"/>
<path style="fill:#FFBAB0;" d="M20,230.754l29.716-45.312c2.412-3.68,7.988-6.688,12.388-6.688h36c4.4,0,8,3.6,8,8v44"/>
<path style="fill:#783741;" d="M19.988,242.758c-2.256,0-4.54-0.636-6.572-1.968c-5.54-3.636-7.088-11.076-3.452-16.616
	l29.716-45.312c4.6-7.016,14.028-12.108,22.424-12.108h36c11.028,0,20,8.972,20,20v44c0,6.628-5.372,12-12,12s-12-5.372-12-12v-40
	h-32c-0.556,0.08-1.98,0.848-2.44,1.392l-29.628,45.188C27.728,240.846,23.896,242.758,19.988,242.758z"/>
<rect x="100" y="150.754" style="fill:#FFBAB0;" width="284" height="232"/>
<path style="fill:#783741;" d="M384,390.754H100c-4.42,0-8-3.584-8-8v-232c0-4.416,3.58-8,8-8h284c4.416,0,8,3.584,8,8v232
	C392,387.17,388.416,390.754,384,390.754z M108,374.754h268v-216H108V374.754z"/>
<rect x="384" y="238.754" style="fill:#FFBAB0;" width="88" height="144"/>
<path style="fill:#783741;" d="M472,390.754h-88c-4.42,0-8-3.584-8-8v-144c0-4.416,3.58-8,8-8h88c4.416,0,8,3.584,8,8v144
	C480,387.17,476.416,390.754,472,390.754z M392,374.754h72v-128h-72V374.754z"/>
<rect x="12" y="238.754" style="fill:#FFBAB0;" width="88" height="144"/>
<g>
	<path style="fill:#783741;" d="M100,390.754H12c-4.416,0-8-3.584-8-8v-144c0-4.416,3.584-8,8-8h88c4.416,0,8,3.584,8,8v144
		C108,387.17,104.416,390.754,100,390.754z M20,374.754h72v-128H20V374.754z"/>
	<path style="fill:#783741;" d="M472,394.754H12c-6.628,0-12-5.372-12-12v-140c0-2.16,0.584-4.28,1.688-6.14l38.104-64
		c2.164-3.632,6.08-5.86,10.312-5.86H84v-16c0-1.656,0.34-3.292,1.008-4.808l26.232-60c1.908-4.368,6.22-7.192,10.992-7.192h223.664
		c3.912,0,7.576,1.908,9.824,5.108l42.104,60c1.416,2.02,2.176,4.424,2.176,6.892v16h36c4.348,0,8.36,2.352,10.48,6.152l36,64.5
		c1,1.788,1.52,3.8,1.52,5.848v139.5C484,389.382,478.624,394.754,472,394.754z M24,370.754h436V246.378l-31.044-55.624H388
		c-6.628,0-12-5.372-12-12v-24.208l-36.344-51.792H130.08L108,153.262v25.492c0,6.628-5.372,12-12,12H56.924L24,246.058V370.754z"/>
	<rect x="60" y="234.754" style="opacity:0.2;fill:#783741;enable-background:new    ;" width="40" height="148"/>
	<rect x="384" y="234.754" style="opacity:0.2;fill:#783741;enable-background:new    ;" width="40" height="148"/>
	<path style="fill:#783741;" d="M296,126.754c-6.628,0-12-5.372-12-12v-48h-88v48c0,6.628-5.372,12-12,12s-12-5.372-12-12v-60
		c0-6.628,5.372-12,12-12h112c6.628,0,12,5.372,12,12v60C308,121.382,302.624,126.754,296,126.754z"/>
</g>
<circle style="fill:#FFFFFF;" cx="242" cy="268.754" r="74"/>
<g>
	<path style="fill:#783741;" d="M256,294.754c0,6.6-5.4,12-12,12l0,0c-6.6,0-12-5.4-12-12v-48c0-6.6,5.4-12,12-12l0,0
		c6.6,0,12,5.4,12,12V294.754z"/>
	<path style="fill:#783741;" d="M220,282.754c-6.6,0-12-5.4-12-12l0,0c0-6.6,5.4-12,12-12h48c6.6,0,12,5.4,12,12l0,0
		c0,6.6-5.4,12-12,12H220z"/>
</g>
<g>
</g>
<g>
</g>
<g>
</g>
<g>
</g>
<g>
</g>
<g>
</g>
<g>
</g>
<g>
</g>
<g>
</g>
<g>
</g>
<g>
</g>
<g>
</g>
<g>
</g>
<g>
</g>
<g>
</g>
</svg>
