<?xml version="1.0" encoding="iso-8859-1"?>
<!-- Generator: Adobe Illustrator 19.0.0, SVG Export Plug-In . SVG Version: 6.00 Build 0)  -->
<svg version="1.1" id="Layer_1" xmlns="http://www.w3.org/2000/svg" xmlns:xlink="http://www.w3.org/1999/xlink" x="0px" y="0px"
	 viewBox="0 0 427.344 427.344" style="enable-background:new 0 0 427.344 427.344;" xml:space="preserve">
<ellipse style="fill:#B8CBCD;" cx="213.672" cy="380.092" rx="190.668" ry="47.252"/>
<path style="fill:#F6E89A;" d="M276.352,147.016V35.332h-112v111.684c-49.436,21.604-84,70.916-84,128.316
	c0,77.32,62.68,140,140,140s140-62.68,140-140C360.352,217.928,325.788,168.62,276.352,147.016z"/>
<path style="fill:#8D4520;" d="M222.032,427.332c-83.812,0-152-68.188-152-152c0-57.756,32.72-110.28,84-135.94V35.332
	c0-6.628,5.372-12,12-12h112c6.628,0,12,5.372,12,12v104.06c51.28,25.66,84,78.184,84,135.94
	C374.032,359.144,305.844,427.332,222.032,427.332z M178.032,47.332v99.684c0,4.768-2.824,9.088-7.196,10.996
	c-46.656,20.392-76.804,66.44-76.804,117.32c0,70.58,57.42,128,128,128c70.576,0,128-57.42,128-128
	c0-50.88-30.148-96.928-76.804-117.32c-4.372-1.908-7.196-6.228-7.196-10.996V47.332H178.032z"/>
<path style="fill:#FFFFFF;" d="M119.952,279.332c1.552,55.128,46.696,99.352,102.2,99.352s100.648-44.224,102.2-99.352H119.952z"/>
<g>
	<path style="fill:#8D4520;" d="M222.152,386.684c-60.1,0-108.504-47.056-110.196-107.124c-0.06-2.16,0.752-4.252,2.26-5.804
		c1.504-1.548,3.576-2.424,5.736-2.424h204.4c2.16,0,4.232,0.876,5.736,2.42c1.508,1.552,2.324,3.644,2.26,5.804
		C330.66,339.628,282.252,386.684,222.152,386.684z M128.528,287.332c5.368,47.356,45.02,83.352,93.624,83.352
		s88.252-35.996,93.62-83.352H128.528z"/>
	<ellipse style="fill:#8D4520;" cx="216.792" cy="327.252" rx="12.428" ry="11.912"/>
	<ellipse style="fill:#8D4520;" cx="253.992" cy="341.252" rx="10.356" ry="9.928"/>
	<ellipse style="fill:#8D4520;" cx="198.232" cy="348.372" rx="7.252" ry="6.948"/>
	<rect x="178.032" y="57.332" style="opacity:0.2;fill:#8D4520;enable-background:new    ;" width="88" height="36"/>
	<path style="fill:#8D4520;" d="M276.352,55.332h-112c-4.42,0-8-3.584-8-8s3.58-8,8-8h112c4.416,0,8,3.584,8,8
		S280.768,55.332,276.352,55.332z"/>
	<path style="fill:#8D4520;" d="M260.352,193.332h-80c-4.42,0-8-3.584-8-8s3.58-8,8-8h80c4.416,0,8,3.584,8,8
		S264.768,193.332,260.352,193.332z"/>
	<path style="fill:#8D4520;" d="M260.352,225.332h-80c-4.42,0-8-3.584-8-8s3.58-8,8-8h80c4.416,0,8,3.584,8,8
		S264.768,225.332,260.352,225.332z"/>
</g>
<ellipse style="fill:#F6E89A;" cx="220.352" cy="37.332" rx="72" ry="25.332"/>
<path style="fill:#8D4520;" d="M220.352,74.664c-40.456,0-84-11.684-84-37.332S179.896,0,220.352,0s84,11.684,84,37.332
	S260.808,74.664,220.352,74.664z M160.88,37.332c4.34,4.596,24.416,13.332,59.472,13.332s55.128-8.736,59.468-13.332
	C275.48,32.736,255.404,24,220.352,24C185.296,24,165.22,32.736,160.88,37.332z"/>
<ellipse style="fill:#F6ECB6;" cx="222.112" cy="277.332" rx="102.26" ry="24"/>
<path style="fill:#8D4520;" d="M222.092,309.332c-11.284,0-110.26-0.9-110.26-32s98.976-32,110.26-32s110.26,0.9,110.26,32
	S233.376,309.332,222.092,309.332z M128.232,277.332c5.472,6.112,39.244,16,93.86,16s88.388-9.888,93.86-16
	c-5.472-6.112-39.244-16-93.86-16S133.704,271.22,128.232,277.332z"/>
<g>
</g>
<g>
</g>
<g>
</g>
<g>
</g>
<g>
</g>
<g>
</g>
<g>
</g>
<g>
</g>
<g>
</g>
<g>
</g>
<g>
</g>
<g>
</g>
<g>
</g>
<g>
</g>
<g>
</g>
</svg>
