<?xml version="1.0" encoding="iso-8859-1"?>
<!-- Generator: Adobe Illustrator 19.0.0, SVG Export Plug-In . SVG Version: 6.00 Build 0)  -->
<svg version="1.1" id="Layer_1" xmlns="http://www.w3.org/2000/svg" xmlns:xlink="http://www.w3.org/1999/xlink" x="0px" y="0px"
	 viewBox="0 0 484 484" style="enable-background:new 0 0 484 484;" xml:space="preserve">
<ellipse style="fill:#B8CBCD;" cx="242.708" cy="384.526" rx="182.708" ry="45.28"/>
<path style="fill:#FFBAB0;" d="M262.132,96.042l-17.528,17.528l-17.528-17.528c-39.8-39.796-104.324-39.796-144.12,0
	s-39.796,104.32,0,144.116l17.528,17.532l144.12,144.116L388.72,257.69l17.528-17.532c39.796-39.796,39.796-104.32,0-144.116
	S301.928,56.242,262.132,96.042z"/>
<g>
	<path style="fill:#783741;" d="M244.604,413.806c-3.072,0-6.14-1.172-8.484-3.516L74.472,248.642
		c-44.416-44.412-44.416-116.676,0-161.084c21.512-21.516,50.116-33.364,80.544-33.364c30.424,0,59.032,11.848,80.548,33.364
		l9.044,9.044l9.044-9.044c21.512-21.516,50.116-33.364,80.544-33.364c30.424,0,59.032,11.848,80.544,33.364
		c21.516,21.512,33.364,50.116,33.364,80.544c0,30.424-11.848,59.032-33.364,80.544L253.096,410.294
		C250.744,412.634,247.676,413.806,244.604,413.806z M155.016,78.194c-24.016,0-46.592,9.352-63.576,26.332
		c-35.056,35.056-35.056,92.092,0,127.148l153.164,153.164l153.16-153.164c35.056-35.056,35.056-92.092,0-127.148
		c-16.98-16.98-39.56-26.332-63.576-26.332s-46.592,9.352-63.576,26.332l-17.528,17.528c-4.688,4.688-12.28,4.688-16.968,0
		l-17.528-17.528C201.608,87.546,179.028,78.194,155.016,78.194z"/>
	<path style="opacity:0.2;fill:#783741;enable-background:new    ;" d="M244.604,386.194c-3.072,0-6.14-1.172-8.484-3.516
		L93.552,240.118l-15.52-6.98c-6.044-2.72-8.744-9.824-6.024-15.868c2.72-6.044,9.82-8.748,15.868-6.024l17.528,7.884
		c1.328,0.596,2.536,1.428,3.564,2.46l135.636,135.632L380.236,221.59c0.536-0.54,1.12-1.024,1.752-1.448l17.528-11.884
		c5.488-3.724,12.948-2.28,16.668,3.2c3.72,5.484,2.284,12.948-3.2,16.668L396.4,239.37L253.088,382.678
		C250.744,385.022,247.676,386.194,244.604,386.194z"/>
</g>
<path style="fill:#783741;" d="M56,229.806H12c-6.628,0-12-5.372-12-12s5.372-12,12-12h44c6.628,0,12,5.372,12,12
	S62.628,229.806,56,229.806z"/>
<polyline style="fill:#FFBAB0;" points="60,218.194 164,218.194 196,150.194 248,294.194 292,170.194 312,214.194 432,214.194 "/>
<path style="fill:#783741;" d="M248,302.194c-3.372,0-6.38-2.112-7.524-5.28l-45.452-125.86l-23.788,50.548
	c-1.32,2.804-4.14,4.592-7.24,4.592h-104c-4.42,0-8-3.584-8-8s3.58-8,8-8h98.92l29.84-63.408c1.376-2.924,4.156-4.744,7.612-4.584
	c3.232,0.152,6.052,2.236,7.148,5.272l44.412,122.98l36.528-102.936c1.088-3.076,3.936-5.176,7.196-5.316
	c3.34-0.096,6.276,1.712,7.624,4.684l17.872,39.308h114.848c4.416,0,8,3.584,8,8s-3.584,8-8,8h-120c-3.136,0-5.984-1.832-7.28-4.692
	l-11.804-25.964L255.536,296.87c-1.128,3.184-4.136,5.316-7.516,5.324C248.016,302.194,248.008,302.194,248,302.194z"/>
<path style="fill:#783741;" d="M472,225.806h-36c-6.628,0-12-5.372-12-12s5.372-12,12-12h36c6.628,0,12,5.372,12,12
	S478.628,225.806,472,225.806z"/>
<g>
</g>
<g>
</g>
<g>
</g>
<g>
</g>
<g>
</g>
<g>
</g>
<g>
</g>
<g>
</g>
<g>
</g>
<g>
</g>
<g>
</g>
<g>
</g>
<g>
</g>
<g>
</g>
<g>
</g>
</svg>
