<?xml version="1.0" encoding="iso-8859-1"?>
<!-- Generator: Adobe Illustrator 19.0.0, SVG Export Plug-In . SVG Version: 6.00 Build 0)  -->
<svg version="1.1" id="Layer_1" xmlns="http://www.w3.org/2000/svg" xmlns:xlink="http://www.w3.org/1999/xlink" x="0px" y="0px"
	 viewBox="0 0 480.001 480.001" style="enable-background:new 0 0 480.001 480.001;" xml:space="preserve">
<ellipse style="fill:#B8CBCD;" cx="250.669" cy="413.997" rx="190.668" ry="47.252"/>
<g>
	<path style="fill:#324654;" d="M245.681,430.757c-6.628,0-12-5.372-12-12v-88c0-6.628,5.372-12,12-12c6.628,0,12,5.372,12,12v88
		C257.681,425.385,252.305,430.757,245.681,430.757z"/>
	<path style="fill:#324654;" d="M293.681,390.757c-6.628,0-12-5.372-12-12v-32c0-6.628,5.372-12,12-12s12,5.372,12,12v32
		C305.681,385.385,300.309,390.757,293.681,390.757z"/>
	<path style="fill:#324654;" d="M432.001,434.757h-316c-6.628,0-12-5.372-12-12s5.372-12,12-12h316c6.628,0,12,5.372,12,12
		S438.629,434.757,432.001,434.757z"/>
	<path style="fill:#324654;" d="M412.001,394.757h-276c-6.628,0-12-5.372-12-12s5.372-12,12-12h276c6.628,0,12,5.372,12,12
		S418.629,394.757,412.001,394.757z"/>
	<path style="fill:#324654;" d="M128.009,158.761c-4.46,0-8.74-2.496-10.812-6.78c-2.884-5.968-0.384-13.144,5.584-16.028l240-116
		c5.96-2.88,13.144-0.392,16.028,5.58c2.884,5.968,0.384,13.144-5.584,16.028l-240,116
		C131.537,158.373,129.761,158.761,128.009,158.761z"/>
	<path style="fill:#324654;" d="M395.993,158.761c-1.752,0-3.532-0.388-5.216-1.2l-240-116c-5.968-2.884-8.464-10.06-5.584-16.028
		c2.884-5.972,10.052-8.464,16.028-5.58l240,116c5.964,2.884,8.464,10.06,5.584,16.028
		C404.733,156.265,400.449,158.761,395.993,158.761z"/>
</g>
<path style="fill:#B9E3ED;" d="M304.001,186.757l-8-20h-76l-8,20h-112l-40-48h-48l40,48c-20,0-16,26-16,26c0,14.36,11.64,26,26,26
	h38.428c16.66,4.208,41.392,10.912,51.572,16c9.912,4.956,22.9,17.596,32.296,29.352c1.424,17.252,9.608,33.236,22.82,46.648
	h217.764c14.576-14.792,43.116-32.7,43.116-52c0-50.812-79.096-92-152-92H304.001z"/>
<path style="fill:#324654;" d="M424.881,342.757H207.117c-3.216,0-6.296-1.288-8.548-3.58
	c-14.524-14.748-23.396-32.04-25.816-50.228c-8.956-10.676-19.404-20.1-26.12-23.46c-6.768-3.388-24.108-8.74-47.7-14.736H62.001
	c-20.656,0-37.512-16.564-37.992-37.104c-0.588-4.692-1.612-19.568,7.236-29.88c0.42-0.492,0.888-0.996,1.396-1.5l-29.86-35.832
	c-2.98-3.576-3.624-8.56-1.648-12.772c1.976-4.212,6.212-6.908,10.868-6.908h48c3.56,0,6.94,1.584,9.22,4.316l36.4,43.684h98.252
	l4.984-12.456c1.824-4.556,6.236-7.544,11.144-7.544h76c4.908,0,9.32,2.988,11.14,7.544l4.984,12.456h3.876
	c77.412,0,164,44.476,164,104c0,19.884-18.12,35.452-34.104,49.188c-4.676,4.016-9.088,7.812-12.464,11.236
	C431.177,341.469,428.097,342.757,424.881,342.757z M212.341,318.757h207.684c3.164-2.944,6.62-5.916,10.228-9.016
	c10.864-9.336,25.748-22.12,25.748-30.984c0-40.376-69.348-80-140-80h-12c-4.908,0-9.32-2.988-11.14-7.544l-4.984-12.456h-59.752
	l-4.984,12.456c-1.82,4.556-6.236,7.544-11.14,7.544h-112c-3.56,0-6.94-1.584-9.22-4.316l-36.404-43.684H37.621l23.596,28.316
	c2.98,3.576,3.624,8.56,1.648,12.772c-1.976,4.216-6.212,6.912-10.868,6.912c-1.984,0-2.396,0.476-2.532,0.636
	c-1.592,1.832-2.156,7.64-1.596,11.608c0.08,0.556,0.132,1.192,0.132,1.756c0,7.72,6.28,14,14,14h38.428
	c0.992,0,1.976,0.12,2.936,0.364c27.076,6.84,45.24,12.528,54,16.904c12.584,6.292,27,20.96,36.304,32.592
	c1.492,1.864,2.392,4.128,2.588,6.508C197.289,295.653,202.825,307.885,212.341,318.757z"/>
<path style="fill:#FFFFFF;" d="M300.001,298.757c33.156,0,104,0,104,0c8.056-8.176,23.828-18.492,23.828-29.156
	c0-28.084-87.54-50.844-127.828-50.844V298.757z"/>
<g>
	<path style="fill:#324654;" d="M404.001,306.757h-104c-4.42,0-8-3.584-8-8v-80c0-4.416,3.58-8,8-8
		c33.812,0,135.828,20.872,135.828,58.844c0,11.676-10.4,20.764-19.572,28.788c-2.464,2.152-4.788,4.184-6.56,5.98
		C408.193,305.897,406.141,306.757,404.001,306.757z M308.001,290.757h92.768c1.556-1.44,3.224-2.9,4.952-4.416
		c5.616-4.912,14.104-12.332,14.104-16.744c0-17.424-66.912-40.048-111.828-42.604L308.001,290.757L308.001,290.757z"/>
	<path style="fill:#324654;" d="M257.681,174.757c-6.628,0-12-5.372-12-12v-68c0-6.628,5.372-12,12-12c6.628,0,12,5.372,12,12v68
		C269.681,169.385,264.309,174.757,257.681,174.757z"/>
</g>
<circle style="fill:#FFFFFF;" cx="244.001" cy="250.757" r="40"/>
<g>
	<path style="fill:#324654;" d="M252.001,262.757c0,6.6-3.6,12-8,12s-8-5.4-8-12v-24c0-6.6,3.6-12,8-12s8,5.4,8,12V262.757z"/>
	<path style="fill:#324654;" d="M232.001,258.757c-6.6,0-12-3.6-12-8s5.4-8,12-8h24c6.6,0,12,3.6,12,8s-5.4,8-12,8H232.001z"/>
</g>
<g>
</g>
<g>
</g>
<g>
</g>
<g>
</g>
<g>
</g>
<g>
</g>
<g>
</g>
<g>
</g>
<g>
</g>
<g>
</g>
<g>
</g>
<g>
</g>
<g>
</g>
<g>
</g>
<g>
</g>
</svg>
