<?xml version="1.0" encoding="iso-8859-1"?>
<!-- Generator: Adobe Illustrator 19.0.0, SVG Export Plug-In . SVG Version: 6.00 Build 0)  -->
<svg version="1.1" id="Layer_1" xmlns="http://www.w3.org/2000/svg" xmlns:xlink="http://www.w3.org/1999/xlink" x="0px" y="0px"
	 viewBox="0 0 488 488" style="enable-background:new 0 0 488 488;" xml:space="preserve">
<ellipse style="fill:#B8CBCD;" cx="242.68" cy="435.994" rx="190.668" ry="47.252"/>
<polyline style="fill:#B9E3ED;" points="372,64.754 372,220.754 372,424.754 116,424.754 116,64.754 "/>
<g>
	<path style="fill:#324654;" d="M116,232.754c-6.628,0-12-5.372-12-12v-156c0-6.628,5.372-12,12-12c6.628,0,12,5.372,12,12v156
		C128,227.382,122.624,232.754,116,232.754z"/>
	<path style="fill:#324654;" d="M372,436.754H116c-6.628,0-12-5.372-12-12s5.372-12,12-12h256c6.628,0,12,5.372,12,12
		S378.624,436.754,372,436.754z"/>
	<path style="fill:#324654;" d="M372,232.754c-6.628,0-12-5.372-12-12v-156c0-6.628,5.372-12,12-12s12,5.372,12,12v156
		C384,227.382,378.624,232.754,372,232.754z"/>
</g>
<polyline style="fill:#B9E3ED;" points="372,224.754 476,224.754 476,424.754 372,424.754 "/>
<path style="fill:#324654;" d="M476,436.754H372c-6.628,0-12-5.372-12-12s5.372-12,12-12h92v-176h-92c-6.628,0-12-5.372-12-12
	s5.372-12,12-12h104c6.628,0,12,5.372,12,12v200C488,431.382,482.624,436.754,476,436.754z"/>
<polyline style="fill:#B9E3ED;" points="116,424.754 12,424.754 12,224.754 116,224.754 "/>
<path style="fill:#324654;" d="M116,436.754H12c-6.628,0-12-5.372-12-12v-200c0-6.628,5.372-12,12-12h104c6.628,0,12,5.372,12,12
	s-5.372,12-12,12H24v176h92c6.628,0,12,5.372,12,12S122.624,436.754,116,436.754z"/>
<polyline style="fill:#FFFFFF;" points="111.996,64.754 88,64.754 88,16.754 400,16.754 400,64.754 371.996,64.754 "/>
<path style="fill:#324654;" d="M400,76.754h-28.004c-6.628,0-12-5.372-12-12s5.372-12,12-12H388v-24H100v24h11.996
	c6.628,0,12,5.372,12,12s-5.372,12-12,12H88c-6.628,0-12-5.372-12-12v-48c0-6.628,5.372-12,12-12h312c6.628,0,12,5.372,12,12v48
	C412,71.382,406.624,76.754,400,76.754z"/>
<rect x="152" y="264.754" style="fill:#FFFFFF;" width="40" height="40"/>
<path style="fill:#324654;" d="M192,312.754h-40c-4.42,0-8-3.584-8-8v-40c0-4.416,3.58-8,8-8h40c4.416,0,8,3.584,8,8v40
	C200,309.17,196.416,312.754,192,312.754z M160,296.754h24v-24h-24V296.754z"/>
<rect x="152" y="336.754" style="fill:#FFFFFF;" width="40" height="40"/>
<path style="fill:#324654;" d="M192,384.754h-40c-4.42,0-8-3.584-8-8v-40c0-4.416,3.58-8,8-8h40c4.416,0,8,3.584,8,8v40
	C200,381.17,196.416,384.754,192,384.754z M160,368.754h24v-24h-24V368.754z"/>
<rect x="224" y="264.754" style="fill:#FFFFFF;" width="40" height="40"/>
<path style="fill:#324654;" d="M264,312.754h-40c-4.42,0-8-3.584-8-8v-40c0-4.416,3.58-8,8-8h40c4.416,0,8,3.584,8,8v40
	C272,309.17,268.416,312.754,264,312.754z M232,296.754h24v-24h-24V296.754z"/>
<rect x="224" y="336.754" style="fill:#FFFFFF;" width="40" height="40"/>
<path style="fill:#324654;" d="M264,384.754h-40c-4.42,0-8-3.584-8-8v-40c0-4.416,3.58-8,8-8h40c4.416,0,8,3.584,8,8v40
	C272,381.17,268.416,384.754,264,384.754z M232,368.754h24v-24h-24V368.754z"/>
<rect x="296" y="264.754" style="fill:#FFFFFF;" width="40" height="40"/>
<path style="fill:#324654;" d="M336,312.754h-40c-4.42,0-8-3.584-8-8v-40c0-4.416,3.58-8,8-8h40c4.416,0,8,3.584,8,8v40
	C344,309.17,340.416,312.754,336,312.754z M304,296.754h24v-24h-24V296.754z"/>
<rect x="152" y="192.754" style="fill:#FFFFFF;" width="40" height="40"/>
<path style="fill:#324654;" d="M192,240.754h-40c-4.42,0-8-3.584-8-8v-40c0-4.416,3.58-8,8-8h40c4.416,0,8,3.584,8,8v40
	C200,237.17,196.416,240.754,192,240.754z M160,224.754h24v-24h-24V224.754z"/>
<rect x="224" y="192.754" style="fill:#FFFFFF;" width="40" height="40"/>
<path style="fill:#324654;" d="M264,240.754h-40c-4.42,0-8-3.584-8-8v-40c0-4.416,3.58-8,8-8h40c4.416,0,8,3.584,8,8v40
	C272,237.17,268.416,240.754,264,240.754z M232,224.754h24v-24h-24V224.754z"/>
<rect x="296" y="192.754" style="fill:#FFFFFF;" width="40" height="40"/>
<path style="fill:#324654;" d="M336,240.754h-40c-4.42,0-8-3.584-8-8v-40c0-4.416,3.58-8,8-8h40c4.416,0,8,3.584,8,8v40
	C344,237.17,340.416,240.754,336,240.754z M304,224.754h24v-24h-24V224.754z"/>
<rect x="296" y="336.754" style="fill:#FFFFFF;" width="40" height="40"/>
<path style="fill:#324654;" d="M336,384.754h-40c-4.42,0-8-3.584-8-8v-40c0-4.416,3.58-8,8-8h40c4.416,0,8,3.584,8,8v40
	C344,381.17,340.416,384.754,336,384.754z M304,368.754h24v-24h-24V368.754z"/>
<rect x="48" y="276.754" style="fill:#FFFFFF;" width="40" height="96"/>
<path style="fill:#324654;" d="M88,380.754H48c-4.42,0-8-3.584-8-8v-96c0-4.416,3.58-8,8-8h40c4.416,0,8,3.584,8,8v96
	C96,377.17,92.416,380.754,88,380.754z M56,364.754h24v-80H56V364.754z"/>
<rect x="400" y="276.754" style="fill:#FFFFFF;" width="40" height="96"/>
<g>
	<path style="fill:#324654;" d="M440,380.754h-40c-4.42,0-8-3.584-8-8v-96c0-4.416,3.58-8,8-8h40c4.416,0,8,3.584,8,8v96
		C448,377.17,444.416,380.754,440,380.754z M408,364.754h24v-80h-24V364.754z"/>
	<path style="fill:#324654;" d="M376,68.754H116c-4.42,0-8-3.584-8-8s3.58-8,8-8h260c4.416,0,8,3.584,8,8S380.416,68.754,376,68.754
		z"/>
	<path style="fill:#324654;" d="M368,436.754c-4.42,0-8-3.584-8-8v-200c0-4.416,3.58-8,8-8c4.416,0,8,3.584,8,8v200
		C376,433.17,372.416,436.754,368,436.754z"/>
	<path style="fill:#324654;" d="M120,436.754c-4.42,0-8-3.584-8-8v-200c0-4.416,3.58-8,8-8c4.416,0,8,3.584,8,8v200
		C128,433.17,124.416,436.754,120,436.754z"/>
</g>
<circle style="fill:#FFFFFF;" cx="244" cy="124.754" r="48"/>
<g>
	<path style="fill:#324654;" d="M252,136.754c0,6.6-3.6,12-8,12s-8-5.4-8-12v-24c0-6.6,3.6-12,8-12s8,5.4,8,12V136.754z"/>
	<path style="fill:#324654;" d="M232,132.754c-6.6,0-12-3.6-12-8s5.4-8,12-8h24c6.6,0,12,3.6,12,8s-5.4,8-12,8H232z"/>
</g>
<g>
</g>
<g>
</g>
<g>
</g>
<g>
</g>
<g>
</g>
<g>
</g>
<g>
</g>
<g>
</g>
<g>
</g>
<g>
</g>
<g>
</g>
<g>
</g>
<g>
</g>
<g>
</g>
<g>
</g>
</svg>
