<?xml version="1.0" encoding="iso-8859-1"?>
<!-- Generator: Adobe Illustrator 19.0.0, SVG Export Plug-In . SVG Version: 6.00 Build 0)  -->
<svg version="1.1" id="Layer_1" xmlns="http://www.w3.org/2000/svg" xmlns:xlink="http://www.w3.org/1999/xlink" x="0px" y="0px"
	 viewBox="0 0 500 500" style="enable-background:new 0 0 500 500;" xml:space="preserve">
<ellipse style="fill:#B8CBCD;" cx="236" cy="451.24" rx="190.668" ry="47.252"/>
<g>
	<path style="fill:#3C663E;" d="M301.332,340c-6.628,0-12-5.372-12-12c0-23.536-11.248-28-32-28H110.668c-35.888,0-64-26.356-64-60
		c0-33.256,28.072-56.432,53.26-56.432c6.628,0,12,5.372,12,12s-5.372,12-12,12c-10.5,0-29.26,10.836-29.26,32.432
		c0,20.524,17.196,36,40,36h146.664c37.16,0,56,17.496,56,52C313.332,334.628,307.96,340,301.332,340z"/>
	<path style="fill:#3C663E;" d="M130.668,424c-6.628,0-12-5.372-12-12c0-35.892,51.016-60,98.664-60c66.1,0,73.336-12.812,73.336-40
		c0-6.628,5.372-12,12-12s12,5.372,12,12c0,53.528-35.692,64-97.336,64c-37.68,0-74.664,17.832-74.664,36
		C142.668,418.628,137.296,424,130.668,424z"/>
	<path style="fill:#3C663E;" d="M370.68,208c-6.628,0-12-5.372-12-12s5.372-12,12-12c24.156,0,59.988-33.592,59.988-80
		c0-43.324-35.256-76-82-76c-34.824,0-54,11.364-54,32c0,6.628-5.372,12-12,12s-12-5.372-12-12c0-13.136,5.624-56,78-56
		c60.428,0,106,42.992,106,100C454.668,162.572,409.52,208,370.68,208z"/>
</g>
<path style="fill:#B2EDA6;" d="M312.668,57.716c-10.46,10.46-44.244,35.704-54.704,25.248C247.508,72.504,264.34,30.3,274.8,19.84
	c10.456-10.456,27.408-10.456,37.868,0C323.128,30.3,323.128,47.256,312.668,57.716z"/>
<path style="fill:#3C663E;" d="M264.88,97.452c-7.768,0-12.664-3.26-15.404-6c-18.152-18.156,5.48-68.744,16.836-80.096
	C273.64,4.032,283.372,0,293.732,0c10.356,0,20.088,4.032,27.416,11.352c7.328,7.328,11.364,17.068,11.364,27.424
	s-4.036,20.096-11.364,27.424C314.548,72.8,285.656,97.452,264.88,97.452z M293.732,24c-3.948,0-7.656,1.536-10.448,4.328
	c-7.704,7.704-17.636,35.3-16.696,44.956c9.244-1.644,28.624-15.088,37.592-24.056c2.792-2.792,4.332-6.504,4.332-10.452
	s-1.54-7.66-4.332-10.452C301.388,25.536,297.68,24,293.732,24z"/>
<ellipse style="fill:#B2EDA6;" cx="237.348" cy="458" rx="76" ry="30"/>
<path style="fill:#3C663E;" d="M237.332,500c-43.732,0-88-14.424-88-42s44.268-42,88-42s88,14.424,88,42S281.06,500,237.332,500z
	 M237.332,440c-41.996,0-64,13.376-64,18s22.004,18,64,18s64-13.376,64-18S279.328,440,237.332,440z"/>
<path style="fill:#B2EDA6;" d="M237.332,460c-41.972,0-76-13.428-76-30s34.028-30,76-30s76,13.428,76,30
	c0,8.632-9.228,16.408-24,21.88"/>
<g>
	<path style="fill:#3C663E;" d="M237.332,468c-41.744,0-84-13.052-84-38s42.256-38,84-38c41.74,0,84,13.052,84,38
		c0,11.968-10.38,22.4-29.224,29.38c-4.128,1.528-8.744-0.58-10.276-4.724c-1.536-4.144,0.576-8.748,4.724-10.28
		c12.972-4.804,18.776-10.684,18.776-14.376c0-8.756-27.12-22-68-22s-68,13.244-68,22s27.12,22,68,22c4.416,0,8,3.584,8,8
		S241.748,468,237.332,468z"/>
	<path style="fill:#3C663E;" d="M237.332,440c-6.628,0-12-5.372-12-12V289.716c0-6.628,5.372-12,12-12s12,5.372,12,12V428
		C249.332,434.628,243.96,440,237.332,440z"/>
</g>
<path style="fill:#B2EDA6;" d="M97.332,141.204l3.032,67.356c0,64.752,70.976,117.244,135.728,117.244
	s129.244-52.492,129.244-117.244v-67.356H97.332z"/>
<path style="fill:#3C663E;" d="M237.332,336c-69.148,0-146.484-54.74-146.484-128v-68c0-6.628,5.372-12,12-12h266.484
	c6.628,0,12,5.372,12,12v68C381.332,281.26,305.308,336,237.332,336z M114.848,152v56c0,58.572,65.844,104,122.484,104
	c56.644,0,120-44.476,120-104v-56H114.848z"/>
<g>
	<path style="fill:#FFFFFF;" d="M369.332,160.28c0-10.968-64.532-20-129.804-20c-65.276,0-136.68,8.892-136.68,19.86
		c0,10.964,71.404,19.86,136.68,19.86C304.8,180,369.332,171.252,369.332,160.28z"/>
	<path style="fill:#FFFFFF;" d="M141.332,208.428v-67.224H98.848v67.356c0,63.072,68.292,114.488,130.72,117.116
		C188.02,303.08,141.332,259.048,141.332,208.428z"/>
</g>
<path style="fill:#B2EDA6;" d="M369.332,140c0-10.968-64.532-20-129.804-20c-65.276,0-136.68,8.892-136.68,19.86
	c0,10.964,71.404,19.86,136.68,19.86C304.8,159.72,369.332,150.968,369.332,140z"/>
<g>
	<path style="fill:#3C663E;" d="M239.524,167.72c-32.584,0-66.812-2.148-93.916-5.892c-42.272-5.84-50.764-12.736-50.764-21.968
		c0-9.232,8.492-16.128,50.764-21.968c27.104-3.744,61.332-5.892,93.916-5.892c32.136,0,65.144,2.176,90.564,5.976
		c39.208,5.856,47.244,13.04,47.244,22.024s-8.04,16.144-47.264,21.888C304.772,165.592,271.772,167.72,239.524,167.72z
		 M116.792,139.86c18.04,5.56,65.828,11.86,122.736,11.86c55.7,0,100.748-6.22,116.944-11.748
		C340.264,134.34,295.188,128,239.524,128C182.616,128,134.828,134.3,116.792,139.86z"/>
	<path style="fill:#3C663E;" d="M238.572,336c-70.448,0-147.724-54.74-147.724-128v-68c-0.108-1.176-0.404-2.844-0.18-4
		c1.72-12.028,15.828-16.76,54.628-22.004c27.788-3.756,63.728-5.996,96.136-5.996c32.224,0,65.112,2.196,90.236,6.024
		c35.736,5.444,49.664,12.728,49.664,25.976v68C381.332,283.432,306.096,336,238.572,336z M110.668,144v64
		c0,58.572,69.988,104,127.904,104c56.06,0,120.096-44.476,120.096-104v-64c-11.532-5.064-55.832-12-117.236-12
		C180.024,132,124.696,138.352,110.668,144z"/>
	<path style="fill:#3C663E;" d="M237.332,500c-37.612,0-79.832-11-86.904-35.076c-0.704-1.504-1.096-3.168-1.096-4.924v-32
		c0-1.86,0.42-3.624,1.18-5.192c7.304-23.892,49.344-34.808,86.82-34.808c37.612,0,79.832,11,86.904,35.076
		c0.704,1.504,1.096,3.168,1.096,4.924v32c0,1.86-0.424,3.624-1.18,5.192C316.848,489.084,274.804,500,237.332,500z
		 M173.332,457.528c0.036,0.164,0.068,0.328,0.092,0.492c0.9,5.376,23.728,17.98,63.908,17.98s63.008-12.604,63.908-17.984
		c0.028-0.164,0.06-0.328,0.092-0.492v-27.052c-0.036-0.164-0.068-0.328-0.092-0.492c-0.9-5.376-23.728-17.98-63.908-17.98
		s-63.008,12.604-63.908,17.984c-0.028,0.164-0.06,0.328-0.092,0.492L173.332,457.528L173.332,457.528z"/>
</g>
<g>
</g>
<g>
</g>
<g>
</g>
<g>
</g>
<g>
</g>
<g>
</g>
<g>
</g>
<g>
</g>
<g>
</g>
<g>
</g>
<g>
</g>
<g>
</g>
<g>
</g>
<g>
</g>
<g>
</g>
</svg>
