<?xml version="1.0" encoding="iso-8859-1"?>
<!-- Generator: Adobe Illustrator 19.0.0, SVG Export Plug-In . SVG Version: 6.00 Build 0)  -->
<svg version="1.1" id="Layer_1" xmlns="http://www.w3.org/2000/svg" xmlns:xlink="http://www.w3.org/1999/xlink" x="0px" y="0px"
	 viewBox="0 0 460.012 460.012" style="enable-background:new 0 0 460.012 460.012;" xml:space="preserve">
<ellipse style="fill:#B8CBCD;" cx="230.006" cy="412.76" rx="190.668" ry="47.252"/>
<path style="fill:#FFFFFF;" d="M363.338,56c0,0,0-0.9,0-2s-1.416-9.06-3.136-17.688l-1.728-8.62C356.75,19.06,348.138,12,339.338,12
	h-232c-8.8,0-17.416,7.06-19.136,15.688l-1.728,8.62c-1.724,8.628-3.136,16.588-3.136,17.688s0,2,0,2"/>
<path style="fill:#324654;" d="M363.338,68c-6.628,0-12-5.372-12-12v-1.464c-0.236-1.772-1.3-7.848-2.908-15.876l-1.724-8.612
	c-0.596-3-4.316-6.048-7.368-6.048h-232c-3.056,0-6.772,3.048-7.368,6.04l-1.732,8.628c-1.6,8.016-2.668,14.096-2.904,15.868V56
	c0,6.628-5.372,12-12,12s-12-5.372-12-12v-2c0-0.784,0-3.164,3.368-20.04l1.732-8.628C79.27,11.132,92.846,0,107.338,0h232
	c14.492,0,28.068,11.132,30.908,25.34l1.724,8.612c3.372,16.884,3.372,19.264,3.372,20.048v2C375.338,62.628,369.966,68,363.338,68z
	"/>
<polyline style="fill:#B9E3ED;" points="363.338,56 363.338,404 83.338,404 83.338,56 "/>
<path style="fill:#324654;" d="M363.338,416h-280c-6.628,0-12-5.372-12-12V56c0-6.628,5.372-12,12-12s12,5.372,12,12v336h256V56
	c0-6.628,5.372-12,12-12s12,5.372,12,12v348C375.338,410.628,369.966,416,363.338,416z"/>
<rect x="87.338" y="228" style="fill:#FFFFFF;" width="272" height="60"/>
<path style="fill:#324654;" d="M351.338,236v44h-256v-44H351.338 M367.338,220h-288v76h288V220L367.338,220z"/>
<path style="fill:#324654;" d="M239.338,336h-108c-4.42,0-8-3.584-8-8s3.58-8,8-8h108c4.416,0,8,3.584,8,8S243.754,336,239.338,336z
	"/>
<path style="fill:#324654;" d="M203.338,368h-72c-4.42,0-8-3.584-8-8s3.58-8,8-8h72c4.416,0,8,3.584,8,8S207.754,368,203.338,368z"
	/>
<path style="fill:#324654;" d="M363.338,72h-276c-4.42,0-8-3.584-8-8s3.58-8,8-8h276c4.416,0,8,3.584,8,8S367.754,72,363.338,72z"/>
<path style="fill:#324654;" d="M363.338,48h-276c-4.42,0-8-3.584-8-8s3.58-8,8-8h276c4.416,0,8,3.584,8,8S367.754,48,363.338,48z"/>
<circle style="fill:#FFFFFF;" cx="219.338" cy="148" r="48"/>
<g>
	<path style="fill:#324654;" d="M227.338,160c0,6.6-3.6,12-8,12s-8-5.4-8-12v-24c0-6.6,3.6-12,8-12s8,5.4,8,12V160z"/>
	<path style="fill:#324654;" d="M207.338,156c-6.6,0-12-3.6-12-8s5.4-8,12-8h24c6.6,0,12,3.6,12,8s-5.4,8-12,8H207.338z"/>
</g>
<g>
</g>
<g>
</g>
<g>
</g>
<g>
</g>
<g>
</g>
<g>
</g>
<g>
</g>
<g>
</g>
<g>
</g>
<g>
</g>
<g>
</g>
<g>
</g>
<g>
</g>
<g>
</g>
<g>
</g>
</svg>
