<?xml version="1.0" encoding="iso-8859-1"?>
<!-- Generator: Adobe Illustrator 19.0.0, SVG Export Plug-In . SVG Version: 6.00 Build 0)  -->
<svg version="1.1" id="Layer_1" xmlns="http://www.w3.org/2000/svg" xmlns:xlink="http://www.w3.org/1999/xlink" x="0px" y="0px"
	 viewBox="0 0 488.026 488.026" style="enable-background:new 0 0 488.026 488.026;" xml:space="preserve">
<ellipse style="fill:#B8CBCD;" cx="244.013" cy="440.77" rx="190.668" ry="47.256"/>
<path style="fill:#B2EDA6;" d="M317.333,424.01c0,15.464-12.536,28-28,28h-100c-15.464,0-28-12.536-28-28l0,0
	c0-15.464,12.536-28,28-28h100C304.797,396.01,317.333,408.546,317.333,424.01L317.333,424.01z"/>
<path style="fill:#3C663E;" d="M289.333,462.01h-100c-22.056,0-40-17.944-40-40s17.944-40,40-40h100c22.056,0,40,17.944,40,40
	S311.385,462.01,289.333,462.01z M189.333,406.01c-8.824,0-16,7.176-16,16s7.176,16,16,16h100c8.824,0,16-7.176,16-16
	s-7.176-16-16-16H189.333z"/>
<polygon style="fill:#B2EDA6;" points="261.333,416.01 217.333,416.01 217.333,292.01 261.333,314.678 "/>
<g>
	<path style="fill:#3C663E;" d="M263.013,430.01h-44c-6.628,0-12-5.372-12-12v-124c0-4.184,2.18-8.068,5.752-10.248
		c3.58-2.18,8.028-2.336,11.744-0.42l44,22.668c3.992,2.06,6.504,6.176,6.504,10.668V418.01
		C275.013,424.638,269.641,430.01,263.013,430.01z M231.013,406.01h20v-82.016l-20-10.304V406.01z"/>
	<path style="fill:#3C663E;" d="M296.577,331.442c-34.572,0-68.352-13.572-93.432-38.66c-24.932-24.928-38.664-58.08-38.664-93.336
		c0-35.264,13.732-68.408,38.664-93.336c4.688-4.688,12.288-4.688,16.968,0c4.688,4.688,4.688,12.284,0,16.968
		c-20.4,20.4-31.632,47.52-31.632,76.368s11.236,55.968,31.632,76.368c27.668,27.668,68.256,38.212,105.944,27.528
		c6.372-1.808,13.012,1.896,14.816,8.268c1.808,6.376-1.892,13.008-8.268,14.816C320.721,329.798,308.601,331.442,296.577,331.442z"
		/>
</g>
<rect x="116.911" y="88.189" transform="matrix(0.7071 0.7071 -0.7071 0.7071 150.2743 -122.4175)" style="fill:#FFFFFF;" width="211.994" height="63.999"/>
<path style="fill:#3C663E;" d="M275.237,229.758c-3.072,0-6.14-1.172-8.484-3.516L116.849,76.334
	c-4.688-4.684-4.688-12.284,0-16.968l45.252-45.256c4.688-4.688,12.28-4.688,16.968,0l149.908,149.908
	c2.252,2.252,3.516,5.3,3.516,8.484c0,3.184-1.264,6.236-3.516,8.484l-45.256,45.256
	C281.377,228.586,278.309,229.758,275.237,229.758z M142.301,67.85l132.936,132.936l28.284-28.284L170.585,39.566L142.301,67.85z"/>
<path style="fill:#B2EDA6;" d="M161.333,32.494l-15.232-15.236c-7.004-7-18.46-7-25.46,0s-7,18.456,0,25.456l15.236,15.232"/>
<path style="fill:#3C663E;" d="M135.873,69.946c-3.068,0-6.14-1.172-8.484-3.512l-15.236-15.232c-11.7-11.7-11.7-30.736,0-42.428
	c11.688-11.692,30.72-11.704,42.428-0.004l15.24,15.24c4.684,4.688,4.684,12.284-0.004,16.972
	c-4.688,4.68-12.284,4.684-16.972-0.004l-15.232-15.232c-2.296-2.296-6.184-2.296-8.488,0c-2.3,2.3-2.3,6.188,0,8.488l15.236,15.228
	c4.688,4.688,4.688,12.284,0.004,16.972C142.021,68.774,138.945,69.946,135.873,69.946z"/>
<polygon style="fill:#B2EDA6;" points="356.525,236.01 277.333,315.206 280.161,318.034 305.617,343.49 359.357,397.234 
	387.641,368.946 333.901,315.206 384.813,264.294 "/>
<g>
	<path style="fill:#3C663E;" d="M359.357,409.234L359.357,409.234c-3.184,0-6.236-1.264-8.484-3.516l-82.024-82.028
		c-2.252-2.252-3.516-5.3-3.516-8.484c0-3.184,1.264-6.236,3.516-8.484l79.196-79.196c4.688-4.688,12.28-4.688,16.968,0
		l28.284,28.284c4.688,4.684,4.688,12.284,0,16.968l-42.428,42.428l45.252,45.256c4.688,4.688,4.688,12.284,0,16.968l-28.284,28.284
		C365.589,407.966,362.537,409.234,359.357,409.234z M294.301,315.206l65.056,65.056l11.316-11.312l-45.256-45.26
		c-4.688-4.688-4.688-12.284,0-16.968l42.424-42.424l-11.316-11.316L294.301,315.206z"/>
	<path style="fill:#3C663E;" d="M129.333,83.426c-2.048,0-4.092-0.78-5.656-2.344c-3.124-3.124-3.124-8.188,0-11.312l45.252-45.252
		c3.124-3.124,8.188-3.124,11.312,0s3.124,8.188,0,11.312l-45.252,45.256C133.425,82.646,131.377,83.426,129.333,83.426z"/>
</g>
<g>
</g>
<g>
</g>
<g>
</g>
<g>
</g>
<g>
</g>
<g>
</g>
<g>
</g>
<g>
</g>
<g>
</g>
<g>
</g>
<g>
</g>
<g>
</g>
<g>
</g>
<g>
</g>
<g>
</g>
</svg>
