<?xml version="1.0" encoding="iso-8859-1"?>
<!-- Generator: Adobe Illustrator 19.0.0, SVG Export Plug-In . SVG Version: 6.00 Build 0)  -->
<svg version="1.1" id="Layer_1" xmlns="http://www.w3.org/2000/svg" xmlns:xlink="http://www.w3.org/1999/xlink" x="0px" y="0px"
	 viewBox="0 0 440.004 440.004" style="enable-background:new 0 0 440.004 440.004;" xml:space="preserve">
<ellipse style="fill:#B8CBCD;" cx="222.524" cy="388.585" rx="190.668" ry="47.252"/>
<path style="fill:#FFBAB0;" d="M12.064,204.025c4.212,111.16,95.604,200,207.8,200c112.184,0,203.584-88.84,207.796-200H12.064z"/>
<path style="fill:#783741;" d="M219.864,416.025c-118.752,0-215.296-92.92-219.792-211.548c-0.124-3.256,1.088-6.424,3.348-8.776
	c2.264-2.348,5.384-3.676,8.644-3.676h415.592c3.26,0,6.384,1.328,8.644,3.676c2.26,2.352,3.468,5.52,3.348,8.776
	C435.156,323.105,338.616,416.025,219.864,416.025z M24.916,216.025c9.992,99.656,93.344,176,194.948,176
	s184.956-76.344,194.944-176H24.916z"/>
<path style="fill:#FFBAB0;" d="M12.064,204.025c4.212,111.16,95.604,200,207.8,200c112.184,0,203.584-88.84,207.796-200"/>
<g>
	<path style="fill:#783741;" d="M219.864,412.025c-116.592,0-211.38-91.232-215.792-207.696c-0.168-4.416,3.276-8.132,7.692-8.3
		c4.36-0.164,8.128,3.276,8.296,7.692c4.084,107.836,91.848,192.304,199.804,192.304c107.952,0,195.716-84.468,199.8-192.304
		c0.168-4.412,3.74-7.876,8.3-7.692c4.416,0.168,7.856,3.884,7.692,8.3C431.24,320.793,336.456,412.025,219.864,412.025z"/>
	<path style="opacity:0.2;fill:#783741;enable-background:new    ;" d="M219.864,392.025c-129.384,0-215.656-70.476-219.792-179.548
		c-0.252-6.62,4.916-12.196,11.536-12.444c6.688-0.136,12.196,4.916,12.448,11.54c4.372,115.352,104.012,156.452,195.808,156.452
		c91.792,0,191.436-41.1,195.804-156.452c0.252-6.62,5.872-11.672,12.444-11.54c6.624,0.252,11.788,5.824,11.54,12.444
		C435.52,321.549,349.248,392.025,219.864,392.025z"/>
</g>
<path style="fill:#FFBAB0;" d="M169.82,198.069l46.64-41.116c-113.232,0.4-204.456,19.932-204.456,43.98
	c0,20.564,66.7,37.828,156.828,42.652C161.456,228.269,159.476,208.413,169.82,198.069z"/>
<path style="fill:#783741;" d="M168.832,251.585c-0.144,0-0.288-0.004-0.428-0.012c-38.568-2.064-164.4-11.816-164.4-50.64
	c0-40.52,138.952-51.72,212.424-51.98c0.012,0,0.02,0,0.028,0c3.32,0,6.3,2.052,7.48,5.16c1.184,3.112,0.312,6.636-2.188,8.84
	l-46.428,40.932c-7.332,7.584-5.208,23.92,0.716,36.232c1.228,2.548,1.016,5.552-0.548,7.908
	C174,250.253,171.496,251.585,168.832,251.585z M194.94,165.257c-113.4,2.844-174.936,24.396-174.936,35.676
	c0,8.652,41.544,27.5,137.048,33.924c-4.18-15.176-3.4-31.932,7.112-42.444c0.116-0.116,0.24-0.236,0.364-0.344L194.94,165.257z"/>
<path style="fill:#FFBAB0;" d="M428.004,200.933c0-15.568-38.26-29.24-95.928-37.06l-62.456,79.788
	C360.528,238.953,428.004,221.613,428.004,200.933z"/>
<path style="fill:#783741;" d="M269.62,251.661c-2.976,0-5.72-1.652-7.096-4.312c-1.444-2.78-1.132-6.148,0.796-8.616l62.452-79.788
	c1.752-2.24,4.548-3.4,7.376-2.996c46.92,6.36,102.856,19.332,102.856,44.984c0,39.088-127.036,48.704-165.968,50.72
	C269.892,251.657,269.756,251.661,269.62,251.661z M335.532,172.433l-48.648,62.152C379.588,227.925,420,209.501,420,200.933
	C420.004,195.489,399.228,181.577,335.532,172.433z"/>
<path style="fill:#FFFFFF;" d="M365.032,70.849c-14-14.004-36.904-14.004-50.904,0l-97.672,86.1l-46.64,41.116
	c-10.344,10.344-8.364,30.2-0.988,45.516c16.372,0.88,33.508,1.348,51.172,1.348c17.108,0,33.708-0.444,49.616-1.268l62.452-79.788
	l32.96-42.112C379.04,107.761,379.04,84.849,365.032,70.849z"/>
<path style="fill:#783741;" d="M220.004,252.933c-17.44,0-34.804-0.456-51.604-1.36c-2.916-0.156-5.512-1.888-6.776-4.52
	c-8.428-17.504-10.916-41.188,2.54-54.64c0.116-0.116,0.24-0.236,0.364-0.344L308.66,65.005c8.26-8.164,19.232-12.66,30.92-12.66
	c11.78,0,22.828,4.564,31.108,12.848c8.284,8.28,12.852,19.328,12.852,31.112c0,11.608-4.432,22.508-12.492,30.752L275.92,248.593
	c-1.428,1.824-3.576,2.94-5.888,3.06C253.64,252.501,236.808,252.933,220.004,252.933z M174.2,235.845
	c29.776,1.436,61.272,1.444,91.372,0.008l93.16-119.024c0.2-0.256,0.416-0.5,0.644-0.732c5.264-5.256,8.164-12.288,8.164-19.792
	c0-7.508-2.9-14.54-8.164-19.796c-5.264-5.264-12.292-8.164-19.796-8.164c-7.504,0-14.536,2.9-19.796,8.16
	c-0.116,0.116-0.24,0.236-0.368,0.344L175.32,203.885C168.812,210.617,169.756,224.257,174.2,235.845z"/>
<polygon style="fill:#FFBAB0;" points="396.44,134.949 303.104,41.617 328.144,16.025 421.488,109.361 "/>
<path style="fill:#783741;" d="M396.44,142.949c-2.12,0-4.156-0.844-5.656-2.344l-93.336-93.332
	c-3.1-3.096-3.128-8.116-0.064-11.252l25.04-25.588c1.496-1.528,3.54-2.396,5.676-2.408c2.096-0.06,4.188,0.836,5.7,2.344
	l93.344,93.336c3.1,3.1,3.128,8.116,0.064,11.252l-25.048,25.592c-1.496,1.524-3.54,2.392-5.676,2.4
	C396.468,142.949,396.456,142.949,396.44,142.949z M314.36,41.553l82.02,82.024l13.856-14.156l-82.032-82.02L314.36,41.553z"/>
<circle style="fill:#FFFFFF;" cx="220.004" cy="312.025" r="48"/>
<g>
	<path style="fill:#783741;" d="M228.004,324.025c0,6.6-3.6,12-8,12s-8-5.4-8-12v-24c0-6.6,3.6-12,8-12s8,5.4,8,12V324.025z"/>
	<path style="fill:#783741;" d="M208.004,320.025c-6.6,0-12-3.6-12-8s5.4-8,12-8h24c6.6,0,12,3.6,12,8s-5.4,8-12,8H208.004z"/>
	<path style="fill:#783741;" d="M284.008,156.025c-2.16,0-4.316-0.872-5.896-2.584l-25.708-27.956
		c-2.988-3.252-2.776-8.312,0.476-11.304c3.252-2.984,8.312-2.772,11.304,0.476l25.708,27.956c2.988,3.252,2.776,8.312-0.476,11.304
		C287.88,155.325,285.94,156.025,284.008,156.025z"/>
	<path style="fill:#783741;" d="M248.004,188.025c-2.084,0-4.164-0.808-5.736-2.42l-26.652-27.388
		c-3.084-3.164-3.012-8.232,0.152-11.312s8.232-3.016,11.312,0.156l26.656,27.388c3.084,3.164,3.012,8.232-0.156,11.312
		C252.028,187.273,250.016,188.025,248.004,188.025z"/>
	<path style="fill:#783741;" d="M219.86,416.025c-77.564,0-147.86-39.652-188.14-106.092c-19.592-27.536-30.24-60.316-31.648-97.452
		C0.064,212.101,0,201.981,0,200.933c0-51.052,170.852-55.564,206.124-55.948l96.92-80.528L291.38,52.793
		c-4.688-4.684-4.688-12.28,0-16.968l28.28-28.284c4.5-4.5,12.468-4.5,16.968,0l93.344,93.336c2.252,2.252,3.516,5.3,3.516,8.484
		c0,3.184-1.264,6.236-3.516,8.484l-28.288,28.284c-2.252,2.252-5.3,3.516-8.484,3.516l0,0c-3.184,0-6.236-1.264-8.484-3.516
		l-11.584-11.584L358.9,155.241c54.528,9.452,81.104,24.46,81.104,45.692c0,1.08-0.352,11.504-0.352,11.504
		c-1.412,37.176-12.056,69.96-31.648,97.496C367.72,376.373,297.424,416.025,219.86,416.025z M24.004,201.225
		c0.008,1.948,0.064,10.728,0.064,10.728c1.224,32.148,10.46,60.668,27.444,84.396c0.18,0.252,0.356,0.516,0.516,0.784
		c35.856,59.416,98.596,94.892,167.832,94.892s131.976-35.476,167.836-94.896c0.16-0.268,0.332-0.532,0.516-0.784
		c16.984-23.728,26.22-52.248,27.452-84.772l0,0c0,0,0.324-9.352,0.336-10.684c-1.02-3.64-17.844-16.444-79.444-24.8
		c-4.128-0.56-7.672-3.224-9.36-7.032c-1.688-3.812-1.276-8.228,1.084-11.66l29-42.168c0.416-0.6,0.884-1.168,1.404-1.684
		c0.828-0.828,1.032-1.16,2.132-3.004l0.428-0.724c1.9-3.172,5.152-5.288,8.824-5.744c3.644-0.444,7.34,0.808,9.952,3.424
		l13.172,13.172l11.316-11.312l-76.364-76.36l-11.312,11.312l12.704,12.704c2.612,2.612,3.88,6.284,3.428,9.952
		c-0.452,3.672-2.572,6.924-5.744,8.824c-1.78,1.068-3.284,2.228-4.604,3.544c-0.256,0.26-0.532,0.512-0.816,0.748l-103.628,86.1
		c-2.144,1.78-4.84,2.756-7.628,2.768C94.76,169.361,28.824,189.777,24.004,201.225z"/>
</g>
<g>
</g>
<g>
</g>
<g>
</g>
<g>
</g>
<g>
</g>
<g>
</g>
<g>
</g>
<g>
</g>
<g>
</g>
<g>
</g>
<g>
</g>
<g>
</g>
<g>
</g>
<g>
</g>
<g>
</g>
</svg>
