<?xml version="1.0" encoding="iso-8859-1"?>
<!-- Generator: Adobe Illustrator 19.0.0, SVG Export Plug-In . SVG Version: 6.00 Build 0)  -->
<svg version="1.1" id="Layer_1" xmlns="http://www.w3.org/2000/svg" xmlns:xlink="http://www.w3.org/1999/xlink" x="0px" y="0px"
	 viewBox="0 0 444.004 444.004" style="enable-background:new 0 0 444.004 444.004;" xml:space="preserve">
<path style="fill:#F6E89A;" d="M258.002,336c0,19.884-16.116,36-36,36l0,0c-19.884,0-36-16.116-36-36v-97.82
	c0-19.884,16.116-36,36-36l0,0c19.884,0,36,16.116,36,36V336z"/>
<path style="fill:#8D4520;" d="M222.002,384c-26.468,0-48-21.532-48-48v-97.82c0-26.468,21.532-48,48-48s48,21.532,48,48V336
	C270.002,362.468,248.466,384,222.002,384z M222.002,214.18c-13.236,0-24,8.584-24,21.82v100c0,13.236,10.764,24,24,24
	s24-10.764,24-24v-97.82C246.002,224.944,235.234,214.18,222.002,214.18z"/>
<path style="fill:#F7BB83;" d="M365.618,155.964C360.458,80.016,297.258,20,220.002,20S79.546,80.016,74.382,155.964
	c-0.24,0.02-0.38,10.036-0.38,10.036v22.268V312c100,0,116-64,116-64c12.556-33.9,5.796-55.576-9.384-69.372
	c28.46-9.424,41.76-5.948,65.384-34.628c11.976,11.976,40.844,4.664,54.432,15.652c-36.984,8.192-71.88,30.444-50.432,88.348
	c0,0,16,64,116,64V188.268V166C366.002,166,365.862,155.984,365.618,155.964z"/>
<path style="fill:#8D4520;" d="M378.002,324h-12c-103.408,0-125.088-64.12-127.436-72.324c-9.556-26.084-9.488-48.324,0.2-66.104
	c4.912-9.004,12.128-16.624,21.588-22.816c-4.12-0.7-8.204-1.688-12.028-3.252c-17.104,18.012-30.484,21.452-46.916,25.68
	c-0.128,0.032-0.252,0.064-0.38,0.096c8.076,14.66,11.532,36.016,0.404,66.396C199.09,259.88,177.41,324,74.002,324h-12V166
	c0.056-3.98,0.108-7.664,0.572-10.84l-0.16-0.008C68.022,72.636,137.242,8,220.002,8S371.986,72.636,377.59,155.152l-0.156,0.008
	c0.456,3.14,0.508,6.768,0.564,10.672L378.002,324z M245.142,126.168l9.344,9.348c3.128,3.124,12.196,4.032,20.2,4.828
	c11.204,1.116,23.904,2.384,33.296,9.976l19.368,15.66l-24.32,5.388c-22.028,4.88-36.56,13.524-43.192,25.692
	c-6.284,11.532-5.808,27.268,1.416,46.772l0.388,1.256c0.552,2.044,14.388,50.408,92.36,54.912V164c-0.028-1.9,0.056-2.26,0-4v-4
	c-4.752-69.972-63.812-124-134-124c-70.184,0-129.244,54.032-134,124v4c-0.052,1.76,0.028,5.992,0,8v132
	c78.916-4.592,92.232-54.392,92.36-54.916l0.388-1.256c9.452-25.516,7.424-43.94-6.2-56.324l-15.2-13.812l19.496-6.456
	c7.044-2.332,13.176-3.912,18.588-5.3c16.568-4.264,25.692-6.608,41.304-25.568L245.142,126.168z"/>
<path style="fill:#F6E89A;" d="M114.002,170.132v38.444c0,58.54,47.456,106,106,106s106-47.46,106-106V157.04
	c0,0-20-49.04-108-49.04S114.002,170.132,114.002,170.132z"/>
<g>
	<path style="fill:#8D4520;" d="M220.002,322.58c-62.86,0-114-51.14-114-114v-38.444c0-0.672,0.084-1.344,0.252-1.996
		c0.176-0.684,18.624-68.14,111.748-68.14c92.316,0,114.508,51.812,115.408,54.02c0.392,0.956,0.592,1.984,0.592,3.02v51.54
		C334.002,271.436,282.862,322.58,220.002,322.58z M122.002,171.292v37.284c0,54.04,43.964,98,98,98s98-43.96,98-98v-49.752
		c-3.748-7.272-25.872-42.824-100-42.824C142.61,116,124.258,164.296,122.002,171.292z"/>
	<circle style="fill:#8D4520;" cx="166.002" cy="208" r="12"/>
	<circle style="fill:#8D4520;" cx="278.002" cy="208" r="12"/>
	<path style="fill:#8D4520;" d="M190.002,248c0,16.572,13.428,32,30,32l0,0c16.572,0,30-15.428,30-32H190.002z"/>
	<path style="fill:#8D4520;" d="M57.998,444.004c-1.42,0-2.864-0.252-4.268-0.788c-6.192-2.36-9.3-9.292-6.94-15.488
		c34.676-91.032,135.424-87.796,136.476-87.748c6.62,0.28,11.756,5.88,11.476,12.5c-0.284,6.616-5.928,11.84-12.476,11.476
		c-3.476-0.108-84.612-2.34-113.052,72.316C67.39,441.06,62.834,444.004,57.998,444.004z"/>
	<path style="fill:#8D4520;" d="M386.002,444.004c-4.836,0-9.392-2.944-11.216-7.732C346.202,361.24,264.614,363.9,263.77,363.924
		c-6.528,0.368-12.22-4.848-12.508-11.468s4.848-12.224,11.468-12.508c0.976-0.044,99.804-3.256,134.484,87.776
		c2.36,6.196-0.748,13.128-6.94,15.488C388.866,443.752,387.422,444.004,386.002,444.004z"/>
</g>
<path style="fill:#FFFFFF;" d="M326.002,12h-212v158.132c0,0,8-62.132,104-62.132s108,58,108,58V12z"/>
<g>
	<path style="fill:#8D4520;" d="M114.006,178.132c-0.172,0-0.344-0.004-0.516-0.016c-4.212-0.268-7.488-3.764-7.488-7.984V12
		c0-4.416,3.58-8,8-8h212c4.416,0,8,3.584,8,8v154c0,4.1-3.104,7.54-7.184,7.956c-4.072,0.472-7.816-2.32-8.648-6.336
		c-0.46-2.048-12.508-51.62-100.168-51.62c-87.948,0-95.996,54.6-96.068,55.156C121.418,175.168,117.998,178.132,114.006,178.132z
		 M122.002,20v116c14.78-17.896,42.912-36,96-36c55.476,0,84.764,18.504,100,35.684V20H122.002z"/>
	<path style="fill:#8D4520;" d="M226.002,72c0,6.6-3.6,12-8,12s-8-5.4-8-12V48c0-6.6,3.6-12,8-12s8,5.4,8,12V72z"/>
	<path style="fill:#8D4520;" d="M206.002,68c-6.6,0-12-3.6-12-8s5.4-8,12-8h24c6.6,0,12,3.6,12,8s-5.4,8-12,8H206.002z"/>
	<path style="fill:#8D4520;" d="M110.002,88c-6.628,0-12-5.372-12-12V12c0-6.628,5.372-12,12-12h220c6.628,0,12,5.372,12,12v56
		c0,6.628-5.372,12-12,12s-12-5.372-12-12V24h-196v52C122.002,82.628,116.626,88,110.002,88z"/>
</g>
<g>
</g>
<g>
</g>
<g>
</g>
<g>
</g>
<g>
</g>
<g>
</g>
<g>
</g>
<g>
</g>
<g>
</g>
<g>
</g>
<g>
</g>
<g>
</g>
<g>
</g>
<g>
</g>
<g>
</g>
</svg>
