<?xml version="1.0" encoding="iso-8859-1"?>
<!-- Generator: Adobe Illustrator 19.0.0, SVG Export Plug-In . SVG Version: 6.00 Build 0)  -->
<svg version="1.1" id="Layer_1" xmlns="http://www.w3.org/2000/svg" xmlns:xlink="http://www.w3.org/1999/xlink" x="0px" y="0px"
	 viewBox="0 0 478.492 478.492" style="enable-background:new 0 0 478.492 478.492;" xml:space="preserve">
<path style="fill:#FFBAB0;" d="M395.954,54c-6.7-23.532-71.896-42-151.388-42S99.878,30.468,93.174,54h-0.608v100
	c0,8.304,7.272,16.092,19.996,22.82c26.196,13.848,75.5,23.18,132.004,23.18c62.908,0,116.892-11.568,140-28.056
	c7.728-5.516,12-11.58,12-17.944V54H395.954z"/>
<ellipse style="fill:#B8CBCD;" cx="239.246" cy="431.24" rx="190.668" ry="47.252"/>
<g>
	<path style="fill:#FFBAB0;" d="M384.566,171.944c7.728-5.516,12-11.58,12-17.944V54"/>
</g>
<path style="fill:#783741;" d="M384.578,183.944c-3.748,0-7.436-1.748-9.776-5.028c-3.852-5.396-2.6-12.888,2.792-16.74
	c5.148-3.672,6.972-6.7,6.972-8.176V54c0-6.628,5.372-12,12-12s12,5.372,12,12v100c0,7.096-2.952,17.664-17.028,27.712
	C389.422,183.22,386.986,183.944,384.578,183.944z"/>
<path style="fill:#FFBAB0;" d="M92.566,47.496v100c0,8.304,7.272,16.096,19.996,22.82"/>
<g>
	<path style="fill:#783741;" d="M112.55,182.32c-1.892,0-3.808-0.448-5.592-1.396c-17.512-9.252-26.392-20.5-26.392-33.428v-100
		c0-6.628,5.372-12,12-12s12,5.372,12,12v100c0,1.74,2.844,6.524,13.6,12.212c5.86,3.096,8.1,10.356,5.004,16.216
		C121.018,179.996,116.858,182.32,112.55,182.32z"/>
	<path style="fill:#783741;" d="M396.566,70c-6.628,0-12-5.372-12-12c0-10.168-47.632-34-140-34s-140,23.832-140,34
		c0,6.628-5.372,12-12,12s-12-5.372-12-12c0-39.848,85.012-58,164-58s164,18.152,164,58C408.566,64.628,403.194,70,396.566,70z"/>
</g>
<path style="fill:#FFBAB0;" d="M112.566,180v208c0,25.408,59.096,44,132,44s132-18.592,132-44V176"/>
<g>
	<path style="fill:#783741;" d="M244.566,444c-71.676,0-144-17.316-144-56V180c0-6.628,5.372-12,12-12s12,5.372,12,12v208
		c0,11.168,41.216,32,120,32s120-20.832,120-32V176c0-6.628,5.372-12,12-12s12,5.372,12,12v212
		C388.566,426.684,316.242,444,244.566,444z"/>
	<path style="fill:#783741;" d="M244.566,202c-79.512,0-160-18.548-160-54c0-4.416,3.58-8,8-8c4.416,0,8,3.584,8,8
		c0,15.496,56.096,38,144,38s144-22.504,144-38c0-4.416,3.58-8,8-8c4.416,0,8,3.584,8,8C404.566,183.452,324.078,202,244.566,202z"
		/>
	<path style="fill:#783741;" d="M244.566,107.312c-79.512,0-160-18.548-160-54c0-4.416,3.58-8,8-8c4.416,0,8,3.584,8,8
		c0,15.496,56.096,38,144,38s144-22.504,144-38c0-4.416,3.58-8,8-8c4.416,0,8,3.584,8,8
		C404.566,88.764,324.078,107.312,244.566,107.312z"/>
</g>
<path style="fill:#FFFFFF;" d="M112.566,330.688c0,25.404,59.096,46,132,46s132-20.596,132-46V200c0,25.408-59.096,46-132,46
	s-132-20.592-132-46V330.688z"/>
<g>
	<path style="fill:#783741;" d="M244.566,384.688c-67.868,0-140-18.924-140-54V200c0-4.416,3.58-8,8-8c4.416,0,8,3.584,8,8
		c0,15.868,47.172,38,124,38s124-22.132,124-38c0-4.416,3.58-8,8-8c4.416,0,8,3.584,8,8v130.688
		C384.566,365.76,312.43,384.688,244.566,384.688z M120.566,226.128v104.56c0,15.868,47.172,38,124,38s124-22.132,124-38v-104.56
		C343.538,244.376,292.97,254,244.566,254S145.59,244.376,120.566,226.128z"/>
	<path style="fill:#783741;" d="M136.566,188c-4.42,0-8-3.584-8-8V92c0-4.416,3.58-8,8-8c4.416,0,8,3.584,8,8v88
		C144.566,184.416,140.982,188,136.566,188z"/>
	<path style="fill:#783741;" d="M192.566,200c-4.42,0-8-3.584-8-8v-88c0-4.416,3.58-8,8-8c4.416,0,8,3.584,8,8v88
		C200.566,196.416,196.982,200,192.566,200z"/>
	<path style="fill:#783741;" d="M248.566,200c-4.42,0-8-3.584-8-8v-88c0-4.416,3.58-8,8-8c4.416,0,8,3.584,8,8v88
		C256.566,196.416,252.982,200,248.566,200z"/>
	<path style="fill:#783741;" d="M304.566,196c-4.42,0-8-3.584-8-8v-88c0-4.416,3.58-8,8-8c4.416,0,8,3.584,8,8v88
		C312.566,192.416,308.982,196,304.566,196z"/>
	<path style="fill:#783741;" d="M356.566,180c-4.42,0-8-3.584-8-8V88c0-4.416,3.58-8,8-8c4.416,0,8,3.584,8,8v84
		C364.566,176.416,360.982,180,356.566,180z"/>
	<path style="fill:#783741;" d="M252.566,320c0,6.6-3.6,12-8,12s-8-5.4-8-12v-24c0-6.6,3.6-12,8-12s8,5.4,8,12V320z"/>
	<path style="fill:#783741;" d="M232.566,316c-6.6,0-12-3.6-12-8s5.4-8,12-8h24c6.6,0,12,3.6,12,8s-5.4,8-12,8H232.566z"/>
</g>
<g>
</g>
<g>
</g>
<g>
</g>
<g>
</g>
<g>
</g>
<g>
</g>
<g>
</g>
<g>
</g>
<g>
</g>
<g>
</g>
<g>
</g>
<g>
</g>
<g>
</g>
<g>
</g>
<g>
</g>
</svg>
