<?xml version="1.0" encoding="iso-8859-1"?>
<!-- Generator: Adobe Illustrator 19.0.0, SVG Export Plug-In . SVG Version: 6.00 Build 0)  -->
<svg version="1.1" id="Layer_1" xmlns="http://www.w3.org/2000/svg" xmlns:xlink="http://www.w3.org/1999/xlink" x="0px" y="0px"
	 viewBox="0 0 484 484" style="enable-background:new 0 0 484 484;" xml:space="preserve">
<ellipse style="fill:#B8CBCD;" cx="214.668" cy="398.754" rx="190.668" ry="47.252"/>
<path style="fill:#B9E3ED;" d="M173.812,356.61c-37.016,37.02-97.032,37.02-134.048,0l0,0c-37.02-37.016-37.02-97.032,0-134.048
	L164.568,97.754c37.016-37.012,97.032-37.016,134.048,0l0,0c37.02,37.016,37.016,97.032,0,134.048L173.812,356.61z"/>
<path style="fill:#324654;" d="M106.788,396.374c-28.524,0-55.34-11.108-75.508-31.28C11.108,344.926,0,318.11,0,289.586
	s11.108-55.34,31.28-75.508L156.084,89.274c20.168-20.172,46.984-31.28,75.512-31.28c28.524,0,55.336,11.108,75.504,31.276
	c20.172,20.168,31.28,46.984,31.28,75.512c0,28.524-11.108,55.34-31.28,75.508L182.296,365.094
	C162.128,385.266,135.312,396.374,106.788,396.374z M231.596,81.994c-22.116,0-42.904,8.612-58.54,24.248L48.252,231.05
	C32.612,246.686,24,267.474,24,289.59c0,22.112,8.612,42.904,24.248,58.536c15.636,15.64,36.424,24.252,58.54,24.252
	c22.112,0,42.904-8.612,58.536-24.248l124.808-124.804c15.636-15.636,24.248-36.424,24.248-58.54
	c0-22.112-8.612-42.904-24.248-58.54C274.496,90.606,253.708,81.994,231.596,81.994z"/>
<path style="fill:#FFFFFF;" d="M106.788,155.538l-67.024,67.028c-37.02,37.016-37.02,97.032,0,134.048
	c37.016,37.02,97.032,37.02,134.048,0l67.024-67.024"/>
<g>
	<path style="fill:#324654;" d="M106.788,396.378c-28.524,0-55.34-11.108-75.508-31.28C11.108,344.926,0,318.11,0,289.586
		s11.108-55.34,31.28-75.508l75.508-75.512l16.972,16.972L48.252,231.05C32.612,246.686,24,267.474,24,289.59
		c0,22.112,8.612,42.904,24.248,58.536c15.636,15.64,36.424,24.252,58.54,24.252c22.112,0,42.904-8.612,58.536-24.252l75.512-75.508
		l16.972,16.972l-75.512,75.504C162.128,385.266,135.312,396.378,106.788,396.378z"/>
	<path style="opacity:0.2;fill:#324654;enable-background:new    ;" d="M120.656,382.51c-28.524,0-55.34-11.108-75.508-31.28
		c-20.168-20.168-31.28-46.984-31.28-75.508c0-28.52,11.108-55.34,31.28-75.512l75.508-75.508l16.972,16.972l-75.512,75.504
		c-15.636,15.64-24.252,36.432-24.252,58.544s8.612,42.904,24.252,58.536c15.636,15.64,36.424,24.252,58.54,24.252
		c22.112,0,42.904-8.612,58.544-24.252l75.508-75.508l16.972,16.972l-75.512,75.508C175.996,371.402,149.18,382.51,120.656,382.51z"
		/>
	
		<rect x="69.192" y="215.713" transform="matrix(-0.7071 -0.7071 0.7071 -0.7071 132.608 502.3539)" style="fill:#324654;" width="202.306" height="16"/>
</g>
<path style="fill:#FFBAB0;" d="M339.944,270.926l-39.56,39.56c-21.848,21.852-21.848,57.272,0,79.12s57.268,21.848,79.12,0
	l39.56-39.56"/>
<path style="fill:#FFFFFF;" d="M365.948,403.162c-21.848,21.852-57.268,21.852-79.116,0l0,0c-21.852-21.848-21.852-57.268,0-79.116
	l73.66-73.664c21.852-21.848,57.272-21.848,79.12,0l0,0c21.852,21.848,21.848,57.268,0,79.116L365.948,403.162z"/>
<path style="fill:#783741;" d="M326.388,431.55c-18.148,0-35.212-7.068-48.044-19.904c-12.836-12.832-19.904-29.896-19.904-48.044
	s7.068-35.212,19.904-48.044l73.66-73.66c12.836-12.836,29.9-19.904,48.048-19.904s35.212,7.068,48.044,19.9
	C460.932,254.726,468,271.79,468,289.938s-7.068,35.212-19.904,48.044l-73.664,73.664C361.6,424.482,344.54,431.55,326.388,431.55z
	 M400.052,245.994c-11.74,0-22.776,4.572-31.08,12.872l-73.656,73.664c-8.304,8.3-12.876,19.336-12.876,31.076
	s4.572,22.772,12.872,31.072c8.3,8.304,19.336,12.876,31.076,12.876s22.772-4.572,31.072-12.872l73.668-73.664
	c8.3-8.3,12.872-19.336,12.872-31.076c0-11.736-4.572-22.772-12.872-31.072C422.828,250.566,411.792,245.994,400.052,245.994z"/>
<path style="fill:#FFBAB0;" d="M326.388,284.482l-39.56,39.564c-21.852,21.848-21.852,57.268,0,79.116
	c21.848,21.852,57.268,21.852,79.116,0l39.56-39.56"/>
<g>
	<path style="fill:#783741;" d="M326.388,431.55c-18.148,0-35.212-7.068-48.044-19.904c-12.836-12.832-19.904-29.896-19.904-48.044
		s7.068-35.212,19.904-48.044l39.556-39.56c4.688-4.688,12.288-4.684,16.972,0c4.688,4.688,4.688,12.284,0,16.972l-39.56,39.564
		c-8.304,8.3-12.876,19.336-12.876,31.076s4.572,22.772,12.872,31.072c8.3,8.304,19.336,12.876,31.076,12.876
		s22.772-4.572,31.072-12.872l39.56-39.56c4.684-4.688,12.284-4.688,16.968,0c4.688,4.684,4.688,12.284,0,16.968l-39.56,39.56
		C361.6,424.482,344.54,431.55,326.388,431.55z"/>
	<path style="opacity:0.2;fill:#783741;enable-background:new    ;" d="M339.944,417.962c-17.404,0.004-34.796-6.62-48.044-19.868
		c-26.492-26.488-26.492-69.596,0-96.088l39.56-39.56c4.684-4.688,12.284-4.688,16.968,0c4.688,4.684,4.688,12.284,0,16.968
		l-39.56,39.56c-17.132,17.136-17.132,45.016,0,62.152c17.136,17.132,45.012,17.132,62.152-0.004l39.56-39.556
		c4.684-4.688,12.284-4.688,16.968,0c4.688,4.684,4.688,12.284,0,16.968l-39.56,39.56
		C374.748,411.334,357.344,417.958,339.944,417.962z"/>
	
		<rect x="300.93" y="316.71" transform="matrix(-0.7071 -0.7071 0.7071 -0.7071 391.6311 811.6378)" style="fill:#783741;" width="125.963" height="16"/>
</g>
<circle style="fill:#F6E89A;" cx="418" cy="103.994" r="54"/>
<path style="fill:#8D4520;" d="M418,169.994c-36.392,0-66-29.608-66-66s29.608-66,66-66s66,29.608,66,66
	S454.392,169.994,418,169.994z M418,61.994c-23.16,0-42,18.84-42,42s18.84,42,42,42s42-18.84,42-42S441.156,61.994,418,61.994z"/>
<path style="fill:#8D4520;" d="M380,149.994c-2.048,0-4.096-0.78-5.656-2.344c-3.124-3.124-3.124-8.188,0-11.312l70-70
	c3.12-3.124,8.192-3.124,11.312,0c3.124,3.124,3.124,8.188,0,11.312l-70,70C384.096,149.214,382.044,149.994,380,149.994z"/>
<g>
</g>
<g>
</g>
<g>
</g>
<g>
</g>
<g>
</g>
<g>
</g>
<g>
</g>
<g>
</g>
<g>
</g>
<g>
</g>
<g>
</g>
<g>
</g>
<g>
</g>
<g>
</g>
<g>
</g>
</svg>
