<?xml version="1.0" encoding="iso-8859-1"?>
<!-- Generator: Adobe Illustrator 19.0.0, SVG Export Plug-In . SVG Version: 6.00 Build 0)  -->
<svg version="1.1" id="Layer_1" xmlns="http://www.w3.org/2000/svg" xmlns:xlink="http://www.w3.org/1999/xlink" x="0px" y="0px"
	 viewBox="0 0 485.4 485.4" style="enable-background:new 0 0 485.4 485.4;" xml:space="preserve">
<ellipse style="fill:#B8CBCD;" cx="243.88" cy="440.12" rx="182.708" ry="45.28"/>
<path style="fill:#F7BB83;" d="M390.088,171.636c0,88.164-159.64,258.612-159.64,258.612S70.812,259.304,70.812,171.136
	C70.812,82.976,142.284,12,230.448,12S390.088,83.472,390.088,171.636z"/>
<path style="fill:#6E4123;" d="M230.448,442.248c-0.004,0-0.004,0-0.008,0c-3.324-0.004-6.496-1.384-8.76-3.808
	c-6.652-7.12-162.868-175.46-162.868-267.304C58.812,76.772,135.808,0,230.448,0c94.644,0,171.64,76.996,171.64,171.636
	c0,91.852-156.232,259.716-162.884,266.816C236.936,440.872,233.768,442.248,230.448,442.248z M230.448,23.996
	C149.04,23.996,82.812,90,82.812,171.132c0,64.224,99.404,187.824,147.604,241.316c32.932-36.744,147.672-169.868,147.672-240.816
	C378.088,90.228,311.856,23.996,230.448,23.996z"/>
<path style="fill:#F7BB83;" d="M381.988,199.688c0,83.692-151.54,245.488-151.54,245.488S78.912,283.38,78.912,199.688
	c0-83.688,67.844-151.536,151.536-151.536S381.988,116,381.988,199.688z"/>
<path style="fill:#6E4123;" d="M230.448,453.176c-2.212,0-4.328-0.916-5.84-2.532c-6.272-6.7-153.696-165.088-153.696-250.956
	c0-87.968,71.568-159.536,159.536-159.536s159.54,71.568,159.54,159.536c0,85.868-147.424,244.256-153.7,250.956
	C234.776,452.26,232.66,453.176,230.448,453.176z M230.448,56.152c-79.144,0-143.536,64.392-143.536,143.536
	c0,70.456,115.92,203.052,143.536,233.628c27.612-30.58,143.54-163.172,143.54-233.628
	C373.988,120.544,309.596,56.152,230.448,56.152z"/>
<path style="fill:#F7BB83;" d="M385.332,199.688c0,83.692-154.884,245.488-154.884,245.488S75.376,283.38,75.376,199.688"/>
<path style="fill:#6E4123;" d="M230.448,457.176c-3.268,0-6.4-1.336-8.664-3.696c-6.468-6.752-158.408-166.284-158.408-253.792
	c0-6.628,5.372-12,12-12s12,5.372,12,12c0,60.616,96.252,177.312,143.068,227.96c46.756-50.656,142.888-167.344,142.888-227.96
	c0-6.628,5.372-12,12-12s12,5.372,12,12c0,87.504-151.756,247.04-158.216,253.784C236.852,455.836,233.724,457.176,230.448,457.176
	L230.448,457.176z"/>
<circle style="fill:#FFFFFF;" cx="231.16" cy="199.4" r="98"/>
<g>
	<path style="fill:#6E4123;" d="M231.012,304.46c-59.244,0-107.448-46.516-107.448-103.692c0-28.404,11.668-54.904,32.848-74.624
		c3.236-3.004,8.3-2.832,11.308,0.404c3.012,3.236,2.828,8.296-0.4,11.308c-17.9,16.66-27.752,39.004-27.752,62.916
		c0,48.352,41.024,87.692,91.448,87.692s91.448-39.34,91.448-87.692c0-24.868-11.076-48.66-30.396-65.284
		c-3.348-2.88-3.728-7.932-0.844-11.28c2.88-3.34,7.928-3.728,11.28-0.844c22.852,19.664,35.956,47.88,35.956,77.412
		C338.46,257.944,290.256,304.46,231.012,304.46z"/>
	<path style="opacity:0.2;fill:#6E4123;enable-background:new    ;" d="M231.012,268.84c-52.672,0-96.048-38.244-101.812-87.44
		c-0.424,3.664-0.668,7.388-0.668,11.164c0,54.456,45.884,98.604,102.48,98.604s102.484-44.148,102.484-98.604
		c0-3.776-0.244-7.5-0.676-11.164C327.056,230.6,283.684,268.84,231.012,268.84z"/>
	<path style="fill:#6E4123;" d="M241.16,221.4c0,6.6-5.4,12-12,12l0,0c-6.6,0-12-5.4-12-12v-48c0-6.6,5.4-12,12-12l0,0
		c6.6,0,12,5.4,12,12V221.4z"/>
	<path style="fill:#6E4123;" d="M205.16,209.4c-6.6,0-12-5.4-12-12l0,0c0-6.6,5.4-12,12-12h48c6.6,0,12,5.4,12,12l0,0
		c0,6.6-5.4,12-12,12H205.16z"/>
</g>
<g>
</g>
<g>
</g>
<g>
</g>
<g>
</g>
<g>
</g>
<g>
</g>
<g>
</g>
<g>
</g>
<g>
</g>
<g>
</g>
<g>
</g>
<g>
</g>
<g>
</g>
<g>
</g>
<g>
</g>
</svg>
