<?xml version="1.0" encoding="iso-8859-1"?>
<!-- Generator: Adobe Illustrator 19.0.0, SVG Export Plug-In . SVG Version: 6.00 Build 0)  -->
<svg version="1.1" id="Layer_1" xmlns="http://www.w3.org/2000/svg" xmlns:xlink="http://www.w3.org/1999/xlink" x="0px" y="0px"
	 viewBox="0 0 468.012 468.012" style="enable-background:new 0 0 468.012 468.012;" xml:space="preserve">
<ellipse style="fill:#B8CBCD;" cx="234.006" cy="420.76" rx="190.668" ry="47.252"/>
<polygon style="fill:#B2EDA6;" points="280.674,12 160.674,12 136.674,84 304.674,84 "/>
<path style="fill:#3C663E;" d="M304.674,96h-168c-3.856,0-7.48-1.852-9.736-4.984c-2.256-3.128-2.868-7.152-1.652-10.812l24-72
	c1.636-4.9,6.22-8.204,11.388-8.204h120c5.164,0,9.748,3.304,11.384,8.204l24,72c1.22,3.66,0.604,7.68-1.652,10.812
	C312.154,94.148,308.53,96,304.674,96z M153.322,72h134.704l-16-48H169.322L153.322,72z"/>
<polygon style="fill:#B2EDA6;" points="160.674,440 280.674,440 304.674,368 136.674,368 "/>
<path style="fill:#3C663E;" d="M280.674,452h-120c-5.168,0-9.752-3.304-11.384-8.208l-24-72c-1.22-3.656-0.604-7.68,1.652-10.808
	c2.252-3.128,5.872-4.984,9.732-4.984h168c3.856,0,7.48,1.856,9.736,4.984c2.256,3.128,2.868,7.152,1.652,10.808l-24,72
	C290.422,448.696,285.838,452,280.674,452z M169.322,428h102.704l16-48H153.322L169.322,428z"/>
<path style="fill:#B2EDA6;" d="M372.674,316c0,33.136-26.864,60-60,60h-176c-33.136,0-60-26.864-60-60V140c0-33.136,26.864-60,60-60
	h176c33.136,0,60,26.864,60,60V316z"/>
<path style="fill:#3C663E;" d="M312.674,384h-176c-37.496,0-68-30.504-68-68V140c0-37.496,30.504-68,68-68h176
	c37.496,0,68,30.504,68,68v176C380.674,353.496,350.17,384,312.674,384z M136.674,88c-28.676,0-52,23.324-52,52v176
	c0,28.672,23.324,52,52,52h176c28.672,0,52-23.328,52-52V140c0-28.676-23.328-52-52-52H136.674z"/>
<path style="fill:#B2EDA6;" d="M312.674,76c33.136,0,60,30.864,60,64v176c0,33.136-26.864,64-60,64"/>
<path style="fill:#3C663E;" d="M312.674,392c-6.628,0-12-5.372-12-12s5.372-12,12-12c25.572,0,48-24.3,48-52V140
	c0-27.7-22.428-52-48-52c-6.628,0-12-5.372-12-12s5.372-12,12-12c39.028,0,72,34.804,72,76v176
	C384.674,357.196,351.702,392,312.674,392z"/>
<path style="fill:#B2EDA6;" d="M136.674,380c-33.136,0-60-30.864-60-64V140c0-33.136,26.864-64,60-64"/>
<g>
	<path style="fill:#3C663E;" d="M136.674,392c-39.028,0-72-34.804-72-76V140c0-41.196,32.972-76,72-76c6.628,0,12,5.372,12,12
		s-5.372,12-12,12c-25.572,0-48,24.3-48,52v176c0,27.7,22.428,52,48,52c6.628,0,12,5.372,12,12S143.298,392,136.674,392z"/>
	<path style="opacity:0.2;fill:#3C663E;enable-background:new    ;" d="M312.674,376h-176c-39.7,0-72-32.3-72-72h24
		c0,26.468,21.532,48,48,48h176c26.468,0,48-21.532,48-48h24C384.674,343.7,352.374,376,312.674,376z"/>
</g>
<rect x="124.674" y="128" style="fill:#FFFFFF;" width="200" height="200"/>
<g>
	<path style="fill:#3C663E;" d="M324.674,336h-200c-4.42,0-8-3.584-8-8V128c0-4.416,3.58-8,8-8h200c4.416,0,8,3.584,8,8v200
		C332.674,332.416,329.09,336,324.674,336z M132.674,320h184V136h-184V320z"/>
	<path style="fill:#3C663E;" d="M251.674,248c-0.18,0-0.364-0.008-0.548-0.02c-3.36-0.232-6.212-2.536-7.144-5.768l-16.252-56.528
		l-10.72,29.084c-1.156,3.144-4.152,5.232-7.504,5.232h-72.832c-4.42,0-8-3.584-8-8s3.58-8,8-8h67.256l17.236-46.768
		c1.196-3.248,4.288-5.348,7.8-5.228c3.456,0.128,6.44,2.46,7.396,5.784l16.908,58.82l14.084-31.844
		c1.144-2.584,3.564-4.376,6.368-4.712c2.808-0.304,5.58,0.836,7.3,3.08L293.954,200h26.72c4.416,0,8,3.584,8,8s-3.584,8-8,8
		h-30.668c-2.488,0-4.832-1.156-6.348-3.132l-7.124-9.292l-17.544,39.66C257.702,246.144,254.822,248,251.674,248z"/>
</g>
<path style="fill:#FFFFFF;" d="M185.874,252.58l-3.252,3.252l-3.256-3.252c-6.104-6.104-16.004-6.104-22.112,0
	c-6.104,6.108-6.104,16.008,0,22.116l3.256,3.252l22.112,22.116l22.116-22.116l3.252-3.252c6.104-6.108,6.104-16.008,0-22.116
	C201.882,246.472,191.982,246.472,185.874,252.58z"/>
<g>
	<path style="fill:#3C663E;" d="M182.622,308.064L182.622,308.064c-2.124,0-4.156-0.844-5.656-2.344l-25.364-25.364
		c-9.216-9.224-9.216-24.216-0.004-33.432c4.46-4.468,10.396-6.924,16.708-6.924c5.24,0,10.22,1.692,14.312,4.82
		c4.096-3.128,9.076-4.82,14.312-4.82c6.316,0,12.252,2.456,16.716,6.92c9.212,9.22,9.212,24.212,0,33.428l-25.372,25.368
		C186.778,307.22,184.742,308.064,182.622,308.064z M168.306,256c-2.04,0-3.956,0.792-5.4,2.236c-2.976,2.976-2.976,7.828,0,10.804
		l19.712,19.708l19.716-19.712c2.972-2.972,2.972-7.824-0.004-10.8c-2.884-2.884-7.916-2.888-10.8,0l-3.252,3.252
		c-3.12,3.124-8.188,3.12-11.312,0.004l-3.256-3.252C172.266,256.792,170.35,256,168.306,256z"/>
	<path style="fill:#3C663E;" d="M241.67,308.004c-1.052,0-2.12-0.212-3.148-0.652c-4.064-1.74-5.944-6.44-4.204-10.504L244.538,273
		h-7.864c-4.42,0-8-3.584-8-8s3.58-8,8-8h20c2.688,0,5.2,1.352,6.68,3.596c1.48,2.244,1.732,5.084,0.672,7.556l-15,35
		C247.726,306.184,244.774,308,241.67,308.004z"/>
	<path style="fill:#3C663E;" d="M286.674,307.332c-9.924,0-18-7.176-18-16v-18.664c0-8.824,8.076-16,18-16s18,7.176,18,16v18.664
		C304.674,300.156,296.598,307.332,286.674,307.332z M284.674,290.8c0.328,0.236,1.028,0.532,2,0.532s1.668-0.296,2-0.532v-17.6
		c-0.332-0.236-1.028-0.532-2-0.532s-1.672,0.296-2,0.532V290.8z"/>
	<path style="fill:#3C663E;" d="M260.674,56h-80c-4.42,0-8-3.584-8-8s3.58-8,8-8h80c4.416,0,8,3.584,8,8S265.09,56,260.674,56z"/>
	<path style="fill:#3C663E;" d="M260.674,412h-80c-4.42,0-8-3.584-8-8s3.58-8,8-8h80c4.416,0,8,3.584,8,8S265.09,412,260.674,412z"
		/>
</g>
<g>
</g>
<g>
</g>
<g>
</g>
<g>
</g>
<g>
</g>
<g>
</g>
<g>
</g>
<g>
</g>
<g>
</g>
<g>
</g>
<g>
</g>
<g>
</g>
<g>
</g>
<g>
</g>
<g>
</g>
</svg>
