<?xml version="1.0" encoding="iso-8859-1"?>
<!-- Generator: Adobe Illustrator 19.0.0, SVG Export Plug-In . SVG Version: 6.00 Build 0)  -->
<svg version="1.1" id="Layer_1" xmlns="http://www.w3.org/2000/svg" xmlns:xlink="http://www.w3.org/1999/xlink" x="0px" y="0px"
	 viewBox="0 0 468.012 468.012" style="enable-background:new 0 0 468.012 468.012;" xml:space="preserve">
<ellipse style="fill:#B8CBCD;" cx="234.006" cy="420.76" rx="190.668" ry="47.252"/>
<path style="fill:#B9E3ED;" d="M79.326,12c-8.8,0-16,7.2-16,16v284c0,8.8,5.968,20.024,13.264,24.944l145.468,98.108
	c7.296,4.92,19.192,4.852,26.432-0.148l141.668-97.816c7.244-5,13.168-16.292,13.168-25.092V28c0-8.8-7.2-16-16-16H79.326z"/>
<g>
	<path style="fill:#324654;" d="M235.142,450.7c-7.312,0-14.34-2.024-19.792-5.696L69.882,346.896
		C59.302,339.76,51.326,324.76,51.326,312V28c0-15.44,12.56-28,28-28h308c15.436,0,28,12.56,28,28v284
		c0,12.712-7.892,27.744-18.352,34.968L255.31,444.784C249.782,448.6,242.618,450.7,235.142,450.7z M79.326,24c-2.168,0-4,1.832-4,4
		v284c0,4.856,3.948,12.28,7.976,14.996l145.468,98.108c2.984,2.012,9.94,1.972,12.904-0.072l141.668-97.816
		c4.028-2.784,7.984-10.32,7.984-15.216V28c0-2.168-1.832-4-4-4H79.326z"/>
	<path style="opacity:0.2;fill:#324654;enable-background:new    ;" d="M252.846,391.128l-134.068-92.544
		c-2.16-1.496-3.452-3.956-3.452-6.584V72c0-4.416,3.58-8,8-8h244v16h-236v207.8l130.608,90.16L252.846,391.128z"/>
	<path style="fill:#324654;" d="M234.626,390.596c-6.304,0-12.604-1.696-17.532-5.1l-101.148-69.82
		c-9.476-6.544-16.62-20.16-16.62-31.676V72c0-13.236,10.76-24,23.996-24h236c4.416,0,8,3.584,8,8s-3.584,8-8,8h-236
		c-4.412,0-8,3.588-8,8v212c0,6.176,4.628,14.996,9.712,18.508l101.144,69.82c4.48,3.096,12.62,3.052,17.072-0.092l111.452-78.764
		c3.608-2.552,8.6-1.688,11.148,1.916c2.552,3.608,1.696,8.6-1.916,11.152l-111.452,78.764
		C247.494,388.824,241.058,390.596,234.626,390.596z"/>
</g>
<path style="fill:#FFFFFF;" d="M278.534,140c-16.316,0-24.48,5.436-35.364,5.436c-10.88,0-19.04-5.436-35.364-5.436
	c-16.32,0-24.48,10.884-24.48,21.764c0,59.844,13.6,54.408,13.6,65.284c0,46.248,10.88,54.408,16.324,54.408
	c5.44,0,16.324-8.16,16.324-24.484s13.6-24.484,13.6-24.484s13.6,8.16,13.6,24.484s10.888,24.484,16.324,24.484
	s16.32-8.16,16.32-54.408c0-10.88,13.6-5.44,13.6-65.284C303.018,150.884,294.854,140,278.534,140z"/>
<path style="fill:#324654;" d="M273.094,289.456c-9.94,0-24.324-11.568-24.324-32.484c0-6.364-2.96-11.076-5.612-14.016
	c-2.648,2.928-5.588,7.624-5.588,14.016c0,20.916-14.38,32.484-24.324,32.484c-11.096,0-24.324-10.828-24.324-62.408
	c0-0.692,0-0.796-1.544-3.076c-4.512-6.656-12.056-17.8-12.056-62.212c0-14.792,11.156-29.764,32.48-29.764
	c9.988,0,17.38,1.872,23.32,3.376c4.556,1.152,8.152,2.064,12.044,2.064c3.896,0,7.5-0.912,12.056-2.064
	c5.944-1.5,13.332-3.372,23.312-3.372c21.328,0,32.484,14.976,32.484,29.764c0,44.412-7.548,55.552-12.06,62.212
	c-1.544,2.276-1.544,2.384-1.544,3.076C297.414,278.632,284.186,289.456,273.094,289.456z M207.806,148
	c-11.384,0-16.48,6.916-16.48,13.764c0,39.5,6.052,48.436,9.304,53.24c2.012,2.972,4.296,6.34,4.296,12.048
	c0,37.092,7.16,45.044,8.664,46.3c2.064-0.816,7.984-5.7,7.984-16.38c0-20.616,16.768-30.916,17.484-31.344
	c2.532-1.52,5.7-1.52,8.232,0c0.716,0.428,17.488,10.728,17.488,31.344c0,10.44,5.66,15.344,8.04,16.328
	c1.616-1.404,8.604-9.612,8.604-46.252c0-5.708,2.28-9.076,4.296-12.048c3.252-4.8,9.304-13.736,9.304-53.236
	c0-6.852-5.096-13.764-16.484-13.764c-7.984,0-13.776,1.468-19.384,2.884c-4.96,1.252-10.088,2.552-15.98,2.552
	c-5.884,0-11.012-1.296-15.968-2.552C221.594,149.468,215.798,148,207.806,148z"/>
<g>
</g>
<g>
</g>
<g>
</g>
<g>
</g>
<g>
</g>
<g>
</g>
<g>
</g>
<g>
</g>
<g>
</g>
<g>
</g>
<g>
</g>
<g>
</g>
<g>
</g>
<g>
</g>
<g>
</g>
</svg>
