<?xml version="1.0" encoding="iso-8859-1"?>
<!-- Generator: Adobe Illustrator 19.0.0, SVG Export Plug-In . SVG Version: 6.00 Build 0)  -->
<svg version="1.1" id="Layer_1" xmlns="http://www.w3.org/2000/svg" xmlns:xlink="http://www.w3.org/1999/xlink" x="0px" y="0px"
	 viewBox="0 0 488.402 488.402" style="enable-background:new 0 0 488.402 488.402;" xml:space="preserve">
<g>
	<path style="fill:#324654;" d="M90.286,334.218l-80.78-80.78c-9.304-9.304-10.144-18.1-9.212-23.84
		c2.508-15.44,19.752-24.476,21.712-25.456c3.944-1.972,8.756-0.38,10.736,3.576c1.976,3.952,0.372,8.76-3.58,10.736
		c-3.06,1.556-12.08,7.44-13.08,13.732c-0.176,1.112-0.716,4.492,4.736,9.94l80.784,80.78L90.286,334.218z"/>
	<path style="fill:#324654;" d="M191.917,232.59l-80.784-80.784c-5.46-5.456-8.844-4.916-9.964-4.736
		c-6.48,1.052-12.46,10.584-13.708,13.08c-1.976,3.956-6.784,5.552-10.736,3.58c-3.952-1.976-5.552-6.78-3.58-10.736
		c0.98-1.956,10.016-19.212,25.456-21.716c5.748-0.936,14.54-0.084,23.84,9.216l80.78,80.78L191.917,232.59z"/>
</g>
<ellipse style="fill:#B8CBCD;" cx="259.082" cy="389.294" rx="190.668" ry="47.252"/>
<g>
	<path style="fill:#324654;" d="M294.398,404.242c-21.884,0-44.044-8.532-61.008-25.5l-39.088-39.088
		c-4.688-4.684-4.688-12.28,0-16.968s12.288-4.688,16.972,0l39.092,39.084c23.788,23.784,61.544,24.74,84.16,2.128
		c11.032-11.032,16.852-25.856,16.396-41.748c-0.456-15.896-7.032-30.964-18.504-42.436l-86-85.992
		c-15.756-15.76-24.196-36.696-23.752-58.948c0.432-21.904,9.38-42.668,25.192-58.48c32.58-32.584,85.592-32.588,118.176,0
		l78.204,78.204c4.688,4.684,4.688,12.284,0,16.968c-4.688,4.688-12.28,4.688-16.968,0l-78.204-78.204
		c-23.228-23.22-61.02-23.22-84.24,0c-11.408,11.408-17.856,26.316-18.168,41.984s5.632,30.412,16.728,41.508l85.992,85.996
		c15.824,15.82,24.892,36.672,25.524,58.716c0.652,22.564-7.664,43.66-23.416,59.408
		C335.882,396.478,315.262,404.242,294.398,404.242z"/>
	<path style="fill:#324654;" d="M151.033,364.598c-0.368,0-0.732-0.004-1.1-0.008c-22.808-0.276-44.072-9.132-59.872-24.932
		c-4.688-4.684-4.688-12.284,0-16.968c4.684-4.688,12.284-4.688,16.968,0c11.18,11.18,26.924,17.708,43.196,17.904
		c16.42,0.196,31.74-5.832,42.9-16.988c11.104-11.1,17.044-26.216,16.732-42.56c-0.312-16.104-6.932-31.784-18.164-43.02
		c-4.688-4.684-4.688-12.284,0-16.968c4.684-4.688,12.284-4.688,16.968,0c15.812,15.808,24.756,36.948,25.192,59.528
		c0.44,22.924-7.996,44.232-23.756,59.988C194.581,356.09,173.645,364.598,151.033,364.598z"/>
</g>
<circle style="fill:#B9E3ED;" cx="435.762" cy="162.974" r="40.648"/>
<g>
	<path style="fill:#324654;" d="M435.754,215.626c-29.032,0-52.648-23.616-52.648-52.644c0-29.032,23.616-52.652,52.648-52.652
		s52.648,23.62,52.648,52.652C488.39,192.014,464.77,215.626,435.754,215.626z M435.754,134.33
		c-15.796,0-28.648,12.852-28.648,28.652c0,15.792,12.852,28.644,28.648,28.644c15.792,0,28.644-12.852,28.648-28.648
		C464.402,147.182,451.549,134.33,435.754,134.33z"/>
	<circle style="fill:#324654;" cx="435.762" cy="162.974" r="11.984"/>
	
		<ellipse transform="matrix(-0.7071 -0.7071 0.7071 -0.7071 -96.2962 374.8521)" style="fill:#324654;" cx="29.486" cy="207.37" rx="11.056" ry="12.896"/>
	
		<ellipse transform="matrix(-0.7071 -0.7071 0.7071 -0.7071 10.616 330.6004)" style="fill:#324654;" cx="73.778" cy="163.102" rx="11.056" ry="12.9"/>
</g>
<g>
</g>
<g>
</g>
<g>
</g>
<g>
</g>
<g>
</g>
<g>
</g>
<g>
</g>
<g>
</g>
<g>
</g>
<g>
</g>
<g>
</g>
<g>
</g>
<g>
</g>
<g>
</g>
<g>
</g>
</svg>
