<?xml version="1.0" encoding="iso-8859-1"?>
<!-- Generator: Adobe Illustrator 19.0.0, SVG Export Plug-In . SVG Version: 6.00 Build 0)  -->
<svg version="1.1" id="Layer_1" xmlns="http://www.w3.org/2000/svg" xmlns:xlink="http://www.w3.org/1999/xlink" x="0px" y="0px"
	 viewBox="0 0 446.568 446.568" style="enable-background:new 0 0 446.568 446.568;" xml:space="preserve">
<path style="fill:#B9E3ED;" d="M433.068,234.932c0,21.576-13.928,39.072-31.112,39.072s-31.116-17.496-31.116-39.072
	c0-29.452,31.116-70.328,31.116-70.328S433.068,206.528,433.068,234.932z"/>
<path style="fill:#324654;" d="M401.956,286c-23.772,0-43.116-22.912-43.116-51.068c0-32.564,30.132-73.084,33.572-77.596
	c2.268-2.98,5.8-4.732,9.548-4.732c0.024,0,0.052,0,0.076,0c3.772,0.024,7.312,1.82,9.564,4.848
	c3.424,4.616,33.476,46.02,33.476,77.48C445.068,263.092,425.728,286,401.956,286z M401.868,186.084
	c-8.836,14.264-19.032,34.272-19.032,48.848c0,14.672,8.752,27.068,19.116,27.068c10.36,0,19.112-12.4,19.112-27.068
	C421.068,220.848,410.756,200.596,401.868,186.084z"/>
<ellipse style="fill:#B8CBCD;" cx="192.16" cy="399.316" rx="190.668" ry="47.252"/>
<path style="fill:#B9E3ED;" d="M136.08,389.9c-10.936,10.932-28.664,10.932-39.6,0l-73.54-73.544
	c-10.932-10.932-10.932-28.66,0-39.596l0,0c10.936-10.932,28.664-10.932,39.6,0l73.54,73.544
	C147.016,361.236,147.016,378.964,136.08,389.9L136.08,389.9z"/>
<path style="fill:#324654;" d="M116.28,410.1c-10.684,0-20.728-4.16-28.284-11.712l-73.54-73.548
	c-15.592-15.592-15.592-40.968-0.004-56.568c7.564-7.556,17.604-11.716,28.288-11.716s20.728,4.16,28.284,11.712l73.54,73.548
	c15.596,15.592,15.596,40.968,0.004,56.568C137.008,405.94,126.964,410.1,116.28,410.1z M42.74,280.56
	c-4.272,0-8.292,1.664-11.316,4.688c-6.236,6.236-6.236,16.388,0,22.624l73.54,73.544c6.048,6.04,16.584,6.044,22.632-0.004
	c6.236-6.236,6.236-16.388,0-22.624l-73.54-73.544C51.032,282.224,47.016,280.56,42.74,280.56z"/>
<polyline style="fill:#B9E3ED;" points="161.532,279.592 99.308,341.812 68.196,310.7 130.424,248.476 "/>
<path style="fill:#324654;" d="M99.308,353.812L99.308,353.812c-3.184,0-6.236-1.264-8.484-3.516l-31.108-31.112
	c-4.688-4.688-4.688-12.284,0-16.968l62.228-62.224c4.688-4.688,12.28-4.688,16.968,0c4.688,4.688,4.688,12.284,0,16.968
	L85.168,310.7l14.14,14.14l53.744-53.736c4.688-4.688,12.28-4.688,16.968,0s4.688,12.284,0,16.968L107.792,350.3
	C105.54,352.548,102.492,353.812,99.308,353.812z"/>
<polygon style="fill:#B9E3ED;" points="161.604,279.52 209.692,327.604 235.148,302.144 215.348,282.348 127.668,194.664 
	107.864,174.868 82.408,200.324 130.496,248.408 "/>
<path style="fill:#324654;" d="M209.692,330.432L79.58,200.324l28.284-28.284l130.108,130.104L209.692,330.432z M85.236,200.324
	l124.452,124.448l22.628-22.628L107.864,177.696L85.236,200.324z"/>
<polyline style="fill:#B9E3ED;" points="130.496,248.408 82.408,200.324 107.864,174.868 127.668,194.664 "/>
<path style="fill:#324654;" d="M130.496,260.408c-3.072,0-6.14-1.172-8.484-3.516l-48.088-48.084
	c-2.248-2.252-3.516-5.3-3.516-8.484c0-3.184,1.264-6.236,3.516-8.484l25.456-25.456c4.688-4.688,12.28-4.688,16.968,0l19.8,19.796
	c4.688,4.684,4.688,12.28,0,16.968c-4.68,4.688-12.28,4.688-16.968,0l-11.316-11.312l-8.484,8.488l39.6,39.596
	c4.688,4.684,4.688,12.28,0,16.968C136.636,259.236,133.564,260.408,130.496,260.408z"/>
<polyline style="fill:#B9E3ED;" points="215.348,282.348 235.148,302.144 209.692,327.604 161.604,279.52 "/>
<path style="fill:#324654;" d="M209.692,339.604c-3.072,0-6.14-1.172-8.484-3.516l-48.088-48.084c-4.688-4.684-4.688-12.28,0-16.968
	c4.68-4.688,12.28-4.688,16.968,0l39.6,39.596l8.484-8.488l-11.312-11.312c-4.688-4.684-4.688-12.28,0-16.968
	c4.68-4.688,12.28-4.688,16.968,0l19.8,19.796c2.252,2.252,3.516,5.3,3.516,8.484s-1.264,6.236-3.516,8.484l-25.456,25.456
	C215.832,338.432,212.76,339.604,209.692,339.604z"/>
<polyline style="fill:#FFFFFF;" points="133.252,200.392 291.644,42 370.84,121.196 212.448,279.592 "/>
<path style="fill:#324654;" d="M212.448,291.592c-3.068,0-6.14-1.172-8.484-3.516c-4.688-4.684-4.688-12.28,0-16.968
	l149.904-149.912l-62.224-62.224L141.736,208.876c-4.688,4.688-12.28,4.688-16.968,0c-4.688-4.684-4.688-12.284,0-16.968
	L283.16,33.516c4.688-4.688,12.28-4.688,16.968,0l79.196,79.196c4.688,4.684,4.688,12.284,0,16.968L220.932,288.076
	C218.588,290.42,215.52,291.592,212.448,291.592z"/>
<path style="fill:#324654;" d="M334.068,90.772c-3.072,0-6.14-1.172-8.484-3.516c-4.688-4.684-4.688-12.284,0-16.968l66.772-66.772
	c4.688-4.688,12.28-4.688,16.968,0c4.688,4.684,4.688,12.284,0,16.968l-66.772,66.772C340.208,89.6,337.14,90.772,334.068,90.772z"
	/>
<path style="fill:#324654;" d="M256.696,135.86c-2.048,0-4.092-0.78-5.656-2.344l-25.452-25.456c-3.124-3.124-3.124-8.192,0-11.312
	c3.124-3.124,8.188-3.124,11.312,0l25.452,25.456c3.124,3.124,3.124,8.192,0,11.312C260.788,135.08,258.74,135.86,256.696,135.86z"
	/>
<polyline style="fill:#B9E3ED;" points="212.448,279.592 306.84,184.576 178.46,154.564 138.84,194 "/>
<path style="fill:#324654;" d="M212.448,287.592c-2.04,0-4.076-0.772-5.636-2.324c-3.136-3.112-3.152-8.18-0.04-11.312
	l84.292-84.852l-110.104-25.74l-36.476,36.308c-3.132,3.112-8.192,3.104-11.316-0.028c-3.112-3.132-3.1-8.2,0.028-11.316
	l39.62-39.436c1.956-1.944,4.788-2.736,7.464-2.116l128.38,30.012c2.824,0.66,5.072,2.796,5.872,5.584
	c0.796,2.784,0.028,5.788-2.016,7.844l-94.392,95.012C216.56,286.804,214.504,287.592,212.448,287.592z"/>
<path style="fill:#324654;" d="M278.208,97.372c-2.048,0-4.092-0.78-5.656-2.344L255.584,78.06c-3.124-3.124-3.124-8.188,0-11.312
	c3.124-3.124,8.188-3.124,11.312,0l16.968,16.968c3.124,3.124,3.124,8.188,0,11.312C282.304,96.592,280.256,97.372,278.208,97.372z"
	/>
<path style="fill:#324654;" d="M224.696,150.888c-2.048,0-4.092-0.78-5.656-2.344l-16.972-16.968c-3.124-3.12-3.124-8.188,0-11.312
	s8.188-3.124,11.312,0l16.972,16.968c3.124,3.12,3.124,8.188,0,11.312C228.792,150.108,226.744,150.888,224.696,150.888z"/>
<g>
	<path style="fill:#324654;" d="M192.648,182.94c-2.048,0-4.092-0.78-5.656-2.344l-16.972-16.972c-3.124-3.124-3.124-8.188,0-11.312
		s8.188-3.124,11.312,0l16.972,16.972c3.124,3.124,3.124,8.188,0,11.312C196.74,182.156,194.696,182.94,192.648,182.94z"/>
	<path style="fill:#324654;" d="M215.348,296.004c-2.048,0-4.096-0.78-5.656-2.344l-87.68-87.68c-3.124-3.124-3.124-8.188,0-11.312
		s8.188-3.124,11.312,0l87.68,87.68c3.124,3.124,3.124,8.188,0,11.312C219.44,295.224,217.392,296.004,215.348,296.004z"/>
	<path style="fill:#324654;" d="M170.092,290.348c-2.048,0-4.092-0.78-5.656-2.344l-42.424-42.424
		c-3.124-3.124-3.124-8.188,0-11.312s8.188-3.124,11.312,0l42.424,42.428c3.124,3.124,3.124,8.188,0,11.312
		C174.188,289.568,172.14,290.348,170.092,290.348z"/>
</g>
<g>
</g>
<g>
</g>
<g>
</g>
<g>
</g>
<g>
</g>
<g>
</g>
<g>
</g>
<g>
</g>
<g>
</g>
<g>
</g>
<g>
</g>
<g>
</g>
<g>
</g>
<g>
</g>
<g>
</g>
</svg>
