<?xml version="1.0" encoding="iso-8859-1"?>
<!-- Generator: Adobe Illustrator 19.0.0, SVG Export Plug-In . SVG Version: 6.00 Build 0)  -->
<svg version="1.1" id="Layer_1" xmlns="http://www.w3.org/2000/svg" xmlns:xlink="http://www.w3.org/1999/xlink" x="0px" y="0px"
	 viewBox="0 0 452.012 452.012" style="enable-background:new 0 0 452.012 452.012;" xml:space="preserve">
<ellipse style="fill:#B8CBCD;" cx="194.968" cy="404.76" rx="190.668" ry="47.252"/>
<path style="fill:#FFBAB0;" d="M220.692,305.268c2.836-1.94,5.56-4.132,8.076-6.652L419.284,108.1
	c21.912-21.908,21.912-57.756,0-79.668s-57.76-21.912-79.672,0l-190.52,190.516c-1.844,1.84-3.468,3.812-5,5.832
	c-33.752-8.228-70.824,0.72-97.184,27.08c-40.176,40.176-40.176,105.308,0,145.484c40.168,40.176,105.308,40.176,145.484,0
	C217.42,372.316,226.844,337.6,220.692,305.268z"/>
<path style="fill:#783741;" d="M119.648,439.476c-30.684,0-59.532-11.952-81.224-33.648c-21.7-21.696-33.648-50.544-33.648-81.228
	s11.948-59.528,33.648-81.228c21.632-21.632,50.428-33.548,81.08-33.548c6.712,0,13.42,0.584,20.028,1.744
	c0.36-0.38,0.72-0.748,1.084-1.112L331.128,19.948C343.988,7.084,361.148,0,379.444,0s35.456,7.084,48.32,19.948
	s19.948,30.024,19.948,48.32s-7.088,35.456-19.948,48.32L237.248,307.104c-1.136,1.14-2.344,2.256-3.604,3.34
	c4.34,35.056-7.624,70.244-32.764,95.384C179.184,427.524,150.336,439.476,119.648,439.476z M119.504,233.824
	c-24.244,0-47.008,9.416-64.108,26.516c-17.164,17.168-26.616,39.988-26.616,64.256c0,24.272,9.452,47.092,26.616,64.256
	c17.164,17.164,39.98,26.616,64.256,26.616c24.272,0,47.096-9.452,64.26-26.616c21.288-21.292,30.632-51.7,24.992-81.344
	c-0.892-4.684,1.072-9.452,5.012-12.148c2.42-1.66,4.504-3.368,6.364-5.232L410.8,99.608c8.328-8.332,12.92-19.464,12.92-31.348
	s-4.592-23.016-12.92-31.348c-8.332-8.328-19.464-12.916-31.352-12.916s-23.02,4.588-31.352,12.916l-190.52,190.52
	c-1.232,1.232-2.476,2.692-3.924,4.6c-2.892,3.808-7.764,5.544-12.404,4.404C134.144,234.704,126.824,233.824,119.504,233.824z"/>
<path style="fill:#783741;" d="M346.036,74.032c-2.048,0-4.092-0.78-5.656-2.344l-22.012-22.012c-3.124-3.124-3.124-8.188,0-11.312
	c3.124-3.124,8.188-3.124,11.312,0l22.012,22.012c3.124,3.124,3.124,8.188,0,11.312C350.128,73.252,348.08,74.032,346.036,74.032z"
	/>
<path style="fill:#783741;" d="M302.588,99.868c-2.048,0-4.092-0.78-5.656-2.344l-13.208-13.208c-3.124-3.124-3.124-8.188,0-11.312
	c3.124-3.124,8.188-3.124,11.312,0l13.208,13.208c3.124,3.124,3.124,8.188,0,11.312C306.684,99.084,304.636,99.868,302.588,99.868z"
	/>
<path style="fill:#783741;" d="M276.752,143.312c-2.048,0-4.092-0.78-5.656-2.344l-22.008-22.012c-3.124-3.124-3.124-8.188,0-11.316
	c3.124-3.12,8.188-3.124,11.312,0l22.008,22.012c3.124,3.124,3.124,8.188,0,11.316C280.848,142.528,278.8,143.312,276.752,143.312z"
	/>
<path style="fill:#783741;" d="M233.308,169.148c-2.048,0-4.096-0.78-5.656-2.344l-13.204-13.208c-3.124-3.124-3.124-8.192,0-11.316
	c3.124-3.12,8.196-3.124,11.312,0l13.204,13.208c3.124,3.124,3.124,8.192,0,11.316C237.404,168.364,235.356,169.148,233.308,169.148
	z"/>
<g>
	<path style="fill:#783741;" d="M207.476,212.588c-2.048,0-4.092-0.78-5.656-2.344l-22.012-22.012
		c-3.124-3.124-3.124-8.188,0-11.312s8.188-3.124,11.312,0l22.012,22.012c3.124,3.124,3.124,8.188,0,11.312
		C211.572,211.808,209.524,212.588,207.476,212.588z"/>
	<path style="fill:#783741;" d="M119.716,340c-3.072,0-6.14-1.172-8.484-3.516c-4.688-4.684-4.688-12.284,0-16.968L351.968,78.784
		c4.688-4.688,12.28-4.688,16.968,0c4.688,4.684,4.688,12.284,0,16.968L128.2,336.484C125.856,338.828,122.784,340,119.716,340z"/>
</g>
<circle style="fill:#FFFFFF;" cx="119.716" cy="324" r="44"/>
<path style="fill:#783741;" d="M119.716,376c-28.672,0-52-23.324-52-52s23.328-52,52-52s52,23.324,52,52S148.388,376,119.716,376z
	 M119.716,288c-19.852,0-36,16.152-36,36s16.148,36,36,36s36-16.152,36-36S139.568,288,119.716,288z"/>
<g>
</g>
<g>
</g>
<g>
</g>
<g>
</g>
<g>
</g>
<g>
</g>
<g>
</g>
<g>
</g>
<g>
</g>
<g>
</g>
<g>
</g>
<g>
</g>
<g>
</g>
<g>
</g>
<g>
</g>
</svg>
