<?xml version="1.0" encoding="iso-8859-1"?>
<!-- Generator: Adobe Illustrator 19.0.0, SVG Export Plug-In . SVG Version: 6.00 Build 0)  -->
<svg version="1.1" id="Layer_1" xmlns="http://www.w3.org/2000/svg" xmlns:xlink="http://www.w3.org/1999/xlink" x="0px" y="0px"
	 viewBox="0 0 462.732 462.732" style="enable-background:new 0 0 462.732 462.732;" xml:space="preserve">
<ellipse style="fill:#B8CBCD;" cx="239.482" cy="415.48" rx="190.668" ry="47.252"/>
<path style="fill:#3C663E;" d="M368.466,376.236h-192c-6.628,0-12-5.372-12-12s5.372-12,12-12h192
	c36.832-0.004,65.684-28.164,65.684-64.108c0-18.208-6.284-35.264-17.704-48.04c-11.44-12.804-27.064-19.852-43.98-19.852H94.15
	c-50.224,0-89.568-37.924-89.568-86.336c0-49.44,40.18-89.664,89.568-89.664h130.316c6.628,0,12,5.372,12,12s-5.372,12-12,12H94.15
	c-36.156,0-65.568,29.456-65.568,65.664c0,35.536,28.188,62.336,65.568,62.336h278.316h0.008c23.84,0,45.808,9.892,61.868,27.86
	c15.352,17.176,23.808,39.916,23.808,64.032C458.15,337.528,418.754,376.232,368.466,376.236z"/>
<circle style="fill:#B2EDA6;" cx="226.03" cy="56.116" r="44.12"/>
<g>
	<path style="fill:#3C663E;" d="M226.03,112.24c-14.988,0-29.084-5.836-39.68-16.44c-21.876-21.88-21.876-57.484,0-79.364
		C196.946,5.836,211.042,0,226.03,0c14.988,0,29.08,5.836,39.68,16.432c21.884,21.884,21.884,57.484,0,79.364
		C255.114,106.4,241.022,112.24,226.03,112.24z M226.03,24c-8.58,0-16.648,3.34-22.712,9.408c-12.52,12.52-12.52,32.9,0,45.424
		c6.068,6.068,14.132,9.408,22.712,9.408c8.58,0,16.644-3.344,22.712-9.408c12.524-12.524,12.524-32.904,0-45.424
		C242.674,27.34,234.61,24,226.03,24z"/>
	<circle style="fill:#3C663E;" cx="226.03" cy="56.116" r="13.008"/>
</g>
<rect x="150.15" y="140.236" style="fill:#B2EDA6;" width="195.872" height="132"/>
<g>
	<path style="fill:#3C663E;" d="M346.022,284H150.15c-6.628,0-12-5.372-12-12V140c0-6.628,5.372-12,12-12h195.872
		c6.628,0,12,5.372,12,12v132C358.022,278.628,352.65,284,346.022,284z M162.15,260h172V152h-172V260z"/>
	<path style="fill:#3C663E;" d="M248.694,253.188l-37.268-37.268c-10.888-10.896-10.888-28.612-0.004-39.504
		c5.28-5.276,12.292-8.18,19.752-8.18c6.452,0,12.572,2.172,17.52,6.172c4.948-4,11.068-6.172,17.516-6.172
		c7.46,0,14.476,2.904,19.752,8.18c5.276,5.276,8.184,12.288,8.184,19.752s-2.908,14.476-8.184,19.748L248.694,253.188z
		 M231.174,184.236c-3.188,0-6.184,1.24-8.436,3.492c-4.648,4.652-4.648,12.22,0,16.872l25.956,25.956L274.65,204.6
		c2.252-2.256,3.496-5.252,3.496-8.436s-1.244-6.184-3.496-8.436c-4.504-4.5-12.36-4.504-16.872,0l-9.088,9.092l-9.084-9.092
		C237.358,185.476,234.362,184.236,231.174,184.236z"/>
</g>
<path style="fill:#B2EDA6;" d="M154.15,392.236h46.4c19.224,0,33.6-14.78,33.6-34l0,0c0-19.22-14.38-34-33.6-34h-46.4V392.236z"/>
<path style="fill:#3C663E;" d="M200.546,404h-46.4c-6.628,0-12-5.372-12-12v-68c0-6.628,5.372-12,12-12h46.4
	c25.572,0,45.6,20.204,45.6,46S226.118,404,200.546,404z M166.15,380h34.4c12.516,0,21.6-9.252,21.6-22s-9.084-22-21.6-22h-34.4V380
	z"/>
<path style="fill:#B2EDA6;" d="M145.398,382.736c-12.84,0-23.248-10.412-23.248-23.252c0-12.84,10.408-23.252,23.248-23.252"/>
<path style="fill:#3C663E;" d="M145.398,394.736c-19.436,0-35.248-15.812-35.248-35.252c0-19.436,15.812-35.252,35.248-35.252
	c6.628,0,12,5.372,12,12s-5.372,12-12,12c-6.204,0-11.248,5.048-11.248,11.252s5.048,11.252,11.248,11.252c6.628,0,12,5.372,12,12
	S152.026,394.736,145.398,394.736z"/>
<g>
</g>
<g>
</g>
<g>
</g>
<g>
</g>
<g>
</g>
<g>
</g>
<g>
</g>
<g>
</g>
<g>
</g>
<g>
</g>
<g>
</g>
<g>
</g>
<g>
</g>
<g>
</g>
<g>
</g>
</svg>
