<?xml version="1.0" encoding="iso-8859-1"?>
<!-- Generator: Adobe Illustrator 19.0.0, SVG Export Plug-In . SVG Version: 6.00 Build 0)  -->
<svg version="1.1" id="Layer_1" xmlns="http://www.w3.org/2000/svg" xmlns:xlink="http://www.w3.org/1999/xlink" x="0px" y="0px"
	 viewBox="0 0 478.492 478.492" style="enable-background:new 0 0 478.492 478.492;" xml:space="preserve">
<g style="opacity:0.5;">
	<ellipse style="fill:#B8CBCD;" cx="241.252" cy="431.24" rx="190.668" ry="47.252"/>
</g>
<path style="fill:#B2EDA6;" d="M318.572,422c0,16.572-13.428,30-30,30h-92c-16.572,0-30-13.428-30-30l0,0c0-16.572,13.428-30,30-30
	h92C305.14,392,318.572,405.428,318.572,422L318.572,422z"/>
<path style="fill:#3C663E;" d="M288.572,464h-92c-23.16,0-42-18.84-42-42s18.84-42,42-42h92c23.16,0,42,18.84,42,42
	S311.732,464,288.572,464z M196.572,404c-9.924,0-18,8.076-18,18s8.076,18,18,18h92c9.924,0,18-8.076,18-18s-8.076-18-18-18H196.572
	z"/>
<path style="fill:#B2EDA6;" d="M414.572,260c0,22-18,40-40,40h-276c-22,0-40-18-40-40V52c0-22,18-40,40-40h276c22,0,40,18,40,40V260
	z"/>
<path style="fill:#3C663E;" d="M374.572,312h-276c-28.672,0-52-23.328-52-52V52c0-28.672,23.328-52,52-52h276
	c28.672,0,52,23.328,52,52v208C426.572,288.672,403.244,312,374.572,312z M98.572,24c-15.436,0-28,12.564-28,28v208
	c0,15.436,12.564,28,28,28h276c15.436,0,28-12.564,28-28V52c0-15.436-12.564-28-28-28H98.572z"/>
<polygon style="fill:#B2EDA6;" points="262.572,332 274.572,416 210.572,416 222.572,332 "/>
<path style="fill:#3C663E;" d="M274.648,428c-0.02,0-0.052,0-0.076,0h-64c-3.48,0-6.784-1.508-9.068-4.136
	c-2.276-2.628-3.304-6.116-2.812-9.56l12-84c0.844-5.916,5.908-10.304,11.88-10.304h40c5.972,0,11.036,4.392,11.88,10.304
	l11.804,82.62c0.256,0.98,0.396,2.012,0.396,3.076C286.648,422.628,281.276,428,274.648,428z M224.408,404h36.328l-8.572-60h-19.188
	L224.408,404z"/>
<g style="opacity:0.2;">
	<polygon style="fill:#3C663E;" points="247.884,336.204 254.572,376 214.82,376 221.508,336.204 	"/>
</g>
<path style="fill:#B2EDA6;" d="M414.572,296c0,22-18,40-40,40h-276c-22,0-40-18-40-40V88c0-22,18-40,40-40h276c22,0,40,18,40,40V296
	z"/>
<g>
	<path style="fill:#3C663E;" d="M374.572,344h-276c-26.468,0-48-21.532-48-48V88c0-26.468,21.532-48,48-48h276
		c26.468,0,48,21.532,48,48v208C422.572,322.468,401.04,344,374.572,344z M98.572,56c-17.644,0-32,14.356-32,32v208
		c0,17.644,14.356,32,32,32h276c17.644,0,32-14.356,32-32V88c0-17.644-14.356-32-32-32H98.572z"/>
	<circle style="fill:#3C663E;" cx="240.572" cy="302" r="10"/>
</g>
<rect x="102.572" y="88" style="fill:#E7FFE1;" width="268" height="184"/>
<g>
	<path style="fill:#3C663E;" d="M370.572,280h-268c-4.42,0-8-3.584-8-8V88c0-4.416,3.58-8,8-8h268c4.416,0,8,3.584,8,8v184
		C378.572,276.416,374.988,280,370.572,280z M110.572,264h252V96h-252V264z"/>
	<path style="fill:#3C663E;" d="M374.572,348h-276c-28.672,0-52-23.328-52-52V48c0-6.628,5.372-12,12-12s12,5.372,12,12v248
		c0,15.436,12.564,28,28,28h276c15.436,0,28-12.564,28-28V48c0-6.628,5.372-12,12-12s12,5.372,12,12v248
		C426.572,324.672,403.244,348,374.572,348z"/>
	<path style="fill:#3C663E;" d="M238.572,268c-4.42,0-8-3.584-8-8V92c0-4.416,3.58-8,8-8c4.416,0,8,3.584,8,8v168
		C246.572,264.416,242.988,268,238.572,268z"/>
	<path style="fill:#3C663E;" d="M274.572,160h-36c-4.42,0-8-3.584-8-8s3.58-8,8-8h36c11.456,0,19.32-6.94,23.268-11.536
		l-6.488-9.084c-4.384,6.84-11.136,12.62-20.78,12.62h-32c-4.42,0-8-3.584-8-8s3.58-8,8-8h32c7.58,0,11.084-14.452,11.116-14.596
		c0.648-3.108,3.08-5.536,6.184-6.188c3.132-0.668,6.308,0.596,8.156,3.18l18.192,25.472c1.824,2.556,1.984,5.944,0.412,8.664
		C314.072,137.488,300.716,160,274.572,160z"/>
	<path style="fill:#3C663E;" d="M290.572,208h-40c-4.42,0-8-3.584-8-8s3.58-8,8-8h40c16.776,0,24.536-12.18,24.856-12.7
		c2.32-3.728,7.228-4.924,10.972-2.644c3.752,2.28,4.984,7.124,2.736,10.896C328.636,188.388,316.648,208,290.572,208z"/>
	<path style="fill:#3C663E;" d="M307.708,256.956c-35.456,0-40.752-20.972-40.752-33.472c0-3.732-1.08-6.444-3.4-8.544
		c-6.292-5.696-19.92-5.752-24.192-5.328c-4.372,0.448-8.316-2.768-8.756-7.164c-0.436-4.4,2.768-8.316,7.164-8.756
		c2.42-0.232,23.916-2.02,36.524,9.388c5.664,5.128,8.66,12.184,8.66,20.408c0,12.244,7.404,17.472,24.752,17.472
		c2.788,0,10.196,0,10.196-17.472c0-11.348-2.08-31.192-4-47.12c-5.08,4.592-11.868,7.816-20.752,7.816h-54.58c-4.42,0-8-3.584-8-8
		s3.58-8,8-8h54.58c14.536,0,17.44-17.884,17.56-18.644c0.596-3.908,3.96-6.808,7.912-6.808c0.016,0,0.028,0,0.044,0
		c3.964,0.02,7.32,2.924,7.88,6.848c0.3,2.104,7.36,51.764,7.36,73.912C333.904,254.544,313.852,256.956,307.708,256.956z"/>
	<path style="fill:#3C663E;" d="M298.572,232h-24c-4.42,0-8-3.584-8-8s3.58-8,8-8h24c7.8,0,14.704-10.532,16.504-14.22
		c1.932-3.968,6.704-5.632,10.7-3.676c3.968,1.936,5.616,6.728,3.676,10.7C328.988,209.752,317.9,232,298.572,232z"/>
	<path style="fill:#3C663E;" d="M318.632,158.708c-2.72,0-5.368-1.384-6.868-3.884l-10.916-18.192
		c-2.272-3.788-1.048-8.704,2.744-10.976c3.788-2.272,8.704-1.048,10.976,2.744l10.916,18.192c2.272,3.788,1.048,8.704-2.74,10.976
		C321.452,158.34,320.036,158.708,318.632,158.708z"/>
	<path style="fill:#3C663E;" d="M238.572,160h-36c-26.144,0-39.5-22.512-40.06-23.468c-1.576-2.72-1.416-6.108,0.412-8.664
		l18.192-25.472c1.848-2.584,5.02-3.844,8.156-3.18c3.104,0.652,5.536,3.08,6.184,6.188c0.028,0.116,3.516,14.596,11.116,14.596h32
		c4.416,0,8,3.584,8,8s-3.584,8-8,8h-32c-9.644,0-16.4-5.78-20.78-12.62l-6.488,9.088C183.252,137.06,191.112,144,202.572,144h36
		c4.416,0,8,3.584,8,8S242.988,160,238.572,160z"/>
	<path style="fill:#3C663E;" d="M226.572,208h-40c-26.08,0-38.068-19.612-38.564-20.448c-2.264-3.792-1.02-8.704,2.776-10.964
		c3.76-2.252,8.66-1.032,10.932,2.724c0.404,0.64,8.164,12.692,24.852,12.692h40c4.416,0,8,3.584,8,8S230.988,208,226.572,208z"/>
	<path style="fill:#3C663E;" d="M169.432,256.956c-6.144,0-26.196-2.416-26.196-33.472c0-22.144,7.06-71.804,7.36-73.912
		c0.564-3.94,3.936-6.868,7.916-6.868s7.356,2.924,7.916,6.868c0.112,0.724,3.02,18.604,17.556,18.604h54.588c4.416,0,8,3.584,8,8
		s-3.584,8-8,8h-54.584c-8.884,0-15.672-3.224-20.748-7.816c-1.924,15.928-4,35.772-4,47.12c0,17.472,7.408,17.472,10.196,17.472
		c17.348,0,24.752-5.228,24.752-17.472c0-8.224,2.996-15.276,8.66-20.408c12.608-11.416,34.108-9.62,36.524-9.388
		c4.396,0.44,7.6,4.36,7.164,8.756c-0.44,4.388-4.28,7.616-8.74,7.164l0,0c-4.628-0.432-17.98-0.336-24.232,5.348
		c-2.304,2.092-3.38,4.8-3.38,8.524C210.184,235.984,204.892,256.956,169.432,256.956z"/>
	<path style="fill:#3C663E;" d="M202.572,232h-28c-16.304,0-24.9-15.456-27.408-24.588c-1.168-4.256,1.336-8.66,5.6-9.832
		c4.252-1.172,8.64,1.324,9.82,5.564c0.08,0.256,3.936,12.86,11.988,12.86h28c4.416,0,8,3.584,8,8S206.988,232,202.572,232z"/>
	<path style="fill:#3C663E;" d="M158.508,158.708c-1.404,0-2.82-0.368-4.108-1.14c-3.788-2.272-5.016-7.188-2.744-10.976
		l10.92-18.192c2.272-3.788,7.188-5.02,10.976-2.744c3.788,2.272,5.016,7.188,2.744,10.976l-10.916,18.192
		C163.876,157.324,161.228,158.708,158.508,158.708z"/>
</g>
<g>
</g>
<g>
</g>
<g>
</g>
<g>
</g>
<g>
</g>
<g>
</g>
<g>
</g>
<g>
</g>
<g>
</g>
<g>
</g>
<g>
</g>
<g>
</g>
<g>
</g>
<g>
</g>
<g>
</g>
</svg>
