<?xml version="1.0" encoding="iso-8859-1"?>
<!-- Generator: Adobe Illustrator 19.0.0, SVG Export Plug-In . SVG Version: 6.00 Build 0)  -->
<svg version="1.1" id="Capa_1" xmlns="http://www.w3.org/2000/svg" xmlns:xlink="http://www.w3.org/1999/xlink" x="0px" y="0px"
	 viewBox="0 0 512 512" style="enable-background:new 0 0 512 512;" xml:space="preserve">
<path style="fill:#CAE8F9;" d="M481,166v331c0,8.399-6.599,15-15,15H46c-8.401,0-15-6.601-15-15V166c0-8.401,6.599-15,15-15
	c17.999,0,32.701-13.5,34.501-31.201L83.5,90l14.399-15h103.2L218.5,90l2.999,29.799C223.299,137.5,238.001,151,256,151
	s32.701-13.5,34.501-31.201L293.5,90L316,75h99.901L428.5,90l2.999,29.799C433.299,137.5,448.001,151,466,151
	C474.401,151,481,157.599,481,166z"/>
<path style="fill:#B7E0F6;" d="M481,166v331c0,8.399-6.599,15-15,15H256V151c17.999,0,32.701-13.5,34.501-31.201L293.5,90L316,75
	h99.901L428.5,90l2.999,29.799C433.299,137.5,448.001,151,466,151C474.401,151,481,157.599,481,166z"/>
<path style="fill:#CAE8F9;" d="M210.927,13.506C210.165,5.845,203.705,0,196,0h-90c-7.705,0-14.165,5.845-14.927,13.506L86.426,60
	l20.208,15h93.745l15.195-15L210.927,13.506z"/>
<path style="fill:#B7E0F6;" d="M420.927,13.506C420.165,5.845,413.705,0,406,0h-90c-7.705,0-14.165,5.845-14.927,13.506L296.426,60
	l18.943,15h96.261l13.944-15L420.927,13.506z"/>
<path style="fill:#FEDB41;" d="M159.401,183.399C157,181.599,153.999,181,151,181s-6,0.599-8.401,2.399C110.2,205,91,241.3,91,280
	v157c0,8.399,6.599,15,15,15h90c8.401,0,15-6.601,15-15V280C211,241.3,191.8,205,159.401,183.399z"/>
<polygon style="fill:#A4D9F5;" points="296.426,60 293.427,90 428.573,90 425.574,60 "/>
<polygon style="fill:#B7E0F6;" points="215.574,60 86.426,60 83.427,90 218.573,90 "/>
<path style="fill:#FCBF29;" d="M211,280v157c0,8.399-6.599,15-15,15h-45V181c2.999,0,6,0.599,8.401,2.399
	C191.8,205,211,241.3,211,280z"/>
<path style="fill:#FEDB41;" d="M369.401,183.399C367,181.599,363.999,181,361,181s-6,0.599-8.401,2.399C320.2,205,301,241.3,301,280
	v157c0,8.399,6.599,15,15,15h90c8.401,0,15-6.601,15-15V280C421,241.3,401.8,205,369.401,183.399z"/>
<path style="fill:#FCBF29;" d="M421,280v157c0,8.399-6.599,15-15,15h-45V181c2.999,0,6,0.599,8.401,2.399
	C401.8,205,421,241.3,421,280z"/>
<g>
</g>
<g>
</g>
<g>
</g>
<g>
</g>
<g>
</g>
<g>
</g>
<g>
</g>
<g>
</g>
<g>
</g>
<g>
</g>
<g>
</g>
<g>
</g>
<g>
</g>
<g>
</g>
<g>
</g>
</svg>
