<?xml version="1.0" encoding="iso-8859-1"?>
<!-- Generator: Adobe Illustrator 19.0.0, SVG Export Plug-In . SVG Version: 6.00 Build 0)  -->
<svg version="1.1" id="Capa_1" xmlns="http://www.w3.org/2000/svg" xmlns:xlink="http://www.w3.org/1999/xlink" x="0px" y="0px"
	 viewBox="0 0 512 512" style="enable-background:new 0 0 512 512;" xml:space="preserve">
<path style="fill:#B7E0F6;" d="M403.068,193.112l-29.062,8.698l-21.638-0.425l-41.577-41.577l-0.425-21.638l8.698-29.062
	c11.666-26.941,34.576-46.882,62.792-54.73c11.03-2.969,21.212-8.909,29.273-16.97l23.85-24.203
	c17.606-17.606,46.032-17.607,63.64,0c17.607,17.607,17.606,46.034,0,63.64l-23.85,24.203c-8.061,8.061-14.001,18.243-16.97,29.273
	C450.162,158.748,430.22,181.657,403.068,193.112z"/>
<path style="fill:#A4D9F5;" d="M403.068,193.112l-29.062,8.698l-21.638-0.425l-20.789-20.789l167.04-167.391
	c17.607,17.607,17.606,46.034,0,63.64l-23.85,24.203c-8.061,8.061-14.001,18.243-16.97,29.273
	C450.162,158.748,430.22,181.657,403.068,193.112z"/>
<path style="fill:#CAE8F9;" d="M337.52,301.936l-22.698,22.698l-63.64,8.91c-18.244-18.244-20.153-43.911-20.365-47.094
	c0,0,0.001-1.697-0.636-4.455c-1.06-5.727-3.82-15.698-10.819-22.697c-10.396-10.396-27.366-11.668-27.366-11.668l-23.334-31.395
	l41.578-41.578c16.122-16.122,37.123-26.517,59.397-29.698l40.729-6.788l63.64,63.64l-6.788,40.729
	C364.036,264.813,353.642,285.814,337.52,301.936z"/>
<path style="fill:#B7E0F6;" d="M337.52,301.936l-22.698,22.698l-63.64,8.91c-18.244-18.244-20.153-43.911-20.365-47.094
	c0,0,0.001-1.697-0.636-4.455L342.186,169.99l31.82,31.82l-6.788,40.729C364.036,264.813,353.642,285.814,337.52,301.936z"/>
<path style="fill:#19DEC1;" d="M314.821,324.634l-174.16,174.161c-17.606,17.606-46.032,17.607-63.64,0l-63.64-63.64
	c-17.607-17.607-17.606-46.034,0-63.64l155.281-155.281l24.819,1.485c3.183,0.212,28.85,2.121,47.094,20.365
	c6.151,6.151,10.394,13.364,13.364,20.152c5.728,12.94,6.788,24.607,6.787,26.729c0,0,1.273,16.97,11.668,27.366
	c10.182,10.182,27.152,11.455,27.365,11.667L314.821,324.634z"/>
<path style="fill:#17CEB4;" d="M314.821,324.634l-174.16,174.161c-17.606,17.606-46.032,17.607-63.64,0l-31.82-31.82L253.94,258.237
	c5.728,12.94,6.788,24.607,6.787,26.729c0,0,1.273,16.97,11.668,27.366c10.182,10.182,27.152,11.455,27.365,11.667L314.821,324.634z
	"/>
<circle style="fill:#CAE8F9;" cx="172.48" cy="318.49" r="15"/>
<circle style="fill:#B7E0F6;" cx="130.05" cy="403.34" r="15"/>
<g>
</g>
<g>
</g>
<g>
</g>
<g>
</g>
<g>
</g>
<g>
</g>
<g>
</g>
<g>
</g>
<g>
</g>
<g>
</g>
<g>
</g>
<g>
</g>
<g>
</g>
<g>
</g>
<g>
</g>
</svg>
