<?xml version="1.0" encoding="iso-8859-1"?>
<!-- Generator: Adobe Illustrator 19.0.0, SVG Export Plug-In . SVG Version: 6.00 Build 0)  -->
<svg version="1.1" id="Capa_1" xmlns="http://www.w3.org/2000/svg" xmlns:xlink="http://www.w3.org/1999/xlink" x="0px" y="0px"
	 viewBox="0 0 511.999 511.999" style="enable-background:new 0 0 511.999 511.999;" xml:space="preserve">
<path style="fill:#19DEC1;" d="M281.55,463.699c-32.1,32.1-74.401,48.3-116.7,48.3s-84.3-16.199-116.7-48.3
	c-64.2-64.501-64.2-169.2,0-233.401c40.8-40.499,98.401-56.999,154.501-44.099l62.401,62.401l60.597,60.899
	C338.549,365.299,322.049,423.2,281.55,463.699z"/>
<path style="fill:#17CEB4;" d="M281.55,463.699c-32.1,32.1-74.401,48.3-116.7,48.3s-84.3-16.199-116.7-48.3L265.051,248.6
	l60.598,60.899C338.549,365.299,322.049,423.2,281.55,463.699z"/>
<path style="fill:#A4D9F5;" d="M294.45,301.999c-27.9,33.3-66.301,27.9-89.399,6.301c-20.7-19.801-28.801-52.8-4.501-81.899
	c2.401-2.701,5.099-5.402,7.8-7.5l43.799,42.298L294.45,301.999z"/>
<path style="fill:#81C8EE;" d="M294.45,301.999c-27.9,33.3-66.301,27.9-89.399,6.301l47.098-47.1L294.45,301.999z"/>
<path style="fill:#CAE8F9;" d="M505.024,10.743c-10.8-12.599-29.7-14.399-42.299-3.9c0,0-159.275,132.857-199.775,166.457
	c-31.501-24.6-68.701-46.5-87.301-27.9c-30.3,30.3,47.701,111.299,63.6,127.2c0.3,0.3,0.601,0.601,0.901,0.899
	c14.399,14.702,72.299,69.901,108.3,69.901c6.899,0,13.2-2.1,17.999-6.899c18.602-18.6-3.3-56.1-27.9-87.599
	c7.8-9.6,166.475-199.456,166.475-199.456C514.324,38.044,514.324,21.842,505.024,10.743z"/>
<path style="fill:#B7E0F6;" d="M505.024,49.444c0,0-158.675,189.856-166.475,199.456c24.6,31.5,46.501,69,27.9,87.599
	c-4.799,4.799-11.1,6.899-17.999,6.899c-36,0-93.9-55.199-108.3-69.901L505.024,10.743
	C514.324,21.842,514.324,38.044,505.024,49.444z"/>
<g>
</g>
<g>
</g>
<g>
</g>
<g>
</g>
<g>
</g>
<g>
</g>
<g>
</g>
<g>
</g>
<g>
</g>
<g>
</g>
<g>
</g>
<g>
</g>
<g>
</g>
<g>
</g>
<g>
</g>
</svg>
