<?xml version="1.0" encoding="iso-8859-1"?>
<!-- Generator: Adobe Illustrator 19.0.0, SVG Export Plug-In . SVG Version: 6.00 Build 0)  -->
<svg version="1.1" id="Capa_1" xmlns="http://www.w3.org/2000/svg" xmlns:xlink="http://www.w3.org/1999/xlink" x="0px" y="0px"
	 viewBox="0 0 512 512" style="enable-background:new 0 0 512 512;" xml:space="preserve">
<path style="fill:#136EF1;" d="M286,0h-60c-8.401,0-15,6.599-15,15v90c0,8.399,6.599,15,15,15h60c8.401,0,15-6.601,15-15V15
	C301,6.599,294.401,0,286,0z"/>
<path style="fill:#0A4EAF;" d="M286,120h-30V0h30c8.401,0,15,6.599,15,15v90C301,113.399,294.401,120,286,120z"/>
<path style="fill:#CAE8F9;" d="M361,135v30c0,8.399-6.599,15-15,15H166c-8.401,0-15-6.601-15-15v-30c0-24.901,20.099-45,45-45h120
	C340.901,90,361,110.099,361,135z"/>
<path style="fill:#B7E0F6;" d="M361,135v30c0,8.399-6.599,15-15,15h-90V90h60C340.901,90,361,110.099,361,135z"/>
<path style="fill:#19DEC1;" d="M346,150H166c-41.4,0-75,33.6-75,75v242c0,24.899,20.099,45,45,45h240c24.901,0,45-20.101,45-45V225
	C421,183.6,387.4,150,346,150z"/>
<path style="fill:#CAE8F9;" d="M346,240H166c-8.401,0-15,6.599-15,15v152c0,8.399,6.599,15,15,15h180c8.401,0,15-6.601,15-15V255
	C361,246.599,354.401,240,346,240z"/>
<path style="fill:#19DEC1;" d="M391,15c0,8.399-6.599,15-15,15H196c-24.901,0-45,20.099-45,45c0,8.399-6.599,15-15,15
	s-15-6.601-15-15c0-41.4,33.6-75,75-75h180C384.401,0,391,6.599,391,15z"/>
<path style="fill:#17CEB4;" d="M421,225v242c0,24.899-20.099,45-45,45H256V150h90C387.4,150,421,183.6,421,225z"/>
<path style="fill:#B7E0F6;" d="M361,255v152c0,8.399-6.599,15-15,15h-90V240h90C354.401,240,361,246.599,361,255z"/>
<path style="fill:#17CEB4;" d="M391,15c0,8.399-6.599,15-15,15H256V0h120C384.401,0,391,6.599,391,15z"/>
<g>
</g>
<g>
</g>
<g>
</g>
<g>
</g>
<g>
</g>
<g>
</g>
<g>
</g>
<g>
</g>
<g>
</g>
<g>
</g>
<g>
</g>
<g>
</g>
<g>
</g>
<g>
</g>
<g>
</g>
</svg>
