<?xml version="1.0" encoding="iso-8859-1"?>
<!-- Generator: Adobe Illustrator 19.0.0, SVG Export Plug-In . SVG Version: 6.00 Build 0)  -->
<svg version="1.1" id="Capa_1" xmlns="http://www.w3.org/2000/svg" xmlns:xlink="http://www.w3.org/1999/xlink" x="0px" y="0px"
	 viewBox="0 0 512 512" style="enable-background:new 0 0 512 512;" xml:space="preserve">
<path style="fill:#FEDB41;" d="M480.2,474.3C466.399,449.099,342.1,225.5,256,225.5S46.601,449.099,32.8,474.3
	c-2.401,4.799-2.401,10.199,0.3,15c2.699,4.499,7.5,7.2,12.9,7.2h420c5.4,0,11.201-2.701,13.9-7.2
	C482.601,484.499,482.601,479.099,480.2,474.3z"/>
<path style="fill:#FCBF29;" d="M479.9,489.3c-2.699,4.499-8.5,7.2-13.9,7.2H256v-271c86.1,0,210.399,223.599,224.2,248.8
	C482.601,479.099,482.601,484.499,479.9,489.3z"/>
<path style="fill:#FD3018;" d="M512,30.5c0,8.399-6.599,15-15,15H196c-8.401,0-15-6.601-15-15c0-8.401,6.599-15,15-15h301
	C505.401,15.5,512,22.099,512,30.5z"/>
<g>
	<circle style="fill:#FEA832;" cx="196" cy="421.5" r="15"/>
	<path style="fill:#FEA832;" d="M271,361.5c0,8.399-6.599,15-15,15s-15-6.601-15-15c0-8.401,6.599-15,15-15S271,353.099,271,361.5z"
		/>
</g>
<circle style="fill:#FE9923;" cx="316" cy="421.5" r="15"/>
<path style="fill:#FEA832;" d="M512,481.5c0,8.399-6.599,15-15,15H15c-8.401,0-15-6.601-15-15c0-8.401,6.599-15,15-15h482
	C505.401,466.5,512,473.099,512,481.5z"/>
<path style="fill:#FE9923;" d="M512,481.5c0,8.399-6.599,15-15,15H256v-30h241C505.401,466.5,512,473.099,512,481.5z"/>
<path style="fill:#E61E14;" d="M512,30.5c0,8.399-6.599,15-15,15H256v-30h241C505.401,15.5,512,22.099,512,30.5z"/>
<path style="fill:#FE9923;" d="M271,361.5c0,8.399-6.599,15-15,15v-30C264.401,346.5,271,353.099,271,361.5z"/>
<path style="fill:#FD4E26;" d="M103.062,193.755C60.335,185.456,31,145.474,31,101.947V30.5c0-8.284,6.716-15,15-15h165v90
	C211,160.996,160.519,204.916,103.062,193.755z"/>
<g>
</g>
<g>
</g>
<g>
</g>
<g>
</g>
<g>
</g>
<g>
</g>
<g>
</g>
<g>
</g>
<g>
</g>
<g>
</g>
<g>
</g>
<g>
</g>
<g>
</g>
<g>
</g>
<g>
</g>
</svg>
