<?xml version="1.0" encoding="iso-8859-1"?>
<!-- Generator: Adobe Illustrator 19.0.0, SVG Export Plug-In . SVG Version: 6.00 Build 0)  -->
<svg version="1.1" id="Capa_1" xmlns="http://www.w3.org/2000/svg" xmlns:xlink="http://www.w3.org/1999/xlink" x="0px" y="0px"
	 viewBox="0 0 511.999 511.999" style="enable-background:new 0 0 511.999 511.999;" xml:space="preserve">
<path style="fill:#A4D9F5;" d="M307.185,307.185c-70.204,70.204-184.213,70.504-254.417,0c-70.206-70.206-70.506-184.213,0-254.417
	c70.204-70.206,184.213-70.506,254.417,0C377.39,122.97,377.691,236.978,307.185,307.185z"/>
<path style="fill:#81C8EE;" d="M307.185,307.185c-70.204,70.204-184.213,70.504-254.417,0L307.185,52.766
	C377.39,122.97,377.691,236.978,307.185,307.185z"/>
<path style="fill:#B7E0F6;" d="M511.999,361.988v60.004c0,51.303-77.407,90.007-180.013,90.007s-180.013-38.704-180.013-90.007
	v-60.004c0-8.402,6.599-15.001,15.001-15.001h330.024C505.4,346.987,511.999,353.587,511.999,361.988z"/>
<path style="fill:#A4D9F5;" d="M511.999,361.988v60.004c0,51.303-77.407,90.007-180.013,90.007V346.987h165.012
	C505.4,346.987,511.999,353.587,511.999,361.988z"/>
<path style="fill:#B7E0F6;" d="M331.986,271.982c-30.712,0-59.087,3.528-83.881,9.761l-4.867,41.595l142.627,88.895l64.872,18.409
	c37.909-16.248,61.262-40.526,61.262-68.653C511.999,310.672,434.606,271.982,331.986,271.982z"/>
<path style="fill:#CAE8F9;" d="M248.105,281.743c-12.644,3.179-24.313,7.069-34.87,11.593
	c-37.909,16.248-61.262,40.526-61.262,68.653c0,51.317,77.394,90.007,180.013,90.007c30.712,0,59.087-3.528,83.881-9.761
	c12.644-3.179,24.313-7.068,34.87-11.593L248.105,281.743z"/>
<g>
</g>
<g>
</g>
<g>
</g>
<g>
</g>
<g>
</g>
<g>
</g>
<g>
</g>
<g>
</g>
<g>
</g>
<g>
</g>
<g>
</g>
<g>
</g>
<g>
</g>
<g>
</g>
<g>
</g>
</svg>
