<?xml version="1.0" encoding="iso-8859-1"?>
<!-- Generator: Adobe Illustrator 19.0.0, SVG Export Plug-In . SVG Version: 6.00 Build 0)  -->
<svg version="1.1" id="Capa_1" xmlns="http://www.w3.org/2000/svg" xmlns:xlink="http://www.w3.org/1999/xlink" x="0px" y="0px"
	 viewBox="0 0 512 512" style="enable-background:new 0 0 512 512;" xml:space="preserve">
<path style="fill:#B7E0F6;" d="M406,0h-60c-8.401,0-15,6.599-15,15v91c0,8.399,6.599,15,15,15h60c8.401,0,15-6.601,15-15V15
	C421,6.599,414.401,0,406,0z"/>
<path style="fill:#A4D9F5;" d="M406,121h-30V0h30c8.401,0,15,6.599,15,15v91C421,114.399,414.401,121,406,121z"/>
<path style="fill:#CAE8F9;" d="M451,106v46l-30,30h-90l-30-30v-46c0-8.401,6.599-15,15-15h120C444.401,91,451,97.599,451,106z"/>
<path style="fill:#B7E0F6;" d="M451,106v46l-30,30h-45V91h60C444.401,91,451,97.599,451,106z"/>
<path style="fill:#CAE8F9;" d="M391,377v120c0,8.399-6.599,15-15,15s-15-6.601-15-15V377c0-8.401,6.599-15,15-15
	S391,368.599,391,377z"/>
<path style="fill:#B7E0F6;" d="M391,377v120c0,8.399-6.599,15-15,15V362C384.401,362,391,368.599,391,377z"/>
<path style="fill:#FEA832;" d="M451,152v165c0,3.9-1.5,7.8-4.501,10.499l-60,60C383.8,390.5,379.9,392,376,392
	s-7.8-1.5-10.499-4.501l-60-60C302.5,324.8,301,320.9,301,317V152H451z"/>
<path style="fill:#FE9923;" d="M451,152v165c0,3.9-1.5,7.8-4.501,10.499l-60,60C383.8,390.5,379.9,392,376,392V152H451z"/>
<path style="fill:#CAE8F9;" d="M241,347v15l-60,60c-18.9,0-35.4-6.901-45-12.301c-5.4-2.999-8.699-5.4-9-5.7
	c0,0-16.8-11.999-36-11.999c-19.501,0-36,11.999-36,11.999L31,384.5V347c0-19.501,12.599-36.301,30-42.301V227
	c0-8.401,6.599-15,15-15h120c8.401,0,15,6.599,15,15v77.699C228.401,310.699,241,327.499,241,347z"/>
<path style="fill:#B7E0F6;" d="M241,347v15l-60,60c-18.9,0-35.4-6.901-45-12.301V212h60c8.401,0,15,6.599,15,15v77.699
	C228.401,310.699,241,327.499,241,347z"/>
<path style="fill:#FEA832;" d="M241,362v105c0,24.899-20.099,45-45,45H76c-24.901,0-45-20.101-45-45v-82.5l6-4.501
	C37.899,379.1,61.601,362,91,362c18.9,0,35.4,6.899,45,12.299c5.4,3.001,8.699,5.4,9,5.7c0,0,16.8,12.001,36,12.001
	c19.501,0,36-12.001,36-12.001L241,362z"/>
<path style="fill:#FE9923;" d="M217,379.999L241,362v105c0,24.899-20.099,45-45,45h-60V374.299c5.4,3.001,8.699,5.4,9,5.7
	c0,0,16.8,12.001,36,12.001C200.501,392,217,379.999,217,379.999z"/>
<circle style="fill:#CAE8F9;" cx="106" cy="437" r="15"/>
<path style="fill:#136EF1;" d="M241,212c0,16.5-13.5,30-30,30H61c-16.5,0-30-13.5-30-30s13.5-30,30-30h150
	C227.5,182,241,195.5,241,212z"/>
<g>
	<path style="fill:#0A4EAF;" d="M211,242h-75v-60h75c16.5,0,30,13.5,30,30S227.5,242,211,242z"/>
	<path style="fill:#0A4EAF;" d="M451,212h-45c-8.284,0-15,6.714-15,15c0,8.284,6.716,15,15,15h45V212z"/>
	<path style="fill:#0A4EAF;" d="M451,272h-45c-8.284,0-15,6.714-15,15c0,8.284,6.716,15,15,15h45V272z"/>
</g>
<path style="fill:#136EF1;" d="M481,15c0,8.399-6.599,15-15,15H286c-8.401,0-15-6.601-15-15c0-8.401,6.599-15,15-15h180
	C474.401,0,481,6.599,481,15z"/>
<path style="fill:#0A4EAF;" d="M481,15c0,8.399-6.599,15-15,15h-90V0h90C474.401,0,481,6.599,481,15z"/>
<g>
</g>
<g>
</g>
<g>
</g>
<g>
</g>
<g>
</g>
<g>
</g>
<g>
</g>
<g>
</g>
<g>
</g>
<g>
</g>
<g>
</g>
<g>
</g>
<g>
</g>
<g>
</g>
<g>
</g>
</svg>
