<?xml version="1.0" encoding="iso-8859-1"?>
<!-- Generator: Adobe Illustrator 19.0.0, SVG Export Plug-In . SVG Version: 6.00 Build 0)  -->
<svg version="1.1" id="Capa_1" xmlns="http://www.w3.org/2000/svg" xmlns:xlink="http://www.w3.org/1999/xlink" x="0px" y="0px"
	 viewBox="0 0 512 512" style="enable-background:new 0 0 512 512;" xml:space="preserve">
<path style="fill:#CAE8F9;" d="M179.7,389.6c0,3.9-1.5,7.8-4.2,10.499v0.3l-65.026,65.026l-63.9-63.9L111.6,336.5h0.3
	c5.4-5.4,15.601-5.4,21,0l21.299,21.301L175.5,379.1C178.201,381.8,179.7,385.7,179.7,389.6z"/>
<path style="fill:#B7E0F6;" d="M179.7,389.6c0,3.9-1.5,7.8-4.2,10.499v0.3l-65.026,65.026l-31.8-31.8l75.525-75.826l21.301,21.299
	C178.201,381.8,179.7,385.7,179.7,389.6z"/>
<path style="fill:#CAE8F9;" d="M507.5,25.499l-77.6,77.6c-2.999,3.001-6.599,4.501-10.499,4.501s-7.8-1.5-10.499-4.501
	c-6-5.698-6-15.298,0-20.999l77.6-77.6c5.7-6,15.298-6,20.999,0C513.5,10.2,513.5,19.799,507.5,25.499z"/>
<path style="fill:#B7E0F6;" d="M507.5,25.499l-77.6,77.6c-2.999,3.001-6.599,4.501-10.499,4.501s-7.8-1.5-10.499-4.501L507.5,4.5
	C513.5,10.2,513.5,19.799,507.5,25.499z"/>
<path style="fill:#19DEC1;" d="M429.899,145.7L401.1,174.499c-2.701,2.701-6.601,4.2-10.501,4.2s-7.5-1.5-10.499-4.2L358.8,153.2
	l-21.299-21.301c-5.7-5.7-5.7-15.3,0-21L366.3,82.1c17.701-17.701,46.201-17.701,63.6,0C447.6,99.499,447.6,127.999,429.899,145.7z"
	/>
<path style="fill:#17CEB4;" d="M429.899,145.7L401.1,174.499c-2.701,2.701-6.601,4.2-10.501,4.2s-7.5-1.5-10.499-4.2L358.8,153.2
	l71.1-71.1C447.6,99.499,447.6,127.999,429.899,145.7z"/>
<polygon style="fill:#FD3018;" points="349.199,269 196.5,421.4 90.599,315.499 136.801,269 196.801,239 319.199,239 "/>
<polygon style="fill:#E61E14;" points="349.199,269 196.5,421.4 143.7,368.6 273,239 319.199,239 "/>
<path style="fill:#CAE8F9;" d="M413.099,198.799c0,3.9-1.5,7.8-4.499,10.501l-21,21.299l-31.8-1.8l10.499,22.8L349.199,269H136.801
	L302.7,103.399c2.701-2.999,6.601-4.499,10.501-4.499c27.599,0,52.5,11.1,70.8,29.099C402,146.299,413.099,171.199,413.099,198.799z
	"/>
<path style="fill:#B7E0F6;" d="M384,127.999c17.999,18.3,29.099,43.2,29.099,70.8c0,3.9-1.5,7.8-4.499,10.501l-21,21.299l-31.8-1.8
	l10.499,22.8L349.199,269H243L384,127.999z"/>
<path style="fill:#81C8EE;" d="M355.72,198.702c-5.859-5.859-15.352-5.859-21.211,0s-5.859,15.352,0,21.211l31.818,31.818
	l21.209-21.213L355.72,198.702z"/>
<path style="fill:#CAE8F9;" d="M213,314c0,8.401-6.599,15-15,15c-4.2,0-7.8-1.8-10.8-4.2c-2.4-3-4.2-6.6-4.2-10.8
	c0-8.401,6.599-15,15-15c4.2,0,7.8,1.8,10.8,4.2C211.2,306.199,213,309.799,213,314z"/>
<path style="fill:#B7E0F6;" d="M213,314c0,8.401-6.599,15-15,15c-4.2,0-7.8-1.8-10.8-4.2l21.6-21.6
	C211.2,306.199,213,309.799,213,314z"/>
<path style="fill:#A4D9F5;" d="M152.774,507.725c-5.999,5.7-15.298,5.7-21.299,0l-127.2-127.2c-5.7-6-5.7-15.3,0-21.299
	c5.999-6,15.298-6,21.299,0l127.2,127.2C158.774,492.426,158.774,501.726,152.774,507.725z"/>
<path style="fill:#81C8EE;" d="M152.774,486.426c6,6,6,15.3,0,21.299c-5.999,5.7-15.298,5.7-21.299,0l-63.6-63.6l21.299-21.299
	L152.774,486.426z"/>
<path style="fill:#A4D9F5;" d="M217.799,442.699C214.8,445.7,211.2,447.2,207.3,447.2s-7.8-1.5-10.8-4.501l-127.2-127.2
	c-5.7-6-5.7-15.599,0-21.299c5.999-6,15.298-6,21.299,0l127.2,127.2C223.8,427.4,223.8,436.7,217.799,442.699z"/>
<path style="fill:#81C8EE;" d="M217.799,421.4c6,6,6,15.3,0,21.299C214.8,445.7,211.2,447.2,207.3,447.2s-7.8-1.5-10.8-4.501
	l-63.6-63.6l21.299-21.299L217.799,421.4z"/>
<g>
</g>
<g>
</g>
<g>
</g>
<g>
</g>
<g>
</g>
<g>
</g>
<g>
</g>
<g>
</g>
<g>
</g>
<g>
</g>
<g>
</g>
<g>
</g>
<g>
</g>
<g>
</g>
<g>
</g>
</svg>
