<?xml version="1.0" encoding="iso-8859-1"?>
<!-- Generator: Adobe Illustrator 19.0.0, SVG Export Plug-In . SVG Version: 6.00 Build 0)  -->
<svg version="1.1" id="Capa_1" xmlns="http://www.w3.org/2000/svg" xmlns:xlink="http://www.w3.org/1999/xlink" x="0px" y="0px"
	 viewBox="0 0 512 512" style="enable-background:new 0 0 512 512;" xml:space="preserve">
<path style="fill:#FEDB41;" d="M511.833,105v106l-21.599,15H326.133l-24.3-15V105c0-57.9,47.1-105,105-105S511.833,47.1,511.833,105
	z"/>
<path style="fill:#FCBF29;" d="M511.833,105v106l-21.599,15h-83.401V0C464.733,0,511.833,47.1,511.833,105z"/>
<path style="fill:#FEDB41;" d="M234.532,286.368l-14.399,35.4l-72.9,32.401l-61.199,27.299l-48.9-23.099l-30.601-84.6
	c-19.799-54.6,8.101-114.901,62.701-134.7c54.3-19.801,114.598,8.399,134.399,62.699L234.532,286.368z"/>
<path style="fill:#FCBF29;" d="M220.135,321.768l14.399-35.4l-30.901-84.6c-19.801-54.3-80.098-82.5-134.399-62.699l78.131,215.041
	L220.135,321.768z"/>
<path style="fill:#19DEC1;" d="M511.833,211v105c0,57.9-47.1,105-105,105s-105-47.1-105-105V211H511.833z"/>
<path style="fill:#17CEB4;" d="M511.833,211v105c0,57.9-47.1,105-105,105V211H511.833z"/>
<path style="fill:#FD3018;" d="M202.432,505.668c-54.3,19.799-114.598-8.401-134.399-62.701l-30.899-84.598l197.399-72.001
	l30.601,84.6C284.932,425.568,257.032,485.868,202.432,505.668z"/>
<path style="fill:#E61E14;" d="M265.135,370.968l-30.601-84.6l-98.701,36l66.599,183.3
	C257.034,485.868,284.932,425.568,265.135,370.968z"/>
<g>
</g>
<g>
</g>
<g>
</g>
<g>
</g>
<g>
</g>
<g>
</g>
<g>
</g>
<g>
</g>
<g>
</g>
<g>
</g>
<g>
</g>
<g>
</g>
<g>
</g>
<g>
</g>
<g>
</g>
</svg>
