<?xml version="1.0" encoding="iso-8859-1"?>
<!-- Generator: Adobe Illustrator 19.0.0, SVG Export Plug-In . SVG Version: 6.00 Build 0)  -->
<svg version="1.1" id="Capa_1" xmlns="http://www.w3.org/2000/svg" xmlns:xlink="http://www.w3.org/1999/xlink" x="0px" y="0px"
	 viewBox="0 0 512 512" style="enable-background:new 0 0 512 512;" xml:space="preserve">
<path style="fill:#FE8821;" d="M411.226,249.161l-26.1,26.1c-10.801,10.8-14.401,26.1-9.6,40.199
	c8.399,25.201,1.8,52.202-16.8,71.102c-1.8,1.8-3.3,3.3-5.101,5.099l-40.199,8.099c-19.801-19.799-29.7-52.5-30.3-54
	c0-0.3-8.101-26.699-22.5-41.4c-9.6-9.3-24.3-16.199-33.3-19.799c-4.801-1.8-8.101-2.701-8.101-2.999
	c-1.5-0.3-34.2-10.201-54.3-30.3c-19.799-19.801-29.7-52.5-30.3-54.001l5.101-54.899c16.8-9.901,37.2-12.301,56.699-6
	c14.101,4.799,29.401,1.199,40.201-9.6l26.1-26.1c5.7-5.7,15.3-5.7,21.301,0l127.2,127.2
	C416.926,233.861,416.926,243.461,411.226,249.161z"/>
<path style="fill:#E4741B;" d="M411.226,227.861c5.7,6,5.7,15.601,0,21.301l-26.1,26.1c-10.801,10.8-14.401,26.1-9.6,40.199
	c8.399,25.201,1.8,52.202-16.8,71.102c-1.8,1.8-3.3,3.3-5.101,5.099l-40.199,8.099c-19.801-19.799-29.7-52.5-30.3-54
	c0-0.3-8.101-26.699-22.5-41.4c-9.6-9.3-24.3-16.199-33.3-19.799l120.3-120.3L411.226,227.861z"/>
<polygon style="fill:#FEDB41;" points="368.624,206.86 276.824,298.66 237.226,274.961 197.325,250.961 305.024,143.261 "/>
<polygon style="fill:#FCBF29;" points="368.624,206.86 276.824,298.66 237.226,274.961 336.824,175.061 "/>
<path style="fill:#FEA832;" d="M353.624,391.661l-22.2,22.2c-25.199,25.201-48.3,48.3-76.199,76.199
	c-29.399,29.401-77.1,29.101-106.199,0l-63.6-63.6l-63.602-63.6c-29.099-29.399-29.099-76.8,0-106.199
	c34.501-34.501,61.8-61.8,95.101-95.099c2.699-2.701,5.4-5.402,8.399-8.401c4.501-4.501,9.3-7.8,14.401-10.8
	c15,18.9,22.798,42.599,23.699,46.5c0.3,0.3,8.101,26.7,22.8,41.4c12.299,11.999,34.2,20.4,41.4,22.5c0.899,0.3,10.499,3.3,22.2,9.3
	c10.199,4.501,22.5,11.7,31.8,21c20.099,20.099,30,52.8,30.3,54.3c0.3,0,8.099,26.7,22.8,41.4
	C339.825,383.861,346.725,388.062,353.624,391.661z"/>
<path style="fill:#FE9923;" d="M334.726,378.762c5.099,5.099,11.999,9.3,18.898,12.9l-22.2,22.2
	c-25.199,25.201-48.3,48.3-76.199,76.199c-29.399,29.401-77.1,29.101-106.199,0l-63.6-63.6l164.399-164.399
	c10.199,4.501,22.5,11.7,31.8,21c20.099,20.099,30,52.8,30.3,54.3C312.226,337.362,320.024,364.062,334.726,378.762z"/>
<circle style="fill:#A4D9F5;" cx="233.99" cy="341.539" r="15"/>
<circle style="fill:#B7E0F6;" cx="149.14" cy="299.109" r="15"/>
<circle style="fill:#A4D9F5;" cx="149.14" cy="383.959" r="15"/>
<path style="fill:#0A4EAF;" d="M494.449,101.775l-72.724,73.286l-42.299-42.299l-42.601-42.599l72.726-73.288
	c22.8-22.5,62.1-22.5,84.899,0C517.85,40.275,517.85,78.374,494.449,101.775z"/>
<path style="fill:#063E8B;" d="M494.449,101.775l-72.724,73.286l-42.299-42.299L494.449,16.874
	C517.85,40.275,517.85,78.374,494.449,101.775z"/>
<path style="fill:#136EF1;" d="M453.525,185.562l-127.2-127.2c-17.401-17.701-46.199-17.701-63.6,0
	c-17.701,17.399-17.701,45.899,0,63.6l127.2,127.2c17.701,17.699,46.199,17.699,63.6,0
	C471.226,231.761,471.226,203.261,453.525,185.562z"/>
<path style="fill:#0A4EAF;" d="M453.525,249.161c-17.401,17.699-45.899,17.699-63.6,0l-63.6-63.6l63.6-63.6l63.6,63.6
	C471.226,203.261,471.226,231.761,453.525,249.161z"/>
<g>
</g>
<g>
</g>
<g>
</g>
<g>
</g>
<g>
</g>
<g>
</g>
<g>
</g>
<g>
</g>
<g>
</g>
<g>
</g>
<g>
</g>
<g>
</g>
<g>
</g>
<g>
</g>
<g>
</g>
</svg>
