<?xml version="1.0" encoding="iso-8859-1"?>
<!-- Generator: Adobe Illustrator 19.0.0, SVG Export Plug-In . SVG Version: 6.00 Build 0)  -->
<svg version="1.1" id="Capa_1" xmlns="http://www.w3.org/2000/svg" xmlns:xlink="http://www.w3.org/1999/xlink" x="0px" y="0px"
	 viewBox="0 0 512.001 512.001" style="enable-background:new 0 0 512.001 512.001;" xml:space="preserve">
<path style="fill:#FEDB41;" d="M265.5,127.001C243.6,104.8,226.8,88,204.901,66.1C158.101,19.3,81.9,19.3,35.1,66.1
	s-46.8,122.999,0,169.799C57.001,257.8,73.801,274.6,96.001,296.5c5.7,6,15.3,6,21,0l74.399-74.099L265.5,148
	C271.5,142.3,271.5,132.701,265.5,127.001z"/>
<g>
	<path style="fill:#CAE8F9;" d="M256,391.001c-24.901,0-45,20.099-45,45c0,24.899,20.099,45,45,45s45-20.101,45-45
		C301,411.1,280.901,391.001,256,391.001z"/>
	<circle style="fill:#CAE8F9;" cx="196" cy="286" r="15"/>
	<path style="fill:#CAE8F9;" d="M271,226.001c0,8.399-6.599,15-15,15s-15-6.601-15-15c0-8.401,6.599-15,15-15S271,217.6,271,226.001
		z"/>
	<circle style="fill:#CAE8F9;" cx="241" cy="331" r="15"/>
	<circle style="fill:#CAE8F9;" cx="286" cy="286" r="15"/>
	<circle style="fill:#CAE8F9;" cx="316" cy="346" r="15"/>
</g>
<path style="fill:#FCBF29;" d="M191.401,222.401l-74.4,74.099c-5.7,6-15.3,6-21,0c-22.2-21.899-39-38.699-60.901-60.601
	c-46.8-46.8-46.8-122.999,0-169.799L191.401,222.401z"/>
<path style="fill:#19DEC1;" d="M476.901,66.1c-46.8-46.8-123.001-46.8-169.801,0c-21.899,21.9-38.699,38.7-60.599,60.901
	c-6,5.7-6,15.298,0,20.999l74.099,74.401L395,296.5c5.7,6,15.3,6,21,0c22.2-21.899,39-38.699,60.901-60.601
	C523.701,189.099,523.701,112.9,476.901,66.1z"/>
<path style="fill:#17CEB4;" d="M476.901,235.899C455,257.801,438.2,274.601,416,296.5c-5.7,6-15.3,6-21,0l-74.4-74.099L476.901,66.1
	C523.701,112.9,523.701,189.099,476.901,235.899z"/>
<path style="fill:#B7E0F6;" d="M301,436.001c0,24.899-20.099,45-45,45v-90C280.901,391.001,301,411.1,301,436.001z"/>
<g>
</g>
<g>
</g>
<g>
</g>
<g>
</g>
<g>
</g>
<g>
</g>
<g>
</g>
<g>
</g>
<g>
</g>
<g>
</g>
<g>
</g>
<g>
</g>
<g>
</g>
<g>
</g>
<g>
</g>
</svg>
