<?xml version="1.0" encoding="iso-8859-1"?>
<!-- Generator: Adobe Illustrator 19.0.0, SVG Export Plug-In . SVG Version: 6.00 Build 0)  -->
<svg version="1.1" id="Capa_1" xmlns="http://www.w3.org/2000/svg" xmlns:xlink="http://www.w3.org/1999/xlink" x="0px" y="0px"
	 viewBox="0 0 512 512" style="enable-background:new 0 0 512 512;" xml:space="preserve">
<path style="fill:#FEDB41;" d="M512,407v60c0,31.199-52.8,45-105,45s-105-13.801-105-45v-60c0-8.401,6.599-15,15-15h180
	C505.401,392,512,398.599,512,407z"/>
<path style="fill:#FCBF29;" d="M512,407v60c0,31.199-52.8,45-105,45V392h90C505.401,392,512,398.599,512,407z"/>
<path style="fill:#FEA832;" d="M512,347v60c0,31.199-52.8,45-105,45s-105-13.801-105-45v-60c0-8.401,6.599-15,15-15h180
	C505.401,332,512,338.599,512,347z"/>
<path style="fill:#FE9923;" d="M512,347v60c0,31.199-52.8,45-105,45V332h90C505.401,332,512,338.599,512,347z"/>
<path style="fill:#FEDB41;" d="M512,287v60c0,31.199-52.8,45-105,45s-105-13.801-105-45v-60c0-8.401,6.599-15,15-15h180
	C505.401,272,512,278.599,512,287z"/>
<path style="fill:#FCBF29;" d="M512,287v60c0,31.199-52.8,45-105,45V272h90C505.401,272,512,278.599,512,287z"/>
<path style="fill:#FEA832;" d="M512,227v60c0,31.199-52.8,45-105,45s-105-13.801-105-45v-60c0-8.401,6.599-15,15-15h180
	C505.401,212,512,218.599,512,227z"/>
<path style="fill:#FE9923;" d="M512,227v60c0,31.199-52.8,45-105,45V212h90C505.401,212,512,218.599,512,227z"/>
<path style="fill:#FEDB41;" d="M407,182c-52.2,0-105,13.799-105,45c0,31.199,52.8,45,105,45s105-13.801,105-45
	C512,195.799,459.2,182,407,182z"/>
<path style="fill:#FD4E26;" d="M197,182v210l45,30v45c0,24.899-20.099,45-45,45H75c-24.901,0-45-20.101-45-45V75
	c0-8.401,6.599-15,15-15h182c8.401,0,15,6.599,15,15v77L197,182z"/>
<path style="fill:#FCBF29;" d="M512,227c0,31.199-52.8,45-105,45v-90C459.2,182,512,195.799,512,227z"/>
<path style="fill:#FD3018;" d="M197,182v210l45,30v45c0,24.899-20.099,45-45,45h-61V60h91c8.401,0,15,6.599,15,15v77L197,182z"/>
<path style="fill:#FEDB41;" d="M257,0H15C6.599,0,0,6.599,0,15v60c0,8.399,6.599,15,15,15h242c8.401,0,15-6.601,15-15V15
	C272,6.599,265.401,0,257,0z"/>
<path style="fill:#FCBF29;" d="M272,15v60c0,8.399-6.599,15-15,15H136V0h121C265.401,0,272,6.599,272,15z"/>
<path style="fill:#CAE8F9;" d="M242,152v270H136c-8.401,0-15-6.601-15-15V167c0-8.401,6.599-15,15-15H242z"/>
<rect x="136" y="152" style="fill:#B7E0F6;" width="106" height="270"/>
<g>
</g>
<g>
</g>
<g>
</g>
<g>
</g>
<g>
</g>
<g>
</g>
<g>
</g>
<g>
</g>
<g>
</g>
<g>
</g>
<g>
</g>
<g>
</g>
<g>
</g>
<g>
</g>
<g>
</g>
</svg>
