<?xml version="1.0" encoding="iso-8859-1"?>
<!-- Generator: Adobe Illustrator 19.0.0, SVG Export Plug-In . SVG Version: 6.00 Build 0)  -->
<svg version="1.1" id="Capa_1" xmlns="http://www.w3.org/2000/svg" xmlns:xlink="http://www.w3.org/1999/xlink" x="0px" y="0px"
	 viewBox="0 0 512 512" style="enable-background:new 0 0 512 512;" xml:space="preserve">
<polygon style="fill:#19DEC1;" points="314.192,300.763 304.591,337.67 293.189,349.072 284.187,357.772 240.68,352.372 
	184.571,322.367 201.073,280.659 232.879,263.256 261.384,247.655 304.89,238.053 "/>
<polygon style="fill:#17CEB4;" points="293.189,349.072 284.187,357.772 240.68,352.372 184.571,322.367 201.073,280.659 
	232.879,263.256 "/>
<path style="fill:#B7E0F6;" d="M511.925,496.997c0,8.4-6.6,15.003-15.003,15.003H297.389c-27.604,0-51.308-20.704-54.607-48.009
	c-3.901-30.005,7.201-60.01,29.705-79.513l38.406-9.903l34.807-9.002c-7.203,7.801-10.503,25.203-4.502,38.706
	c5.1,11.702,16.503,17.704,33.606,17.704h62.111C478.32,421.984,511.925,455.59,511.925,496.997z"/>
<path style="fill:#CAE8F9;" d="M407.208,512h-109.82c-27.604,0-51.308-20.704-54.607-48.009
	c-3.901-30.005,7.201-60.01,29.705-79.513l38.406-9.903L407.208,512z"/>
<g>
	<path style="fill:#FEDB41;" d="M342.997,367.975l-24.604,17.101l-24.604,17.404c-6.9,4.802-16.202,3.001-20.704-3.901
		c-12.001-16.503-20.704-29.404-32.404-46.207c13.202-9.302,25.203-17.404,36.605-25.804c12.003-8.102,23.405-16.204,36.905-25.805
		c11.702,16.803,20.704,29.707,32.407,46.209C351.399,353.872,349.898,363.173,342.997,367.975z"/>
	<path style="fill:#FEDB41;" d="M304.89,238.053l-60.01,42.006l-60.308,42.308c0,0-3.901-3.301-4.201-3.901L62.651,177.043
		c-2.701-3.301-3.901-7.501-3.601-11.702c0.601-4.201,3-7.801,6.302-10.201l61.51-42.909l61.51-43.207
		c3.301-2.399,7.801-3.301,11.702-2.399c4.201,0.899,7.801,3.601,9.901,7.201l93.116,158.827
		C303.991,234.452,304.591,236.253,304.89,238.053z"/>
</g>
<g>
	<path style="fill:#FCBF29;" d="M318.392,385.076l-24.604,17.404c-6.9,4.802-16.202,3.001-20.704-3.901
		c-12.001-16.503-20.704-29.404-32.404-46.207c13.202-9.302,25.203-17.404,36.605-25.804L318.392,385.076z"/>
	<path style="fill:#FCBF29;" d="M244.88,280.058l-60.308,42.308c0,0-3.901-3.301-4.201-3.901L62.651,177.042
		c-2.701-3.301-3.901-7.501-3.601-11.702c0.601-4.201,3-7.801,6.302-10.201l61.51-42.909L244.88,280.058z"/>
</g>
<path style="fill:#19DEC1;" d="M216.575,30.918c-6.302-8.702-11.102-15.604-17.103-24.604c-4.8-6.602-14.101-8.402-21.004-3.601
	l-86.115,60.31l-85.815,60.01c-6.9,4.8-8.402,14.401-3.901,21.003c6.302,9.003,11.102,15.604,17.404,24.604
	c14.101,20.403,42.306,25.205,62.71,11.102l61.211-43.207l61.51-42.907C226.178,79.225,230.677,51.02,216.575,30.918z"/>
<path style="fill:#17CEB4;" d="M92.354,63.023l51.61,73.511l-61.211,43.207c-20.403,14.103-48.608,9.302-62.71-11.102
	c-6.302-9.002-11.102-15.602-17.404-24.604c-4.502-6.6-3-16.202,3.901-21.003L92.354,63.023z"/>
<g>
</g>
<g>
</g>
<g>
</g>
<g>
</g>
<g>
</g>
<g>
</g>
<g>
</g>
<g>
</g>
<g>
</g>
<g>
</g>
<g>
</g>
<g>
</g>
<g>
</g>
<g>
</g>
<g>
</g>
</svg>
