<?xml version="1.0" encoding="iso-8859-1"?>
<!-- Generator: Adobe Illustrator 19.0.0, SVG Export Plug-In . SVG Version: 6.00 Build 0)  -->
<svg version="1.1" id="Capa_1" xmlns="http://www.w3.org/2000/svg" xmlns:xlink="http://www.w3.org/1999/xlink" x="0px" y="0px"
	 viewBox="0 0 512.001 512.001" style="enable-background:new 0 0 512.001 512.001;" xml:space="preserve">
<g>
	<circle style="fill:#FEA832;" cx="121.1" cy="150.031" r="14.996"/>
	<circle style="fill:#FEA832;" cx="91.107" cy="210.016" r="14.996"/>
</g>
<g>
	<circle style="fill:#FE9923;" cx="196.08" cy="105.043" r="14.996"/>
	<circle style="fill:#FE9923;" cx="196.08" cy="165.028" r="14.996"/>
	<circle style="fill:#FE9923;" cx="166.088" cy="225.012" r="14.996"/>
</g>
<g>
	<path style="fill:#CAE8F9;" d="M271.062,287.092l-10.797,74.08l-64.184,58.786c-25.793,0-47.689-14.397-59.985-24.594
		c-6.597-5.399-10.797-9.898-11.097-10.498c-0.3,0-23.095-24.893-48.887-24.893c-13.197,0-27.994,6.897-38.79,15.296
		c0,0,0,0-0.3,0.298c-0.3,0-0.599,0.3-0.899,0.601c0,0,0,0-0.3,0l-25.492-19.195L0.132,287.092
		c-0.601-4.199,0.901-8.699,3.599-11.998c2.998-3.299,6.897-5.098,11.397-5.098h240.938c4.5,0,8.399,1.8,11.397,5.098
		C270.162,278.394,271.663,282.893,271.062,287.092z"/>
	<path style="fill:#CAE8F9;" d="M35.806,376.316c0.132-0.104,0.287-0.192,0.419-0.297c-0.068,0.049-0.223,0.152-0.298,0.205
		C35.854,376.283,35.887,376.253,35.806,376.316z"/>
</g>
<path d="M35.806,376.316c0.132-0.104,0.287-0.192,0.419-0.297C37.655,374.966,37.787,374.746,35.806,376.316z"/>
<path style="fill:#B7E0F6;" d="M271.062,287.092l-10.797,74.08l-64.184,58.786c-25.793,0-47.689-14.397-59.985-24.594V269.997
	h119.969c4.5,0,8.399,1.8,11.397,5.098C270.162,278.394,271.663,282.893,271.062,287.092z"/>
<path style="fill:#A4D9F5;" d="M512.001,15.062v179.954c0,8.397-6.597,14.996-14.996,14.996h-44.988l-29.992-29.992V30.058
	l29.992-29.992h44.988C505.403,0.066,512.001,6.663,512.001,15.062z"/>
<path style="fill:#CAE8F9;" d="M452.016,0.066v209.946h-195.95c-5.998,0-11.397-3.599-13.797-9.298
	c-2.398-5.699-1.199-11.998,3.3-16.197l19.194-19.494l-19.194-19.496c-5.998-5.699-5.998-15.296,0-20.995l19.194-19.494
	l-19.194-19.496c-5.998-5.699-5.998-15.296,0-20.995l19.194-19.494l-19.194-19.496c-4.5-4.199-5.699-10.496-3.3-16.195
	c2.4-5.699,7.798-9.298,13.797-9.298L452.016,0.066L452.016,0.066z"/>
<path style="fill:#FEDB41;" d="M229.073,377.968c-8.397,5.998-20.395,11.998-32.991,11.998c-25.793,0-48.588-24.895-48.887-24.895
	c-0.3-0.601-4.5-5.098-11.097-10.496c-12.296-10.198-34.191-24.594-59.985-24.594c-22.194,0-42.089,10.496-55.286,20.395
	c-3.299,2.4-6.897,4.498-10.496,6.597l4.198,30.893l15.597,111.172c1.199,7.498,7.498,12.897,14.996,12.897h180.954
	c7.498,0,13.797-5.399,14.996-12.897l14.095-102.475l5.1-35.391C247.968,365.372,237.171,371.671,229.073,377.968z"/>
<path style="fill:#FCBF29;" d="M260.266,361.172l-5.1,35.391l-14.095,102.475c-1.199,7.498-7.498,12.897-14.996,12.897h-89.977
	v-157.36c6.597,5.399,10.797,9.896,11.097,10.496c0.3,0,23.095,24.895,48.887,24.895c12.596,0,24.594-5.998,32.991-11.998
	C237.171,371.671,247.968,365.372,260.266,361.172z"/>
<path style="fill:#81C8EE;" d="M512.001,105.039v89.977c0,8.397-6.597,14.996-14.996,14.996h-44.988l-29.992-29.992v-74.981
	C422.024,105.039,512.001,105.039,512.001,105.039z"/>
<path style="fill:#B7E0F6;" d="M452.016,105.039v104.973h-195.95c-5.998,0-11.397-3.599-13.797-9.298
	c-2.398-5.699-1.199-11.998,3.3-16.197l19.194-19.494l-19.194-19.496c-5.998-5.699-5.998-15.296,0-20.995l19.194-19.494H452.016z"/>
<g>
</g>
<g>
</g>
<g>
</g>
<g>
</g>
<g>
</g>
<g>
</g>
<g>
</g>
<g>
</g>
<g>
</g>
<g>
</g>
<g>
</g>
<g>
</g>
<g>
</g>
<g>
</g>
<g>
</g>
</svg>
