<?xml version="1.0" encoding="iso-8859-1"?>
<!-- Generator: Adobe Illustrator 19.0.0, SVG Export Plug-In . SVG Version: 6.00 Build 0)  -->
<svg version="1.1" id="Capa_1" xmlns="http://www.w3.org/2000/svg" xmlns:xlink="http://www.w3.org/1999/xlink" x="0px" y="0px"
	 viewBox="0 0 512 512" style="enable-background:new 0 0 512 512;" xml:space="preserve">
<path style="fill:#FEDB41;" d="M406,0H106C81.099,0,61,20.099,61,45v422c0,24.901,20.099,45,45,45h300c24.901,0,45-20.099,45-45V45
	C451,20.099,430.901,0,406,0z"/>
<path style="fill:#FCBF29;" d="M451,45v422c0,24.901-20.099,45-45,45H256V0h150C430.901,0,451,20.099,451,45z"/>
<path style="fill:#FEA832;" d="M271,75v362c0,8.401-6.599,15-15,15s-15-6.599-15-15V75c0-8.401,6.599-15,15-15S271,66.599,271,75z"
	/>
<path style="fill:#FE8821;" d="M271,75v362c0,8.401-6.599,15-15,15V60C264.401,60,271,66.599,271,75z"/>
<path style="fill:#CAE8F9;" d="M166,60c-24.901,0-45,20.099-45,45s20.099,45,45,45s45-20.099,45-45S190.901,60,166,60z"/>
<path style="fill:#B7E0F6;" d="M211,105c0,24.901-20.099,45-45,45V60C190.901,60,211,80.099,211,105z"/>
<path style="fill:#CAE8F9;" d="M346,60c-24.901,0-45,20.099-45,45s20.099,45,45,45s45-20.099,45-45S370.901,60,346,60z"/>
<path style="fill:#B7E0F6;" d="M391,105c0,24.901-20.099,45-45,45V60C370.901,60,391,80.099,391,105z"/>
<path style="fill:#CAE8F9;" d="M166,211c-24.901,0-45,20.099-45,45s20.099,45,45,45s45-20.099,45-45S190.901,211,166,211z"/>
<path style="fill:#B7E0F6;" d="M211,256c0,24.901-20.099,45-45,45v-90C190.901,211,211,231.099,211,256z"/>
<path style="fill:#CAE8F9;" d="M346,211c-24.901,0-45,20.099-45,45s20.099,45,45,45s45-20.099,45-45S370.901,211,346,211z"/>
<path style="fill:#B7E0F6;" d="M391,256c0,24.901-20.099,45-45,45v-90C370.901,211,391,231.099,391,256z"/>
<path style="fill:#CAE8F9;" d="M166,362c-24.901,0-45,20.099-45,45s20.099,45,45,45s45-20.099,45-45S190.901,362,166,362z"/>
<path style="fill:#B7E0F6;" d="M211,407c0,24.901-20.099,45-45,45v-90C190.901,362,211,382.099,211,407z"/>
<path style="fill:#CAE8F9;" d="M346,362c-24.901,0-45,20.099-45,45s20.099,45,45,45s45-20.099,45-45S370.901,362,346,362z"/>
<path style="fill:#B7E0F6;" d="M391,407c0,24.901-20.099,45-45,45v-90C370.901,362,391,382.099,391,407z"/>
<g>
</g>
<g>
</g>
<g>
</g>
<g>
</g>
<g>
</g>
<g>
</g>
<g>
</g>
<g>
</g>
<g>
</g>
<g>
</g>
<g>
</g>
<g>
</g>
<g>
</g>
<g>
</g>
<g>
</g>
</svg>
