<?xml version="1.0" encoding="iso-8859-1"?>
<!-- Generator: Adobe Illustrator 19.0.0, SVG Export Plug-In . SVG Version: 6.00 Build 0)  -->
<svg version="1.1" id="Capa_1" xmlns="http://www.w3.org/2000/svg" xmlns:xlink="http://www.w3.org/1999/xlink" x="0px" y="0px"
	 viewBox="0 0 512 512" style="enable-background:new 0 0 512 512;" xml:space="preserve">
<path style="fill:#CAE8F9;" d="M451.099,116.748c-3.3,27.301-26.999,48.001-54.598,48.001H75c-8.401,0-15-6.601-15-15
	c0-41.4,33.6-75,75-75h184.1c10.8,0,17.999-7.5,20.7-13.801c1.5-3.6,4.499-11.999-2.401-19.499c-3.6-3.9-4.799-9.6-2.999-14.702
	c1.8-5.099,6-9,11.4-9.899c27.299-5.101,54.899,2.1,75.599,20.4C443.899,56.748,454.999,86.748,451.099,116.748z"/>
<path style="fill:#B7E0F6;" d="M451.099,116.748c-3.3,27.301-26.999,48.001-54.598,48.001H256v-90h63.1
	c10.8,0,17.999-7.5,20.7-13.801c1.5-3.6,4.499-11.999-2.401-19.499c-3.6-3.9-4.799-9.6-2.999-14.702c1.8-5.099,6-9,11.4-9.899
	c27.299-5.101,54.899,2.1,75.599,20.4C443.899,56.748,454.999,86.748,451.099,116.748z"/>
<path style="fill:#136EF1;" d="M437,134.75H75c-24.901,0-45,20.099-45,45v30c0,8.399,6.599,15,15,15h422c8.401,0,15-6.601,15-15v-30
	C482,154.849,461.901,134.75,437,134.75z"/>
<path style="fill:#0A4EAF;" d="M482,179.75v30c0,8.399-6.599,15-15,15H256v-90h181C461.901,134.75,482,154.849,482,179.75z"/>
<path style="fill:#FEA832;" d="M497,194.75H15c-8.401,0-15,6.599-15,15v212c0,41.4,33.6,75,75,75h362c41.4,0,75-33.6,75-75v-212
	C512,201.349,505.401,194.75,497,194.75z"/>
<path style="fill:#FE9923;" d="M512,209.75v212c0,41.4-33.6,75-75,75H256v-302h241C505.401,194.75,512,201.349,512,209.75z"/>
<path style="fill:#CAE8F9;" d="M407,254.75H105c-8.401,0-15,6.599-15,15v152c0,8.399,6.599,15,15,15h302c8.401,0,15-6.601,15-15
	v-152C422,261.349,415.401,254.75,407,254.75z"/>
<path style="fill:#B7E0F6;" d="M422,269.75v152c0,8.399-6.599,15-15,15H256v-182h151C415.401,254.75,422,261.349,422,269.75z"/>
<g>
</g>
<g>
</g>
<g>
</g>
<g>
</g>
<g>
</g>
<g>
</g>
<g>
</g>
<g>
</g>
<g>
</g>
<g>
</g>
<g>
</g>
<g>
</g>
<g>
</g>
<g>
</g>
<g>
</g>
</svg>
