<?xml version="1.0" encoding="iso-8859-1"?>
<!-- Generator: Adobe Illustrator 19.0.0, SVG Export Plug-In . SVG Version: 6.00 Build 0)  -->
<svg version="1.1" id="Capa_1" xmlns="http://www.w3.org/2000/svg" xmlns:xlink="http://www.w3.org/1999/xlink" x="0px" y="0px"
	 viewBox="0 0 512 512" style="enable-background:new 0 0 512 512;" xml:space="preserve">
<path style="fill:#FD3018;" d="M377,60v91h-60V75c0-8.401-6.599-15-15-15h-92c-8.401,0-15,6.599-15,15v76h-60V60
	c0-33.001,27.001-60,60-60h122C349.999,0,377,26.999,377,60z"/>
<path style="fill:#E61E14;" d="M302,60h-46V0h61c32.999,0,60,26.999,60,60v91h-60V75C317,66.599,310.401,60,302,60z"/>
<path style="fill:#CAE8F9;" d="M512,166v45l-30,30H30L0,211v-45c0-24.901,20.099-45,45-45h422C491.901,121,512,141.099,512,166z"/>
<path style="fill:#B7E0F6;" d="M512,166v45l-30,30H256V121h211C491.901,121,512,141.099,512,166z"/>
<polygon style="fill:#FD4E26;" points="512,211 512,397.4 397.4,512 114.6,512 0,397.4 0,211 "/>
<polygon style="fill:#FD3018;" points="512,211 512,397.4 397.4,512 256,512 256,211 "/>
<path style="fill:#136EF1;" d="M437,181h-60c-8.401,0-15,6.599-15,15v60c0,24.899,20.099,45,45,45s45-20.101,45-45v-60
	C452,187.599,445.401,181,437,181z"/>
<path style="fill:#CAE8F9;" d="M332,362c0,8.399-6.599,15-15,15h-46v45c0,8.399-6.599,15-15,15s-15-6.601-15-15v-45h-46
	c-8.401,0-15-6.601-15-15c0-8.401,6.599-15,15-15h46v-46c0-8.401,6.599-15,15-15s15,6.599,15,15v46h46
	C325.401,347,332,353.599,332,362z"/>
<path style="fill:#B7E0F6;" d="M332,362c0,8.399-6.599,15-15,15h-46v45c0,8.399-6.599,15-15,15V286c8.401,0,15,6.599,15,15v46h46
	C325.401,347,332,353.599,332,362z"/>
<path style="fill:#FD3018;" d="M30,392c-10.571,0-20.57,2.166-30,5.528V467c0,24.814,20.186,45,45,45h69.472
	c3.362-9.43,5.528-19.429,5.528-30C120,432.371,79.629,392,30,392z"/>
<path style="fill:#E61E14;" d="M512,467v-69.472c-9.43-3.362-19.429-5.528-30-5.528c-49.629,0-90,40.371-90,90
	c0,10.571,2.168,20.57,5.53,30H467C491.814,512,512,491.814,512,467z"/>
<path style="fill:#0A4EAF;" d="M452,196v60c0,24.899-20.099,45-45,45V181h30C445.401,181,452,187.599,452,196z"/>
<path style="fill:#136EF1;" d="M135,181H75c-8.401,0-15,6.599-15,15v60c0,24.899,20.099,45,45,45s45-20.101,45-45v-60
	C150,187.599,143.401,181,135,181z"/>
<path style="fill:#0A4EAF;" d="M150,196v60c0,24.899-20.099,45-45,45V181h30C143.401,181,150,187.599,150,196z"/>
<g>
</g>
<g>
</g>
<g>
</g>
<g>
</g>
<g>
</g>
<g>
</g>
<g>
</g>
<g>
</g>
<g>
</g>
<g>
</g>
<g>
</g>
<g>
</g>
<g>
</g>
<g>
</g>
<g>
</g>
</svg>
