<?xml version="1.0" encoding="iso-8859-1"?>
<!-- Generator: Adobe Illustrator 19.0.0, SVG Export Plug-In . SVG Version: 6.00 Build 0)  -->
<svg version="1.1" id="Capa_1" xmlns="http://www.w3.org/2000/svg" xmlns:xlink="http://www.w3.org/1999/xlink" x="0px" y="0px"
	 viewBox="0 0 512 512" style="enable-background:new 0 0 512 512;" xml:space="preserve">
<path style="fill:#19DEC1;" d="M473.5,2.1c-4.501-2.701-10.201-2.701-15,0c-60,34.199-135,34.199-195,0
	C261.099,0.599,258.401,0,256,0s-5.099,0.599-7.5,2.1c-60,34.199-135,34.199-195,0c-4.799-2.701-10.499-2.701-15,0
	C33.701,4.799,31,9.6,31,15v182.1c0,139.499,88.5,266.899,219.901,313.999C252.7,511.7,254.2,512,256,512c1.8,0,3.3-0.3,5.099-0.901
	C392.5,463.999,481,336.599,481,197.1V15C481,9.6,478.299,4.799,473.5,2.1z"/>
<path style="fill:#17CEB4;" d="M481,15v182.1c0,139.499-88.5,266.899-219.901,313.999C259.3,511.7,257.8,512,256,512V0
	c2.401,0,5.099,0.599,7.5,2.1c60,34.199,135,34.199,195,0c4.799-2.701,10.499-2.701,15,0C478.299,4.799,481,9.6,481,15z"/>
<path style="fill:#FD4E26;" d="M331,165v92l-15,15H197.199L181,257v-92c0-41.4,33.6-75,75-75S331,123.6,331,165z"/>
<path style="fill:#FD3018;" d="M331,165v92l-15,15h-60V90C297.4,90,331,123.6,331,165z"/>
<path style="fill:#CAE8F9;" d="M331,257v90c0,41.4-33.6,75-75,75s-75-33.6-75-75v-90H331z"/>
<path style="fill:#B7E0F6;" d="M331,257v90c0,41.4-33.6,75-75,75V257H331z"/>
<g>
</g>
<g>
</g>
<g>
</g>
<g>
</g>
<g>
</g>
<g>
</g>
<g>
</g>
<g>
</g>
<g>
</g>
<g>
</g>
<g>
</g>
<g>
</g>
<g>
</g>
<g>
</g>
<g>
</g>
</svg>
