<?xml version="1.0" encoding="iso-8859-1"?>
<!-- Generator: Adobe Illustrator 19.0.0, SVG Export Plug-In . SVG Version: 6.00 Build 0)  -->
<svg version="1.1" id="Capa_1" xmlns="http://www.w3.org/2000/svg" xmlns:xlink="http://www.w3.org/1999/xlink" x="0px" y="0px"
	 viewBox="0 0 512 512" style="enable-background:new 0 0 512 512;" xml:space="preserve">
<path style="fill:#FEA832;" d="M451,15v46l-31.199,15H91L61,61V15c0-8.401,6.599-15,15-15h360C444.401,0,451,6.599,451,15z"/>
<path style="fill:#FE9923;" d="M451,15v46l-31.199,15H256V0h180C444.401,0,451,6.599,451,15z"/>
<path style="fill:#FEA832;" d="M451,451v46c0,8.399-6.599,15-15,15H76c-8.401,0-15-6.601-15-15v-46l38.699-15H428.5L451,451z"/>
<path style="fill:#FE9923;" d="M428.5,436l22.5,15v46c0,8.399-6.599,15-15,15H256v-76H428.5z"/>
<path style="fill:#FEDB41;" d="M481,256c0,61.199-10.499,136.8-30,195H61c-19.501-58.2-30-133.801-30-195
	c0-61.201,10.499-136.8,30-195h390C470.501,119.2,481,194.799,481,256z"/>
<path style="fill:#FCBF29;" d="M481,256c0,61.199-10.499,136.8-30,195H256V61h195C470.501,119.2,481,194.799,481,256z"/>
<path style="fill:#17CEB4;" d="M292.599,207.4L256,270.099l-11.1,18.9c-4.801,0.3-9.3,0.601-13.801,0.601
	c-66.599,0-107.699-33.9-121.8-100.501C104.801,167.5,106.3,137.8,106.3,136.3c0.3-7.8,6.899-14.101,14.7-14.101
	c62.701-0.601,107.1-0.899,135,17.1C275.501,151.3,287.199,172,292.599,207.4z"/>
<g>
	<path style="fill:#11AD94;" d="M252.089,254.521c-3.574,0-7.163-1.274-10.034-3.853c-16.802-15.103-36.401-29.121-58.242-41.66
		c-7.178-4.116-9.668-13.286-5.537-20.479c4.116-7.192,13.271-9.683,20.479-5.537c23.657,13.579,44.985,28.843,63.369,45.381
		c6.152,5.537,6.665,15.015,1.113,21.182C260.277,252.851,256.19,254.521,252.089,254.521z"/>
	<path style="fill:#11AD94;" d="M292.599,207.4L256,270.099V139.3C275.501,151.3,287.199,172,292.599,207.4z"/>
</g>
<path style="fill:#19DEC1;" d="M415.901,196.3c-0.3-7.8-6.901-14.101-14.7-14.101C327.7,181.599,283.001,181,256,207.1
	c-0.3,0.3-0.601,0.601-0.901,0.899C230.799,232,226,272.8,226,331c0,4.499,1.8,9,5.099,11.999c3.9,2.701,8.101,3.9,12.601,2.701
	c0,0,5.099,0.601,12.299,1.199c10.499,1.201,25.499,2.401,35.099,2.401c43.801,0,103.5-14.099,121.8-100.201
	C417.7,227.5,415.901,197.8,415.901,196.3z"/>
<g>
	<path style="fill:#17CEB4;" d="M338.5,268.9c-39.3,22.5-65.4,46.5-82.5,66.301C239.801,354.4,231.7,369.7,227.5,377.5
		c-8.399,15.899-19.2,16.8-26.999,9.3c-5.402-5.4-6-14.099-1.501-20.099c14.701-26.701,32.4-51.302,57-74.402
		c18.3-17.098,40.201-33.6,67.5-49.199c7.2-4.2,16.5-1.8,20.4,5.4C348.1,255.7,345.7,265,338.5,268.9z"/>
	<path style="fill:#17CEB4;" d="M412.899,249.099C394.6,335.2,334.9,349.3,291.099,349.3c-9.6,0-24.6-1.199-35.099-2.401V207.1
		c27.001-26.1,71.7-25.501,145.201-24.901c7.798,0,14.399,6.301,14.7,14.101C415.901,197.8,417.7,227.5,412.899,249.099z"/>
</g>
<path style="fill:#11AD94;" d="M338.5,268.9c-39.3,22.5-65.4,46.5-82.5,66.301v-42.902c18.3-17.098,40.201-33.6,67.5-49.199
	c7.2-4.2,16.5-1.8,20.4,5.4C348.1,255.7,345.7,265,338.5,268.9z"/>
<g>
</g>
<g>
</g>
<g>
</g>
<g>
</g>
<g>
</g>
<g>
</g>
<g>
</g>
<g>
</g>
<g>
</g>
<g>
</g>
<g>
</g>
<g>
</g>
<g>
</g>
<g>
</g>
<g>
</g>
</svg>
