<?xml version="1.0" encoding="iso-8859-1"?>
<!-- Generator: Adobe Illustrator 19.0.0, SVG Export Plug-In . SVG Version: 6.00 Build 0)  -->
<svg version="1.1" id="Capa_1" xmlns="http://www.w3.org/2000/svg" xmlns:xlink="http://www.w3.org/1999/xlink" x="0px" y="0px"
	 viewBox="0 0 512 512" style="enable-background:new 0 0 512 512;" xml:space="preserve">
<path style="fill:#FEA832;" d="M458.233,116.832l-56.092,85.787c-3.001,4.5-7.799,6.9-12.599,6.9H244.264
	c-4.199,0-8.698-1.8-11.698-5.699c-5.098-6.3-4.198-15.599,2.401-20.997L393.742,54.741c6.6-5.399,15.899-4.198,21.298,2.1
	l19.796,20.097l19.197,19.197C460.932,100.635,462.731,109.934,458.233,116.832z"/>
<path style="fill:#FE9923;" d="M458.233,116.832l-56.092,85.787c-3.001,4.5-7.799,6.9-12.599,6.9h-87.986L434.835,76.938
	l19.197,19.197C460.932,100.635,462.731,109.934,458.233,116.832z"/>
<path style="fill:#A4D9F5;" d="M316.953,421.488H195.971c-41.394,0-75.989,33.595-75.989,74.989c0,8.398,6.598,14.998,14.998,14.998
	h241.964c8.4,0,14.998-6.6,14.998-14.998C391.942,455.083,358.347,421.488,316.953,421.488z"/>
<path style="fill:#81C8EE;" d="M391.942,496.476c0,8.398-6.598,14.998-14.998,14.998H255.962v-89.987h60.991
	C358.347,421.488,391.942,455.083,391.942,496.476z"/>
<path style="fill:#CAE8F9;" d="M481.928,209.519v44.993c0,107.683-88.286,196.971-195.971,196.971h-59.991
	c-107.685,0-195.971-89.288-195.971-196.971v-44.993L481.928,209.519L481.928,209.519z"/>
<path style="fill:#B7E0F6;" d="M481.928,209.519v44.993c0,107.683-88.286,196.971-195.971,196.971h-29.996V209.519L481.928,209.519
	L481.928,209.519z"/>
<path style="fill:#A4D9F5;" d="M511.924,209.519c0,16.498-13.498,29.996-29.996,29.996H29.996C13.498,239.515,0,226.017,0,209.519
	s13.498-29.996,29.996-29.996h451.933C498.426,179.523,511.924,193.022,511.924,209.519z"/>
<path style="fill:#81C8EE;" d="M511.924,209.519c0,16.498-13.498,29.996-29.996,29.996H255.962v-59.991h225.966
	C498.426,179.523,511.924,193.022,511.924,209.519z"/>
<path style="fill:#FD3018;" d="M300.955,346.499c0,8.398-6.598,14.998-14.998,14.998H270.96v14.998
	c0,8.398-6.598,14.998-14.998,14.998s-14.998-6.6-14.998-14.998v-14.998h-14.998c-8.4,0-14.998-6.6-14.998-14.998
	c0-8.4,6.598-14.998,14.998-14.998h14.998v-14.998c0-8.4,6.598-14.998,14.998-14.998s14.998,6.598,14.998,14.998v14.998h14.998
	C294.357,331.501,300.955,338.099,300.955,346.499z"/>
<path style="fill:#E61E14;" d="M255.962,391.492v-89.987c8.4,0,14.998,6.598,14.998,14.998v14.998h14.998
	c8.4,0,14.998,6.598,14.998,14.998c0,8.398-6.598,14.998-14.998,14.998H270.96v14.998
	C270.96,384.892,264.362,391.492,255.962,391.492z"/>
<path style="fill:#FEDB41;" d="M498.726,55.642l-21.298-21.298l-20.996-20.997c-17.097-17.095-46.793-17.095-63.591,0
	c-17.698,17.398-17.698,45.894,0,63.591l20.996,21.298l21.298,20.997c17.398,17.696,45.892,17.696,63.591,0
	C516.424,101.834,516.424,73.338,498.726,55.642z"/>
<path style="fill:#FCBF29;" d="M498.726,119.232c-17.698,17.696-46.192,17.696-63.591,0l-21.298-20.997l63.591-63.891l21.298,21.297
	C516.424,73.338,516.424,101.834,498.726,119.232z"/>
<g>
</g>
<g>
</g>
<g>
</g>
<g>
</g>
<g>
</g>
<g>
</g>
<g>
</g>
<g>
</g>
<g>
</g>
<g>
</g>
<g>
</g>
<g>
</g>
<g>
</g>
<g>
</g>
<g>
</g>
</svg>
