<?xml version="1.0" encoding="iso-8859-1"?>
<!-- Generator: Adobe Illustrator 19.0.0, SVG Export Plug-In . SVG Version: 6.00 Build 0)  -->
<svg version="1.1" id="Capa_1" xmlns="http://www.w3.org/2000/svg" xmlns:xlink="http://www.w3.org/1999/xlink" x="0px" y="0px"
	 viewBox="0 0 512 512" style="enable-background:new 0 0 512 512;" xml:space="preserve">
<path style="fill:#19DEC1;" d="M436,0H76C51.099,0,31,21.099,31,46v421c0,24.901,20.099,45,45,45h360c24.901,0,45-20.099,45-45V46
	C481,21.099,460.901,0,436,0z"/>
<path style="fill:#17CEB4;" d="M481,46v421c0,24.901-20.099,45-45,45H256V0h180C460.901,0,481,21.099,481,46z"/>
<path style="fill:#11AD94;" d="M271,76v361c0,8.401-6.599,15-15,15s-15-6.599-15-15V76c0-8.401,6.599-15,15-15S271,67.599,271,76z"
	/>
<path style="fill:#11AD93;" d="M271,76v361c0,8.401-6.599,15-15,15V61C264.401,61,271,67.599,271,76z"/>
<path style="fill:#CAE8F9;" d="M180.399,357.8c-22.8-22.8-62.699-43.5-84.899-21.299c-22.202,22.2-1.501,62.098,21.299,84.899
	c15.901,15.9,39.901,30.9,60.901,30.9c8.699,0,17.1-3.001,24-9.6C223.9,420.2,203.2,380.6,180.399,357.8z"/>
<path style="fill:#B7E0F6;" d="M201.7,442.7c-6.899,6.599-15.3,9.6-24,9.6c-21,0-45-15-60.901-30.901
	c-22.8-22.8-43.5-62.699-21.299-84.899L201.7,442.7z"/>
<path style="fill:#CAE8F9;" d="M180.399,221.8c-22.8-22.8-62.699-43.5-84.899-21.299c-22.202,22.2-1.501,62.098,21.299,84.899
	c15.901,15.9,39.901,30.9,60.901,30.9c8.699,0,17.1-3.001,24-9.6C223.9,284.2,203.2,244.6,180.399,221.8z"/>
<path style="fill:#B7E0F6;" d="M201.7,306.7c-6.899,6.599-15.3,9.6-24,9.6c-21,0-45-15-60.901-30.901
	c-22.8-22.8-43.5-62.699-21.299-84.899L201.7,306.7z"/>
<path style="fill:#CAE8F9;" d="M180.399,86.8C157.599,64,117.7,43.3,95.5,65.501c-22.202,22.2-1.501,62.098,21.299,84.899
	c15.901,15.9,39.901,30.9,60.901,30.9c8.699,0,17.1-3.001,24-9.6C223.9,149.2,203.2,109.6,180.399,86.8z"/>
<path style="fill:#B7E0F6;" d="M201.7,171.7c-6.899,6.599-15.3,9.6-24,9.6c-21,0-45-15-60.901-30.901
	c-22.8-22.8-43.5-62.699-21.299-84.899L201.7,171.7z"/>
<path style="fill:#CAE8F9;" d="M390.399,357.8c-22.8-22.8-62.699-43.5-84.899-21.299c-22.202,22.2-1.501,62.098,21.299,84.899
	c15.901,15.9,39.901,30.9,60.901,30.9c8.699,0,17.1-3.001,24-9.6C433.9,420.2,413.2,380.6,390.399,357.8z"/>
<path style="fill:#B7E0F6;" d="M411.7,442.7c-6.899,6.599-15.3,9.6-24,9.6c-21,0-45-15-60.901-30.901
	c-22.8-22.8-43.5-62.699-21.299-84.899L411.7,442.7z"/>
<path style="fill:#CAE8F9;" d="M390.399,221.8c-22.8-22.8-62.699-43.5-84.899-21.299c-22.202,22.2-1.501,62.098,21.299,84.899
	c15.901,15.9,39.901,30.9,60.901,30.9c8.699,0,17.1-3.001,24-9.6C433.9,284.2,413.2,244.6,390.399,221.8z"/>
<path style="fill:#B7E0F6;" d="M411.7,306.7c-6.899,6.599-15.3,9.6-24,9.6c-21,0-45-15-60.901-30.901
	c-22.8-22.8-43.5-62.699-21.299-84.899L411.7,306.7z"/>
<path style="fill:#CAE8F9;" d="M390.399,86.8C367.599,64,327.7,43.3,305.5,65.501c-22.202,22.2-1.501,62.098,21.299,84.899
	c15.901,15.9,39.901,30.9,60.901,30.9c8.699,0,17.1-3.001,24-9.6C433.9,149.2,413.2,109.6,390.399,86.8z"/>
<path style="fill:#B7E0F6;" d="M411.7,171.7c-6.899,6.599-15.3,9.6-24,9.6c-21,0-45-15-60.901-30.901
	c-22.8-22.8-43.5-62.699-21.299-84.899L411.7,171.7z"/>
<g>
</g>
<g>
</g>
<g>
</g>
<g>
</g>
<g>
</g>
<g>
</g>
<g>
</g>
<g>
</g>
<g>
</g>
<g>
</g>
<g>
</g>
<g>
</g>
<g>
</g>
<g>
</g>
<g>
</g>
</svg>
