<?xml version="1.0" encoding="iso-8859-1"?>
<!-- Generator: Adobe Illustrator 19.0.0, SVG Export Plug-In . SVG Version: 6.00 Build 0)  -->
<svg version="1.1" id="Capa_1" xmlns="http://www.w3.org/2000/svg" xmlns:xlink="http://www.w3.org/1999/xlink" x="0px" y="0px"
	 viewBox="0 0 512 512" style="enable-background:new 0 0 512 512;" xml:space="preserve">
<path style="fill:#FEA832;" d="M136,0c-8.291,0-15,6.709-15,15v45c0,6.782,4.556,12.715,11.104,14.487l96.138,25.884L271,0H136z"/>
<path style="fill:#B7E0F6;" d="M316,13.2C314.801,5.7,308.5,0,301,0h-73.2L211,133.2c-0.3,4.199,0.901,8.399,3.6,11.699
	C217.599,148.2,221.8,150,226,150h90c4.2,0,8.401-1.8,11.4-5.101c2.699-3.3,3.9-7.5,3.6-11.699L316,13.2z"/>
<path style="fill:#A4D9F5;" d="M316,150h-45V0h30c7.5,0,13.801,5.7,15,13.2l15,120c0.3,4.199-0.901,8.399-3.6,11.699
	C324.401,148.2,320.2,150,316,150z"/>
<path style="fill:#CAE8F9;" d="M346,135v45l-30,30h-90l-30-30v-45c0-8.401,6.599-15,15-15h120C339.401,120,346,126.599,346,135z"/>
<path style="fill:#B7E0F6;" d="M316,210h-45v-90h60c8.401,0,15,6.599,15,15v45L316,210z"/>
<path style="fill:#FEA832;" d="M376,330v92l15,30v15c0,24.899-20.099,45-45,45H196c-24.901,0-45-20.101-45-45V279
	c0-20.099,9.901-38.699,26.7-49.799L196,216.9V180h150v36.899l18.3,12.301c16.8,11.1,26.7,29.7,26.7,49.799v21L376,330z"/>
<path style="fill:#FE9923;" d="M376,330v92l15,30v15c0,24.899-20.099,45-45,45h-75V180h75v36.899l18.3,12.301
	c16.8,11.1,26.7,29.7,26.7,49.799v21L376,330z"/>
<path style="fill:#CAE8F9;" d="M391,300v152H256c-8.101,0-15-6.601-15-15V315c0-8.401,6.899-15,15-15H391z"/>
<rect x="271" y="300" style="fill:#B7E0F6;" width="120" height="152"/>
<g>
</g>
<g>
</g>
<g>
</g>
<g>
</g>
<g>
</g>
<g>
</g>
<g>
</g>
<g>
</g>
<g>
</g>
<g>
</g>
<g>
</g>
<g>
</g>
<g>
</g>
<g>
</g>
<g>
</g>
</svg>
