<?xml version="1.0" encoding="iso-8859-1"?>
<!-- Generator: Adobe Illustrator 19.0.0, SVG Export Plug-In . SVG Version: 6.00 Build 0)  -->
<svg version="1.1" id="Capa_1" xmlns="http://www.w3.org/2000/svg" xmlns:xlink="http://www.w3.org/1999/xlink" x="0px" y="0px"
	 viewBox="0 0 512 512" style="enable-background:new 0 0 512 512;" xml:space="preserve">
<path style="fill:#FE9923;" d="M376.994,422.005c-8.291,0-14.999-6.709-14.999-14.999c0-8.291,6.709-14.999,14.999-14.999
	c57.888,0,104.995-47.107,104.995-104.995c0-24.813-20.185-44.998-44.998-44.998h-59.997c-8.291,0-14.999-6.709-14.999-14.999
	s6.709-14.999,14.999-14.999h59.997c41.351,0,74.996,33.645,74.996,74.996C511.987,361.451,451.433,422.005,376.994,422.005z"/>
<path style="fill:#FEDB41;" d="M376.994,182.017H15.012c-8.401,0-14.999,6.599-14.999,14.999v209.989
	C0.013,464.902,48.111,512,106.008,512h180.991c57.897,0,104.995-47.098,104.995-104.995V197.016
	C391.993,188.615,385.394,182.017,376.994,182.017z"/>
<path style="fill:#FCBF29;" d="M391.993,197.016v209.989c0,57.897-47.098,104.995-104.995,104.995h-90.995V182.017h180.991
	C385.394,182.017,391.993,188.615,391.993,197.016z"/>
<path style="fill:#19DEC1;" d="M299.898,257.313c-0.3-7.8-6.899-14.1-14.699-14.1c-35.698-0.3-65.498-0.601-89.195,1.8
	c-26.399,3.3-45.899,9.9-60.598,24.599c-20.998,20.999-29.398,55.496-29.398,122.395c0,4.499,1.8,9,5.099,11.998
	c3.9,2.701,8.101,3.9,12.6,2.701c2.699,0,6.599,0.601,12.298,1.199c9,0.901,21.598,2.401,35.998,2.401c7.5,0,15.598-0.3,23.999-1.5
	c40.199-5.4,85.596-27.3,100.896-98.696C301.698,288.51,299.898,258.813,299.898,257.313z"/>
<g>
	<path style="fill:#17CEB4;" d="M296.898,310.108c-15.299,71.396-60.697,93.296-100.896,98.696V245.013
		c23.698-2.401,53.497-2.1,89.195-1.8c7.8,0,14.398,6.301,14.699,14.1C299.898,258.813,301.698,288.51,296.898,310.108z"/>
	<path style="fill:#17CEB4;" d="M221.501,329.908c-9.3,5.4-17.698,10.799-25.498,15.898c-57.897,39.598-80.696,79.196-88.796,93.296
		c-2.1,4.199-3.6,6.299-5.4,8.399c-2.999,3.001-6.899,4.501-10.799,4.501s-7.5-1.5-10.498-4.2c-5.7-5.4-6-14.098-1.201-20.098
		l1.8-3.301c9.9-17.097,38.399-67.497,114.895-113.994c3.3-2.1,6.899-4.199,10.498-6.299c7.202-4.2,16.5-1.8,20.401,5.4
		C231.1,316.709,228.702,326.008,221.501,329.908z"/>
</g>
<g>
	<path style="fill:#B7E0F6;" d="M111.002,148.195c-2.051-1.831-19.994-19.559-19.994-42.175s17.943-39.344,19.994-41.175
		c2.549-2.344,10.004-11.971,10.004-19.822c0-8.188-7.896-16.933-10.004-18.822c-6.167-5.522-6.694-15.014-1.172-21.181
		c5.551-6.182,15.058-6.68,21.181-1.172c2.051,1.831,19.994,18.559,19.994,41.175s-17.943,40.344-19.994,42.175
		c-2.549,2.344-10.004,10.971-10.004,18.822c0,8.188,7.896,17.933,10.004,19.822c6.167,5.522,6.694,15.014,1.172,21.181
		C126.656,153.207,117.15,153.711,111.002,148.195z"/>
	<path style="fill:#B7E0F6;" d="M220.902,125.92c6.299,5.4,6.899,14.999,1.199,20.998c-5.4,6.301-14.999,6.901-20.999,1.201
		c-0.599-0.601-2.699-2.401-5.099-5.4c-6-6.901-14.999-20.8-14.999-36.698c0-15.9,9-28.8,14.999-35.698
		c2.401-3.001,4.501-4.801,5.099-5.4c2.401-2.401,9.9-12.099,9.9-19.899c0-8.101-7.8-16.799-9.9-18.899
		c-3.3-3.001-5.099-6.899-5.099-11.099c0-3.6,1.199-7.2,3.9-9.9c5.4-6.301,14.999-6.899,20.999-1.199
		c2.1,1.8,20.098,18.599,20.098,41.098s-17.998,40.298-20.098,42.098c-2.401,2.401-9.901,11.099-9.901,18.899
		C211.002,114.118,218.802,123.82,220.902,125.92z"/>
	<path style="fill:#B7E0F6;" d="M291.993,148.195c-2.051-1.831-19.994-19.559-19.994-42.175s17.943-39.344,19.994-41.175
		c2.549-2.344,10.004-11.971,10.004-19.822c0-8.188-7.896-16.933-10.004-18.822c-6.167-5.522-6.694-15.014-1.172-21.181
		c5.537-6.182,15.058-6.68,21.181-1.172c2.051,1.831,19.994,18.559,19.994,41.175s-17.943,40.344-19.994,42.175
		c-2.549,2.344-10.005,10.971-10.005,18.822c0,8.188,7.896,17.933,10.005,19.822c6.167,5.522,6.694,15.014,1.172,21.181
		C307.646,153.207,298.141,153.711,291.993,148.195z"/>
</g>
<path style="fill:#11AD94;" d="M221.501,329.908c-9.3,5.4-17.698,10.799-25.498,15.898v-35.398c3.3-2.1,6.899-4.199,10.498-6.299
	c7.202-4.2,16.5-1.8,20.401,5.4C231.1,316.709,228.702,326.008,221.501,329.908z"/>
<g>
</g>
<g>
</g>
<g>
</g>
<g>
</g>
<g>
</g>
<g>
</g>
<g>
</g>
<g>
</g>
<g>
</g>
<g>
</g>
<g>
</g>
<g>
</g>
<g>
</g>
<g>
</g>
<g>
</g>
</svg>
