<?xml version="1.0" encoding="iso-8859-1"?>
<!-- Generator: Adobe Illustrator 19.0.0, SVG Export Plug-In . SVG Version: 6.00 Build 0)  -->
<svg version="1.1" id="Capa_1" xmlns="http://www.w3.org/2000/svg" xmlns:xlink="http://www.w3.org/1999/xlink" x="0px" y="0px"
	 viewBox="0 0 512 512" style="enable-background:new 0 0 512 512;" xml:space="preserve">
<path style="fill:#CAE8F9;" d="M365.3,230.999L311.901,284.4l-60,30H172.4l-30-30l138.001-138.3c5.999-5.7,15.298-5.7,21.299,0
	l63.6,63.6C371.3,215.698,371.3,225.298,365.3,230.999z"/>
<path style="fill:#B7E0F6;" d="M365.3,209.7c6,5.999,6,15.599,0,21.299L311.901,284.4l-60,30H197l136.5-136.5L365.3,209.7z"/>
<path style="fill:#0A4EAF;" d="M494.299,17.1c-22.5-22.8-62.098-22.8-84.598,0L323,103.799c-6,5.7-6,15.3,0,21.301l63.6,63.6
	c2.699,2.699,6.599,4.2,10.499,4.2s7.8-1.501,10.501-4.2l86.699-86.7C505.699,90.6,512,75.6,512,59.401
	C512,43.499,505.699,28.499,494.299,17.1z"/>
<path style="fill:#CAE8F9;" d="M87.499,444.899l-62,62.601c-5.7,6-15.298,6-20.999,0c-6-5.7-6-15.3,0-21l62-62.601
	c5.7-5.999,15.298-5.999,20.999,0C93.5,429.598,93.5,439.199,87.499,444.899z"/>
<path style="fill:#B7E0F6;" d="M87.499,423.898c6,5.7,6,15.3,0,21l-62,62.601c-5.7,6-15.298,6-20.999,0L87.499,423.898z"/>
<path style="fill:#063E8B;" d="M512,59.399c0,16.199-6.301,31.199-17.701,42.599l-86.699,86.7c-2.701,2.699-6.601,4.2-10.501,4.2
	s-7.8-1.501-10.499-4.2l-31.8-31.8L494.299,17.1C505.699,28.499,512,43.499,512,59.399z"/>
<path style="fill:#19DEC1;" d="M311.901,284.399L172.7,423.898c-2.1,1.8-4.501,3.301-7.2,3.9l-84.6,21
	c-1.199,0.601-2.701,0.601-3.9,0.601c-3.9,0-7.5-1.5-10.499-4.501c-3.6-3.6-5.101-9-3.9-14.099L83.9,345.898
	c0.601-2.701,1.8-5.099,3.9-6.899l54.6-54.6L311.901,284.399L311.901,284.399z"/>
<path style="fill:#17CEB4;" d="M227,284.399h84.901L172.7,423.898c-2.1,1.8-4.501,3.301-7.2,3.9l-84.6,21
	c-1.199,0.601-2.701,0.601-3.9,0.601c-3.9,0-7.5-1.5-10.499-4.501L227,284.399z"/>
<path style="fill:#136EF1;" d="M418.4,177.9l-84.9-84.901c-17.699-17.401-46.199-17.401-63.6,0.3
	c-17.699,17.401-17.699,45.899,0,63.6l42.301,42.299l42.599,42.599c17.401,17.401,45.899,17.401,63.6,0
	C435.801,224.099,436.099,195.599,418.4,177.9z"/>
<path style="fill:#0A4EAF;" d="M418.4,241.798c-17.701,17.401-46.199,17.401-63.6,0l-42.599-42.599l63.898-63.6L418.4,177.9
	C436.099,195.599,435.801,224.099,418.4,241.798z"/>
<g>
</g>
<g>
</g>
<g>
</g>
<g>
</g>
<g>
</g>
<g>
</g>
<g>
</g>
<g>
</g>
<g>
</g>
<g>
</g>
<g>
</g>
<g>
</g>
<g>
</g>
<g>
</g>
<g>
</g>
</svg>
