<?xml version="1.0" encoding="iso-8859-1"?>
<!-- Generator: Adobe Illustrator 19.0.0, SVG Export Plug-In . SVG Version: 6.00 Build 0)  -->
<svg version="1.1" id="Capa_1" xmlns="http://www.w3.org/2000/svg" xmlns:xlink="http://www.w3.org/1999/xlink" x="0px" y="0px"
	 viewBox="0 0 512 512" style="enable-background:new 0 0 512 512;" xml:space="preserve">
<polygon style="fill:#FD3018;" points="362.037,121 362.037,211 332.037,241 60.037,241 30.037,211 30.037,121 "/>
<polygon style="fill:#E61E14;" points="362.037,121 362.037,211 332.037,241 196.037,241 196.037,121 "/>
<path style="fill:#FD3018;" d="M362.037,422v45c0,24.901-20.099,45-45,45h-242c-24.901,0-45-20.099-45-45v-45l30-30h272L362.037,422
	z"/>
<path style="fill:#E61E14;" d="M332.037,392l30,30v45c0,24.901-20.099,45-45,45h-121V392H332.037z"/>
<rect x="30.04" y="211" style="fill:#CAE8F9;" width="332" height="211"/>
<rect x="196.04" y="211" style="fill:#B7E0F6;" width="166" height="211"/>
<path style="fill:#FD3018;" d="M241.037,317c0,8.401-6.599,15-15,15h-15v15c0,8.401-6.599,15-15,15s-15-6.599-15-15v-15h-15
	c-8.401,0-16-6.599-16-15s7.599-15,16-15h15v-15c0-8.401,6.599-15,15-15s15,6.599,15,15v15h15
	C234.438,302,241.037,308.599,241.037,317z"/>
<path style="fill:#E61E14;" d="M196.037,362v-90c8.401,0,15,6.599,15,15v15h15c8.401,0,15,6.599,15,15s-6.599,15-15,15h-15v15
	C211.037,355.401,204.438,362,196.037,362z"/>
<path style="fill:#136EF1;" d="M347.037,0h-302c-24.901,0-45,20.099-45,45v91c0,8.401,6.599,15,15,15h362c8.401,0,15-6.599,15-15V45
	C392.037,20.099,371.938,0,347.037,0z"/>
<path style="fill:#0A4EAF;" d="M392.037,45v91c0,8.401-6.599,15-15,15h-181V0h151C371.938,0,392.037,20.099,392.037,45z"/>
<path style="fill:#063E8B;" d="M272.037,0v91c0,8.291,6.709,15,15,15s15-6.709,15-15V0H272.037z"/>
<g>
	<path style="fill:#0A4EAF;" d="M211.037,0v91c0,8.401-6.599,15-15,15s-15-6.599-15-15V0H211.037z"/>
	<path style="fill:#0A4EAF;" d="M90.037,0v91c0,8.291,6.709,15,15,15s15-6.709,15-15V0H90.037z"/>
</g>
<path style="fill:#063E8B;" d="M196.037,106V0h15v91C211.037,99.401,204.438,106,196.037,106z"/>
<path style="fill:#FEDB41;" d="M481.136,481.099c-40.8,41.102-107.399,41.102-148.198,0c-41.102-40.8-41.102-107.399,0-148.198
	c40.8-41.102,107.399-41.102,148.198,0C522.238,373.7,522.238,440.3,481.136,481.099z"/>
<path style="fill:#FCBF29;" d="M481.136,481.099c-40.8,41.102-107.399,41.102-148.198,0l148.198-148.198
	C522.238,373.7,522.238,440.3,481.136,481.099z"/>
<g>
</g>
<g>
</g>
<g>
</g>
<g>
</g>
<g>
</g>
<g>
</g>
<g>
</g>
<g>
</g>
<g>
</g>
<g>
</g>
<g>
</g>
<g>
</g>
<g>
</g>
<g>
</g>
<g>
</g>
</svg>
