<?xml version="1.0" encoding="iso-8859-1"?>
<!-- Generator: Adobe Illustrator 19.0.0, SVG Export Plug-In . SVG Version: 6.00 Build 0)  -->
<svg version="1.1" id="Capa_1" xmlns="http://www.w3.org/2000/svg" xmlns:xlink="http://www.w3.org/1999/xlink" x="0px" y="0px"
	 viewBox="0 0 512.001 512.001" style="enable-background:new 0 0 512.001 512.001;" xml:space="preserve">
<path style="fill:#FEDBAB;" d="M493.117,449.9l-155.2,55.8c-7.2,2.701-14.399,4.501-21.899,5.7c-3.6,0.3-7.5,0.601-11.4,0.601
	h-87.299c-13.801,0-27.9-3.3-40.201-9.6c0,0-37.8-18.9-40.499-20.099l-4.501-121.8l0.3-0.3c17.999-17.701,36.899-25.801,54-27.601
	c21.301-2.699,40.501,3.9,54,14.101c13.801,9.901,29.401,15.3,45.3,15.3h46.201c16.5,0,30,13.5,30,30s-13.5,30-30,30h-75.901
	c-8.401,0-15,6.599-15,15c0,8.399,6.599,15,15,15h75.901c22.2,0,41.398-12.301,51.599-30l87.4-27.9c15-6,32.999,1.8,39,16.8
	C515.917,426.2,508.417,443.599,493.117,449.9z"/>
<path style="fill:#CAE8F9;" d="M391.017,75v91l-15,15h-118.8l-16.199-15V75c0-41.4,33.6-75,75-75S391.017,33.6,391.017,75z"/>
<path style="fill:#B7E0F6;" d="M391.017,75v91l-15,15h-60V0C357.417,0,391.017,33.6,391.017,75z"/>
<path style="fill:#FD3018;" d="M391.017,166v91c0,41.4-33.6,75-75,75s-75-33.6-75-75v-91H391.017z"/>
<path style="fill:#E61E14;" d="M391.017,166v91c0,41.4-33.6,75-75,75V166H391.017z"/>
<path style="fill:#17CEB4;" d="M106.017,512h-91c-8.291,0-15-6.709-15-15V347c0-8.291,6.709-15,15-15h91c24.814,0,45,20.186,45,45
	v90C151.017,491.814,130.832,512,106.017,512z"/>
<g>
</g>
<g>
</g>
<g>
</g>
<g>
</g>
<g>
</g>
<g>
</g>
<g>
</g>
<g>
</g>
<g>
</g>
<g>
</g>
<g>
</g>
<g>
</g>
<g>
</g>
<g>
</g>
<g>
</g>
</svg>
