<?xml version="1.0" encoding="iso-8859-1"?>
<!-- Generator: Adobe Illustrator 19.0.0, SVG Export Plug-In . SVG Version: 6.00 Build 0)  -->
<svg version="1.1" id="Capa_1" xmlns="http://www.w3.org/2000/svg" xmlns:xlink="http://www.w3.org/1999/xlink" x="0px" y="0px"
	 viewBox="0 0 512 512" style="enable-background:new 0 0 512 512;" xml:space="preserve">
<path style="fill:#136EF1;" d="M286,0h-60c-24.901,0-45,20.099-45,45v91c0,8.399,6.599,15,15,15h120c8.401,0,15-6.601,15-15V45
	C331,20.099,310.901,0,286,0z"/>
<path style="fill:#0A4EAF;" d="M316,151h-60V0h30c24.901,0,45,20.099,45,45v91C331,144.399,324.401,151,316,151z"/>
<path style="fill:#CAE8F9;" d="M376,241H136c-8.401,0-15,6.599-15,15v120c0,8.399,6.599,15,15,15h240c8.401,0,15-6.601,15-15V256
	C391,247.599,384.401,241,376,241z"/>
<path style="fill:#B7E0F6;" d="M391,256v120c0,8.399-6.599,15-15,15H256V241h120C384.401,241,391,247.599,391,256z"/>
<g>
	<path style="fill:#19DEC1;" d="M301,316c0,8.399-6.599,15-15,15h-60c-8.401,0-15-6.601-15-15c0-8.401,6.599-15,15-15h60
		C294.401,301,301,307.599,301,316z"/>
	<path style="fill:#19DEC1;" d="M416.499,155.499l-30-30C383.8,122.5,379.9,121,376,121H136c-3.9,0-7.8,1.5-10.499,4.499l-30,30
		C92.5,158.2,91,162.1,91,166v60c0,3.9,1.5,7.8,4.501,10.499l30,30C128.2,269.5,132.1,271,136,271h240c3.9,0,7.8-1.5,10.499-4.501
		l30-30C419.5,233.8,421,229.9,421,226v-60C421,162.1,419.5,158.2,416.499,155.499z"/>
	<path style="fill:#19DEC1;" d="M416.499,395.499l-30-30C383.8,362.5,379.9,361,376,361H136c-3.9,0-7.8,1.5-10.499,4.499l-30,30
		C92.5,398.2,91,402.1,91,406v61c0,3.9,1.5,7.8,4.501,10.499l30,30C128.2,510.5,132.1,512,136,512h240c3.9,0,7.8-1.5,10.499-4.501
		l30-30C419.5,474.8,421,470.9,421,467v-61C421,402.1,419.5,398.2,416.499,395.499z"/>
</g>
<g>
	<path style="fill:#17CEB4;" d="M286,331h-30v-30h30c8.401,0,15,6.599,15,15C301,324.399,294.401,331,286,331z"/>
	<path style="fill:#17CEB4;" d="M421,166v60c0,3.9-1.5,7.8-4.501,10.499l-30,30C383.8,269.5,379.9,271,376,271H256V121h120
		c3.9,0,7.8,1.5,10.499,4.499l30,30C419.5,158.2,421,162.1,421,166z"/>
	<path style="fill:#17CEB4;" d="M416.499,395.499C419.5,398.2,421,402.1,421,406v61c0,3.9-1.5,7.8-4.501,10.499l-30,30
		C383.8,510.5,379.9,512,376,512H256V361h120c3.9,0,7.8,1.5,10.499,4.499L416.499,395.499z"/>
</g>
<g>
</g>
<g>
</g>
<g>
</g>
<g>
</g>
<g>
</g>
<g>
</g>
<g>
</g>
<g>
</g>
<g>
</g>
<g>
</g>
<g>
</g>
<g>
</g>
<g>
</g>
<g>
</g>
<g>
</g>
</svg>
