<?xml version="1.0" encoding="iso-8859-1"?>
<!-- Generator: Adobe Illustrator 19.0.0, SVG Export Plug-In . SVG Version: 6.00 Build 0)  -->
<svg version="1.1" id="Capa_1" xmlns="http://www.w3.org/2000/svg" xmlns:xlink="http://www.w3.org/1999/xlink" x="0px" y="0px"
	 viewBox="0 0 512.001 512.001" style="enable-background:new 0 0 512.001 512.001;" xml:space="preserve">
<path style="fill:#CAE8F9;" d="M395.086,223.144l-29.693,29.693c2.4,6.897,4.199,12.296,6.6,19.497
	c8.998,27.293,2.098,56.686-18.297,76.783c-1.8,2.1-3.599,3.599-5.399,5.699l-35.692-5.401L209.428,452.591l5.399,35.692
	c-3.599,3.599-6.897,6.899-10.798,10.499c-17.397,17.397-45.889,17.695-63.586,0L13.273,371.611
	c-17.697-17.697-17.697-46.191,0-63.586c54.288-54.288,95.378-95.678,149.666-149.668c20.094-20.395,49.79-27.293,76.783-18.296
	c7.198,2.4,12.596,4.199,19.497,6.6c10.798-10.799,18.896-18.896,29.693-29.693c5.999-5.699,15.297-5.699,21.296,0l42.289,42.589
	l42.589,42.289C400.785,207.848,400.785,217.146,395.086,223.144z"/>
<path style="fill:#B7E0F6;" d="M395.086,201.849c5.699,5.999,5.699,15.297,0,21.296l-29.693,29.693
	c2.4,6.897,4.199,12.296,6.6,19.497c8.998,27.293,2.098,56.686-18.297,76.783c-1.8,2.1-3.599,3.599-5.399,5.699l-35.692-5.401
	L209.428,452.592l5.399,35.692c-3.599,3.599-6.897,6.899-10.798,10.499c-17.397,17.397-45.889,17.695-63.586,0l-63.586-63.586
	L352.496,159.56L395.086,201.849z"/>
<path style="fill:#CAE8F9;" d="M507.761,25.592l-10.798-10.497L486.467,4.298c-5.1-4.8-12.899-5.699-18.896-1.8
	c-43.791,28.494-79.383,52.084-123.173,80.879c-7.798,5.098-9.298,16.195-2.398,23.094l63.586,63.586
	c6.897,6.897,17.995,5.699,23.094-2.4c28.794-43.789,52.388-79.378,80.882-123.168C513.459,38.49,512.561,30.692,507.761,25.592z"/>
<g>
	<path style="fill:#19DEC1;" d="M348.297,354.816c-47.688,47.688-86.68,86.38-133.47,133.469l-95.378-95.678
		c-5.998-5.699-5.998-15.295,0-20.994l112.175-112.177c2.7-2.998,6.6-4.498,10.499-4.498s7.798,1.5,10.497,4.498L348.297,354.816z"
		/>
	<path style="fill:#19DEC1;" d="M509.3,433.959c0-0.298-0.298-0.298-0.298-0.599L466.11,311.886
		c-2.098-5.998-8.097-8.998-14.096-8.998c-5.999,0-11.998,3-14.096,8.998l-43.19,122.072c-1.8,5.699-2.7,11.697-2.7,17.997
		c0,32.992,26.995,59.986,59.986,59.986s59.986-26.995,59.986-59.986C512.001,445.656,511.1,439.657,509.3,433.959z"/>
</g>
<g>
	<path style="fill:#17CEB4;" d="M512.001,451.956c0,32.992-26.995,59.986-59.986,59.986V302.888c5.999,0,11.998,3,14.096,8.998
		l42.892,121.473c0,0.3,0.298,0.3,0.298,0.599C511.1,439.657,512.001,445.656,512.001,451.956z"/>
	<path style="fill:#17CEB4;" d="M252.619,259.435l95.678,95.38c-47.688,47.688-86.68,86.38-133.47,133.469l-95.378-95.678
		L252.619,259.435z"/>
</g>
<path style="fill:#B7E0F6;" d="M509.56,44.488c-28.494,43.791-52.087,79.38-80.882,123.168c-5.098,8.099-16.195,9.298-23.094,2.4
	l-31.793-31.793L496.964,15.096l10.798,10.497C512.561,30.692,513.459,38.49,509.56,44.488z"/>
<path style="fill:#19DEC1;" d="M458.672,180.555L331.501,53.384c-5.999-5.699-15.595-5.699-21.294,0l-42.591,42.589
	c-5.699,5.699-5.699,15.297,0,20.995l63.886,63.884l63.586,63.586c3,2.7,6.6,4.199,10.499,4.199s7.798-1.5,10.497-4.199
	l42.589-42.589C464.371,196.151,464.371,186.552,458.672,180.555z"/>
<path style="fill:#17CEB4;" d="M458.672,201.849l-42.589,42.589c-2.698,2.7-6.598,4.199-10.497,4.199s-7.498-1.5-10.499-4.199
	l-63.586-63.586l63.586-63.884l63.586,63.586C464.371,186.552,464.371,196.151,458.672,201.849z"/>
<g>
</g>
<g>
</g>
<g>
</g>
<g>
</g>
<g>
</g>
<g>
</g>
<g>
</g>
<g>
</g>
<g>
</g>
<g>
</g>
<g>
</g>
<g>
</g>
<g>
</g>
<g>
</g>
<g>
</g>
</svg>
