<?xml version="1.0" encoding="iso-8859-1"?>
<!-- Generator: Adobe Illustrator 19.0.0, SVG Export Plug-In . SVG Version: 6.00 Build 0)  -->
<svg version="1.1" id="Capa_1" xmlns="http://www.w3.org/2000/svg" xmlns:xlink="http://www.w3.org/1999/xlink" x="0px" y="0px"
	 viewBox="0 0 512.001 512.001" style="enable-background:new 0 0 512.001 512.001;" xml:space="preserve">
<path style="fill:#136EF1;" d="M256.861,301.975V421.91l14.992,29.984v14.992c0,24.888-20.088,44.976-44.976,44.976H44.976
	C20.088,511.862,0,491.774,0,466.886V268.293c0-30.882,12.592-60.866,34.482-82.753c16.19-16.493,25.485-38.981,25.485-61.768
	V106.08c0-8.396,6.595-14.992,14.992-14.992h121.934c8.396,0,14.992,6.595,14.992,14.992v17.691
	c0,22.786,9.295,45.274,25.485,61.767c21.89,21.888,34.482,51.872,34.482,82.754v2.7L256.861,301.975z"/>
<path style="fill:#0A4EAF;" d="M256.861,301.975V421.91l14.992,29.984v14.992c0,24.888-20.088,44.976-44.976,44.976h-90.951V91.089
	h60.967c8.396,0,14.992,6.595,14.992,14.992v17.691c0,22.786,9.295,45.274,25.485,61.767c21.89,21.887,34.482,51.871,34.482,82.753
	v2.7L256.861,301.975z"/>
<path style="fill:#CAE8F9;" d="M509.024,361.943l-42.276,14.992l37.18,14.992c-1.799,10.195-4.198,20.088-6.895,29.984
	l-30.284,14.992l20.989,14.992c-5.697,15.892-12.294,31.783-20.389,47.375l-1.799,3.298c-2.4,5.397-7.796,9.295-13.794,9.295
	h-90.251c-6.595,0-12.592-4.499-14.391-10.794c-0.3-1.2-1.2-2.4-2.099-4.198c-10.794-20.389-43.177-82.156-43.177-179.903
	c0-8.396,6.595-14.992,14.992-14.992h180.203c9.295,0,16.491,8.694,14.692,17.691C511.723,333.758,510.525,347.852,509.024,361.943z
	"/>
<path style="fill:#B7E0F6;" d="M509.024,361.943l-42.276,14.992l37.18,14.992c-1.799,10.195-4.198,20.088-6.895,29.984
	l-30.284,14.992l20.989,14.992c-5.697,15.892-12.294,31.783-20.389,47.375l-1.799,3.298c-2.4,5.397-7.796,9.295-13.794,9.295H406.78
	V301.976h90.251c9.295,0,16.491,8.694,14.692,17.691C511.723,333.758,510.525,347.852,509.024,361.943z"/>
<path style="fill:#FD4E26;" d="M181.902,0.139h-91.95c-24.888,0-44.976,20.088-44.976,44.976v60.967
	c0,8.396,6.595,14.992,14.992,14.992h151.918c8.396,0,14.992-6.595,14.992-14.992V45.114
	C226.877,20.227,206.789,0.139,181.902,0.139z"/>
<path style="fill:#FEDB41;" d="M271.853,270.992v180.902h-166.91c-8.396,0-14.992-6.595-14.992-14.992V285.984
	c0-8.396,6.595-14.992,14.992-14.992H271.853z"/>
<path style="fill:#FD3018;" d="M211.885,121.073h-75.959V0.139h45.975c24.888,0,44.976,20.088,44.976,44.976v60.967
	C226.877,114.478,220.282,121.073,211.885,121.073z"/>
<rect x="135.926" y="270.993" style="fill:#FCBF29;" width="135.926" height="180.902"/>
<g>
	<path style="fill:#81C8EE;" d="M421.772,376.935c0,8.286,6.705,14.992,14.992,14.992h67.189c1.914-9.947,3.878-19.876,5.02-29.984
		h-72.209C428.477,361.943,421.772,368.648,421.772,376.935z"/>
	<path style="fill:#81C8EE;" d="M421.772,436.902c0,8.286,6.705,14.992,14.992,14.992h51.053c3.596-9.874,6.548-19.907,9.328-29.984
		h-60.381C428.477,421.91,421.772,428.616,421.772,436.902z"/>
</g>
<g>
</g>
<g>
</g>
<g>
</g>
<g>
</g>
<g>
</g>
<g>
</g>
<g>
</g>
<g>
</g>
<g>
</g>
<g>
</g>
<g>
</g>
<g>
</g>
<g>
</g>
<g>
</g>
<g>
</g>
</svg>
