<?xml version="1.0" encoding="iso-8859-1"?>
<!-- Generator: Adobe Illustrator 19.0.0, SVG Export Plug-In . SVG Version: 6.00 Build 0)  -->
<svg version="1.1" id="Capa_1" xmlns="http://www.w3.org/2000/svg" xmlns:xlink="http://www.w3.org/1999/xlink" x="0px" y="0px"
	 viewBox="0 0 512.001 512.001" style="enable-background:new 0 0 512.001 512.001;" xml:space="preserve">
<path style="fill:#CAE8F9;" d="M416.951,311.6l-26.1,31.199c-67.5,33.3-100.499,15-134.7-7.5c-2.701-1.8-5.4-3.9-8.401-5.7
	c-35.698-24-71.999-32.1-107.999-24.6l-36.599-19.2c13.499-33.6,37.798-62.699,70.199-81.599c4.801-2.701,7.8-7.2,7.8-12.001v-104.9
	c-17.401-6-30-22.8-30-42.299c0-24.901,20.099-45,45-45h120c24.901,0,45,20.099,45,45c0,19.499-12.599,36.299-30,42.299V191.3
	c0,5.099,2.401,9.901,6.301,12.299C379.451,227.3,407.051,266.6,416.951,311.6z"/>
<path style="fill:#B7E0F6;" d="M416.951,311.6l-26.1,31.199c-67.5,33.3-100.499,15-134.7-7.5V0h60c24.901,0,45,20.099,45,45
	c0,19.499-12.599,36.299-30,42.299V191.3c0,5.099,2.401,9.901,6.301,12.299C379.451,227.3,407.051,266.6,416.951,311.6z"/>
<path style="fill:#FEA832;" d="M420.85,342.8c0,10.8-0.3,22.2-2.1,33.3c-11.4,65.7-62.399,118.801-127.2,132.301
	c-11.7,2.399-23.399,3.6-35.099,3.6h-0.3c-37.8,0-74.399-12.9-104.099-36.901C113.35,443.599,91.15,396.799,91.15,347
	c0-7.5,0.601-15,1.5-22.2c1.8-13.5,5.4-26.4,10.501-39.001C113.35,281.6,123.25,278,133.751,275.9
	c40.801-9.001,82.2-1.201,122.401,23.399c2.701,1.5,5.7,3.3,8.401,5.099c50.999,34.2,101.999,36.301,152.399,7.202
	C419.05,321.799,420.55,332,420.85,342.8z"/>
<path style="fill:#FE9923;" d="M420.85,342.8c0,10.8-0.3,22.2-2.1,33.3c-11.4,65.7-62.399,118.801-127.2,132.301
	c-11.7,2.399-23.399,3.6-35.099,3.6h-0.3V299.299c2.701,1.5,5.7,3.3,8.401,5.099c50.999,34.2,101.999,36.301,152.399,7.202
	C419.05,321.799,420.55,332,420.85,342.8z"/>
<circle style="fill:#CAE8F9;" cx="226.15" cy="377" r="15"/>
<circle style="fill:#B7E0F6;" cx="316.15" cy="407" r="15"/>
<g>
	<circle style="fill:#CAE8F9;" cx="226.15" cy="437" r="15"/>
	<circle style="fill:#CAE8F9;" cx="166.15" cy="347" r="15"/>
</g>
<g>
</g>
<g>
</g>
<g>
</g>
<g>
</g>
<g>
</g>
<g>
</g>
<g>
</g>
<g>
</g>
<g>
</g>
<g>
</g>
<g>
</g>
<g>
</g>
<g>
</g>
<g>
</g>
<g>
</g>
</svg>
