<?xml version="1.0" encoding="iso-8859-1"?>
<!-- Generator: Adobe Illustrator 19.0.0, SVG Export Plug-In . SVG Version: 6.00 Build 0)  -->
<svg version="1.1" id="Capa_1" xmlns="http://www.w3.org/2000/svg" xmlns:xlink="http://www.w3.org/1999/xlink" x="0px" y="0px"
	 viewBox="0 0 512 512" style="enable-background:new 0 0 512 512;" xml:space="preserve">
<path style="fill:#FD3018;" d="M301,0h-90c-8.401,0-15,6.599-15,15v61c0,8.399,6.599,15,15,15h90c8.401,0,15-6.601,15-15V15
	C316,6.599,309.401,0,301,0z"/>
<path style="fill:#E61E14;" d="M301,91h-45V0h45c8.401,0,15,6.599,15,15v61C316,84.399,309.401,91,301,91z"/>
<path style="fill:#136EF1;" d="M374.2,141.7L331,112.899V76c0-8.401-6.599-15-15-15H196c-8.401,0-15,6.599-15,15v36.899L137.8,141.7
	C108.401,161.199,91,193.9,91,229.3V467c0,24.899,20.099,45,45,45h240c24.901,0,45-20.101,45-45V229.3
	C421,193.9,403.599,161.199,374.2,141.7z"/>
<path style="fill:#0A4EAF;" d="M421,229.3V467c0,24.899-20.099,45-45,45H256V61h60c8.401,0,15,6.599,15,15v36.899l43.2,28.801
	C403.599,161.199,421,193.9,421,229.3z"/>
<path style="fill:#CAE8F9;" d="M256,151c-57.9,0-105,47.1-105,105c0,19.499,12.599,36.299,30,42.299V316c0,8.399,6.599,15,15,15h120
	c8.401,0,15-6.601,15-15v-17.701c17.401-6,30-22.8,30-42.299C361,198.1,313.9,151,256,151z"/>
<path style="fill:#B7E0F6;" d="M316,331h-60V151c57.9,0,105,47.1,105,105c0,19.499-12.599,36.299-30,42.299V316
	C331,324.399,324.401,331,316,331z"/>
<path style="fill:#0A4EAF;" d="M361,76c0,8.399-6.599,15-15,15H166c-8.401,0-15-6.601-15-15c0-8.401,6.599-15,15-15h180
	C354.401,61,361,67.599,361,76z"/>
<path style="fill:#CAE8F9;" d="M360.099,441.799c-2.399,7.8-10.8,12.001-18.898,9.3L256,422.899l-85.201,28.2
	c-8.099,2.701-16.5-1.5-18.898-9.3c-2.701-7.8,1.5-16.5,9.3-18.9L208.599,407L161.2,391.099c-7.8-2.399-12.001-11.1-9.3-18.9
	c2.399-7.8,10.8-11.999,18.898-9.3l85.201,28.2l85.201-28.2c8.099-2.699,16.5,1.5,18.898,9.3c2.701,7.8-1.5,16.501-9.3,18.9
	L303.401,407l47.399,15.899C358.599,425.3,362.8,433.999,360.099,441.799z"/>
<circle style="fill:#136EF1;" cx="226" cy="241" r="15"/>
<circle style="fill:#0A4EAF;" cx="286" cy="241" r="15"/>
<path style="fill:#136EF1;" d="M271,286v45h-30v-45c0-8.401,6.599-15,15-15S271,277.599,271,286z"/>
<path style="fill:#0A4EAF;" d="M271,286v45h-15v-60C264.401,271,271,277.599,271,286z"/>
<path style="fill:#063E8B;" d="M361,76c0,8.399-6.599,15-15,15h-90V61h90C354.401,61,361,67.599,361,76z"/>
<path style="fill:#B7E0F6;" d="M350.799,391.099L303.401,407l47.399,15.899c7.8,2.401,12.001,11.1,9.3,18.9
	c-2.399,7.8-10.8,12.001-18.898,9.3L256,422.899v-31.8l85.201-28.2c8.099-2.699,16.5,1.5,18.898,9.3
	C362.8,379.999,358.599,388.7,350.799,391.099z"/>
<g>
</g>
<g>
</g>
<g>
</g>
<g>
</g>
<g>
</g>
<g>
</g>
<g>
</g>
<g>
</g>
<g>
</g>
<g>
</g>
<g>
</g>
<g>
</g>
<g>
</g>
<g>
</g>
<g>
</g>
</svg>
