<?xml version="1.0" encoding="iso-8859-1"?>
<!-- Generator: Adobe Illustrator 19.0.0, SVG Export Plug-In . SVG Version: 6.00 Build 0)  -->
<svg version="1.1" id="Capa_1" xmlns="http://www.w3.org/2000/svg" xmlns:xlink="http://www.w3.org/1999/xlink" x="0px" y="0px"
	 viewBox="0 0 512 512" style="enable-background:new 0 0 512 512;" xml:space="preserve">
<path style="fill:#E61E14;" d="M362,376v15c0,66.299-53.699,121-120,121c-45.3,0-85.6-24.901-106-62.1c-9.6-17.1-15-37.899-15-58.9
	v-45c0-8.401,6.599-15,15-15s15,6.599,15,15v45c0,49.499,41.499,91,91,91s90-41.501,90-91v-15c0-8.401,6.599-15,15-15
	S362,367.599,362,376z"/>
<path style="fill:#CAE8F9;" d="M272,45v120.399L174.5,224.5c-11.4-7.5-25.3-11.102-38.5-11.102c-12.299,0-24.901,3.602-36,11.102
	l-100-60V45C0,20.099,20.099,0,45,0h182C251.901,0,272,20.099,272,45z"/>
<path style="fill:#B7E0F6;" d="M174.5,224.5c-11.4-7.5-25.3-11.102-38.5-11.102V0h91c24.901,0,45,20.099,45,45v120.399L174.5,224.5z
	"/>
<path style="fill:#E61E14;" d="M497,512c-8.291,0-15-6.709-15-15V91c0-33.091-26.909-60-60-60s-60,26.909-60,60v195
	c0,8.291-6.709,15-15,15s-15-6.709-15-15V91c0-49.629,40.371-90,90-90s90,40.371,90,90v406C512,505.291,505.291,512,497,512z"/>
<path style="fill:#CAE8F9;" d="M377,271h-60c-8.401,0-15,6.599-15,15v90c0,8.399,6.599,15,15,15h60c8.401,0,15-6.601,15-15v-90
	C392,277.599,385.401,271,377,271z"/>
<path style="fill:#19DEC1;" d="M182,76c0,8.399-6.599,15-15,15h-61c-8.401,0-15-6.601-15-15c0-8.401,6.599-15,15-15h61
	C175.401,61,182,67.599,182,76z"/>
<path style="fill:#FD4E26;" d="M272,165.399c0,33.6,0,26.4,0,60.601c0,74.399-61.601,135-136,135S0,300.399,0,226v-61.5
	c2.999,1.5,6,2.999,9,5.099c22.5,14.7,52,14.7,74.5,0c15.901-10.8,34.501-16.201,52.5-16.201c18.9,0,38.5,5.402,55,16.201
	c22.5,14.7,51,14.7,73.5,0C266.901,168.1,269.599,166.599,272,165.399z"/>
<path style="fill:#FD3018;" d="M272,165.399c0,33.6,0,26.4,0,60.601c0,74.399-61.601,135-136,135V153.399
	c18.9,0,38.5,5.402,55,16.201c22.5,14.7,51,14.7,73.5,0C266.901,168.1,269.599,166.599,272,165.399z"/>
<path style="fill:#E61E14;" d="M253.206,271H197c-8.291,0-15-6.709-15-15s6.709-15,15-15h56.206c8.291,0,15,6.709,15,15
	C268.206,264.291,261.497,271,253.206,271z"/>
<path style="fill:#A4D9F5;" d="M272,121h-75c-8.284,0-15,6.714-15,15c0,8.284,6.716,15,15,15h75V121z"/>
<path style="fill:#17CEB4;" d="M182,76c0,8.399-6.599,15-15,15h-31V61h31C175.401,61,182,67.599,182,76z"/>
<path style="fill:#B7E0F6;" d="M392,286v90c0,8.399-6.599,15-15,15h-30V271h30C385.401,271,392,277.599,392,286z"/>
<g>
</g>
<g>
</g>
<g>
</g>
<g>
</g>
<g>
</g>
<g>
</g>
<g>
</g>
<g>
</g>
<g>
</g>
<g>
</g>
<g>
</g>
<g>
</g>
<g>
</g>
<g>
</g>
<g>
</g>
</svg>
