<?xml version="1.0" encoding="iso-8859-1"?>
<!-- Generator: Adobe Illustrator 19.0.0, SVG Export Plug-In . SVG Version: 6.00 Build 0)  -->
<svg version="1.1" id="Capa_1" xmlns="http://www.w3.org/2000/svg" xmlns:xlink="http://www.w3.org/1999/xlink" x="0px" y="0px"
	 viewBox="0 0 512 512" style="enable-background:new 0 0 512 512;" xml:space="preserve">
<path style="fill:#B7E0F6;" d="M498.825,70.229l-48.882-48.882c-24.365-24.365-66.101-13.442-75.234,19.995
	c-7.835,28.733-5.897,21.628-13.667,50.127l126.68,105.63c3.286-12.043,13.819-50.648,22.705-83.218
	C514.66,98.339,510.206,81.611,498.825,70.229z"/>
<path style="fill:#CAE8F9;" d="M75,383.852H15c-8.401,0-15,6.599-15,15v60c0,8.399,6.599,15,15,15h60c8.401,0,15-6.601,15-15v-60
	C90,390.451,83.401,383.852,75,383.852z"/>
<path style="fill:#B7E0F6;" d="M0,428.852h90v30c0,8.399-6.599,15-15,15H15c-8.401,0-15-6.601-15-15V428.852z"/>
<path style="fill:#E61E14;" d="M498.356,207.752l-60.3,221.1l-16.5,60.899l-52.5-60.899l-89.399-103.5l67.8-247.5
	c1.199-5.4,5.4-9.3,10.499-10.8c5.099-1.201,11.7,1.5,14.401,3.9c42.299,42.599,75.298,75.298,117.599,117.599
	C495.957,194.852,500.756,199.051,498.356,207.752z"/>
<path style="fill:#FD3018;" d="M421.556,469.952v19.799c-2.399,8.401-6.599,14.101-15.3,14.101H75c-8.401,0-15-6.601-15-15v-120
	c0-7.5,5.4-13.801,12.9-15c174-24.3,133.256-18.001,205.856-28.2c64.501,0.599,119.101,44.099,136.8,103.2
	C419.456,441.752,421.556,455.552,421.556,469.952z"/>
<path style="fill:#CAE8F9;" d="M303.956,428.852c0,8.399-6.599,15-15,15h-60c-8.401,0-15-6.601-15-15c0-8.401,6.599-15,15-15h60
	C297.357,413.852,303.956,420.451,303.956,428.852z"/>
<path style="fill:#E61E14;" d="M421.556,469.952v19.799c-2.399,8.401-6.599,14.101-15.3,14.101H75c-8.401,0-15-6.601-15-15v-60
	h355.556C419.456,441.752,421.556,455.552,421.556,469.952z"/>
<path style="fill:#B7E0F6;" d="M213.956,428.852h90c0,8.399-6.599,15-15,15h-60C220.556,443.852,213.956,437.251,213.956,428.852z"
	/>
<g>
</g>
<g>
</g>
<g>
</g>
<g>
</g>
<g>
</g>
<g>
</g>
<g>
</g>
<g>
</g>
<g>
</g>
<g>
</g>
<g>
</g>
<g>
</g>
<g>
</g>
<g>
</g>
<g>
</g>
</svg>
