<?xml version="1.0" encoding="iso-8859-1"?>
<!-- Generator: Adobe Illustrator 19.0.0, SVG Export Plug-In . SVG Version: 6.00 Build 0)  -->
<svg version="1.1" id="Capa_1" xmlns="http://www.w3.org/2000/svg" xmlns:xlink="http://www.w3.org/1999/xlink" x="0px" y="0px"
	 viewBox="0 0 512.001 512.001" style="enable-background:new 0 0 512.001 512.001;" xml:space="preserve">
<path style="fill:#FEA832;" d="M373.877,201.838l-63.6-63.6c-6-6-15.3-6-21.301,0l-42.301,42.301
	c-5.999,5.999-5.999,15.298,0,21.299l31.802,31.8l31.8,31.8c2.999,3.001,6.599,4.501,10.499,4.501s7.8-1.5,10.8-4.501l42.301-42.299
	C379.876,217.137,379.876,207.838,373.877,201.838z"/>
<path style="fill:#FE9923;" d="M373.877,201.838c5.999,6,5.999,15.3,0,21.301l-42.301,42.299c-2.999,3.001-6.899,4.501-10.8,4.501
	s-7.5-1.5-10.499-4.501l-31.8-31.8l63.6-63.6L373.877,201.838z"/>
<path style="fill:#B7E0F6;" d="M342.077,276.238c-13.2,13.198-23.401,23.399-36.901,36.599l-41.999,17.999l-40.801-41.1
	l-39.899-39.899l16.8-42.902l18.3-18.6l18.3-18.3c6-5.7,15.601-5.7,21.301,0l42.599,42.301l42.301,42.599
	C347.777,260.637,347.777,270.238,342.077,276.238z"/>
<path style="fill:#A4D9F5;" d="M342.077,254.938c5.7,5.7,5.7,15.3,0,21.301c-13.2,13.198-23.401,23.399-36.901,36.599
	l-41.999,17.999l-40.801-41.1l77.401-77.399L342.077,254.938z"/>
<path style="fill:#136EF1;" d="M293.177,388.738c-5.101,5.099-9.901,9.899-14.7,14.7l-35.402-5.4l-54.899,54.598l5.4,35.7
	l-10.501,10.501c-17.699,17.401-46.199,17.699-63.9,0l-52.798-53.101l-53.101-53.101c-17.701-17.399-17.701-45.899,0-63.6
	c39.901-39.899,70.201-70.199,110.099-110.1c14.101-14.099,34.501-20.4,54.3-16.5c7.8,1.5,13.801,2.699,21.601,4.499l53.099,53.101
	l52.8,52.8c1.8,7.8,3.001,13.801,4.501,21.599C313.577,354.237,307.577,374.337,293.177,388.738z"/>
<path style="fill:#0A4EAF;" d="M309.677,334.436c3.9,19.801-2.1,39.901-16.5,54.302c-5.101,5.099-9.901,9.899-14.7,14.7l-35.402-5.4
	l-54.899,54.598l5.4,35.7l-10.501,10.501c-17.699,17.401-46.199,17.699-63.9,0l-52.798-53.101l185.999-185.7l52.8,52.8
	C306.976,320.637,308.177,326.638,309.677,334.436z"/>
<path style="fill:#FEA832;" d="M507.545,46.857l-20.999-21.301l-21.3-20.998c-5.4-5.7-14.101-6-20.099-1.201
	c-39.901,32.401-72.471,58.981-112.67,91.382c-6.901,5.7-7.5,15.899-1.201,22.2l32.1,31.8l31.8,31.8c6,6.299,16.5,5.999,22.2-1.201
	c32.401-39.901,58.97-72.48,91.371-112.38C513.546,60.958,512.947,52.257,507.545,46.857z"/>
<path style="fill:#FE9923;" d="M508.747,66.957c-32.401,39.901-58.97,72.48-91.371,112.38c-5.7,7.2-16.199,7.5-22.2,1.201
	l-31.8-31.8L486.547,25.556l20.999,21.301C512.947,52.257,513.546,60.958,508.747,66.957z"/>
<path style="fill:#B7E0F6;" d="M447.976,191.338l-63.6-63.6l-63.6-63.9c-3.6-3.6-9-5.099-14.101-3.9
	c-5.099,1.199-9,5.099-10.8,9.901l-15.3,45.899c-5.4,16.5-1.199,34.2,10.801,46.199l29.399,29.401l29.399,29.099
	c8.701,8.701,20.101,13.2,31.8,13.2c4.801,0,9.6-0.599,14.101-2.1l46.199-15.599c4.801-1.501,8.701-5.7,9.901-10.801
	C453.376,200.338,451.876,194.938,447.976,191.338z"/>
<path style="fill:#A4D9F5;" d="M452.177,205.137c-1.199,5.101-5.099,9.3-9.901,10.801l-46.199,15.599
	c-4.501,1.501-9.3,2.1-14.101,2.1c-11.699,0-23.099-4.499-31.8-13.2l-29.399-29.099l63.6-63.6l63.6,63.6
	C451.876,194.938,453.376,200.338,452.177,205.137z"/>
<path style="fill:#FEDB41;" d="M278.477,403.438c-29.401,29.399-55.201,55.199-84.901,84.899l-84.901-84.899l-10.499-10.801
	c-3.001-2.699-4.501-6.599-4.501-10.499s1.5-7.8,4.501-10.499l63.6-63.6c5.7-6,15.3-6,21.299,0l10.501,10.499L278.477,403.438z"/>
<path style="fill:#FCBF29;" d="M193.577,318.537l84.901,84.901c-29.401,29.399-55.201,55.199-84.901,84.899l-84.901-84.899
	L193.577,318.537z"/>
<path style="fill:#CAE8F9;" d="M469.277,233.637c-3.001,3.001-6.601,4.501-10.501,4.501s-7.798-1.5-10.8-4.501l-84.6-84.899
	l-84.899-84.901c-6-5.7-6-15.3,0-21c5.698-6,15.298-6,20.999,0l84.901,84.901l84.901,84.6
	C475.277,218.337,475.277,227.938,469.277,233.637z"/>
<path style="fill:#B7E0F6;" d="M469.277,233.637c-3.001,3.001-6.601,4.501-10.501,4.501s-7.798-1.5-10.8-4.501l-84.6-84.899l21-21
	l84.901,84.6C475.277,218.337,475.277,227.938,469.277,233.637z"/>
<g>
</g>
<g>
</g>
<g>
</g>
<g>
</g>
<g>
</g>
<g>
</g>
<g>
</g>
<g>
</g>
<g>
</g>
<g>
</g>
<g>
</g>
<g>
</g>
<g>
</g>
<g>
</g>
<g>
</g>
</svg>
