<?xml version="1.0" encoding="iso-8859-1"?>
<!-- Generator: Adobe Illustrator 19.0.0, SVG Export Plug-In . SVG Version: 6.00 Build 0)  -->
<svg version="1.1" id="Capa_1" xmlns="http://www.w3.org/2000/svg" xmlns:xlink="http://www.w3.org/1999/xlink" x="0px" y="0px"
	 viewBox="0 0 512.001 512.001" style="enable-background:new 0 0 512.001 512.001;" xml:space="preserve">
<path style="fill:#CAE8F9;" d="M466,16.8l-8.699,70.3L383.5,104.5c-22.5-14.702-51-14.702-73.5,0c-16.5,10.8-35.1,16.2-54,16.2
	c-17.999,0-36.599-5.4-52.5-16.199c-22.5-14.702-51-14.702-73.5,0L54.7,86.5L46,16.8c-0.3-4.2,0.901-8.401,3.6-11.7
	C52.599,1.8,56.8,0,61,0h390c4.2,0,8.401,1.8,11.4,5.099C465.099,8.399,466.3,12.599,466,16.8z"/>
<path style="fill:#B7E0F6;" d="M466,16.8l-8.699,70.3L383.5,104.5c-22.5-14.702-51-14.702-73.5,0c-16.5,10.8-35.1,16.2-54,16.2V0
	h195c4.2,0,8.401,1.8,11.4,5.099C465.099,8.399,466.3,12.599,466,16.8z"/>
<path style="fill:#19DEC1;" d="M457.301,87.1l-4.2,32.1L415.6,421l-33.9,31H130.3l-33.9-31L58.6,118.9l-3.9-32.401
	c19.5,6.9,41.099,4.801,58.8-6.899c32.401-21.601,74.099-21.601,106.5,0c11.1,7.2,23.701,11.1,36,11.1c13.2,0,26.1-3.6,37.5-11.1
	c32.401-21.601,74.099-21.601,106.5,0C417.4,91,438.401,93.399,457.301,87.1z"/>
<path style="fill:#17CEB4;" d="M457.301,87.1l-4.2,32.1L415.6,421l-33.9,31H256V90.7c13.2,0,26.1-3.6,37.5-11.1
	c32.401-21.601,74.099-21.601,106.5,0C417.4,91,438.401,93.399,457.301,87.1z"/>
<path style="fill:#FEA832;" d="M334,285.7c-8.7,17.4-23.7,36.9-41.7,54.9c-11.77,11.96-24.18,22.39-36.3,30.6
	c-6.43,4.36-12.77,8.09-18.9,11.1c-12.6,6.3-22.5,8.7-30.3,8.7c-9.9,0-16.5-3.6-20.4-7.8l-42.6-42.6c-5.7-5.7-5.7-15.3,0-21
	l63.6-63.9l48.6-48.6l15-15c6-5.7,15.6-5.7,21.3,0l42.6,42.6C342.4,242.2,348.1,257.2,334,285.7z"/>
<path style="fill:#FE9923;" d="M334,285.7c-8.7,17.4-23.7,36.9-41.7,54.9c-11.77,11.96-24.18,22.39-36.3,30.6V207.1l15-15
	c6-5.7,15.6-5.7,21.3,0l42.6,42.6C342.4,242.2,348.1,257.2,334,285.7z"/>
<circle style="fill:#B7E0F6;" cx="361" cy="166" r="15"/>
<circle style="fill:#CAE8F9;" cx="151" cy="166" r="15"/>
<circle style="fill:#B7E0F6;" cx="361" cy="376" r="15"/>
<path style="fill:#FEDB41;" d="M292.3,192.1c-6.09-6.09-17.12-10.99-36.3-5.08c-4.45,1.37-9.34,3.33-14.7,5.98
	c-17.4,8.7-36.9,23.7-54.9,41.7c-18.3,18-33,37.5-41.7,55.2c-14.4,28.5-8.4,43.2-0.9,50.7c5.4,5.4,12.3,8.1,20.4,8.1
	c24.3,0,57.9-22.5,85.8-50.4c2.04-2.04,4.05-4.11,6-6.2c15.26-16.27,27.69-33.58,35.4-49C305.8,214.6,299.8,199.6,292.3,192.1z"/>
<path style="fill:#FCBF29;" d="M291.4,243.1c-7.71,15.42-20.14,32.73-35.4,49V187.02c19.18-5.91,30.21-1.01,36.3,5.08
	C299.8,199.6,305.8,214.6,291.4,243.1z"/>
<path style="fill:#B7E0F6;" d="M415.6,421c-1.5,10.8-2.401,18.699-3.001,23.2c0,0,0,0.3,0,0.601c0,0.899,0,1.8-0.298,2.399
	c0,0.3,0,0.3,0,0.3c0,0.901-0.3,1.8-0.3,2.401c-0.601,4.499-1.201,11.4-2.701,22.8c-2.999,22.5-22.2,39.3-44.7,39.3H147.4
	c-22.5,0-41.7-16.8-44.7-39.3c-1.8-14.101-2.701-21.901-3.001-25.501c-0.298-1.5-0.298-2.999-0.298-2.999
	c-0.601-4.501-1.501-12.4-3.001-23.2L415.6,421L415.6,421z"/>
<path style="fill:#A4D9F5;" d="M256,421h159.6c-1.5,10.8-2.401,18.699-3.001,23.2c0,0,0,0.3,0,0.601c0,0.899,0,1.8-0.298,2.399
	c0,0.3,0,0.3,0,0.3c0,0.901-0.3,1.8-0.3,2.401c-0.601,4.499-1.201,11.4-2.701,22.8c-2.999,22.5-22.2,39.3-44.7,39.3H256V421z"/>
<g>
</g>
<g>
</g>
<g>
</g>
<g>
</g>
<g>
</g>
<g>
</g>
<g>
</g>
<g>
</g>
<g>
</g>
<g>
</g>
<g>
</g>
<g>
</g>
<g>
</g>
<g>
</g>
<g>
</g>
</svg>
