<?xml version="1.0" encoding="iso-8859-1"?>
<!-- Generator: Adobe Illustrator 19.0.0, SVG Export Plug-In . SVG Version: 6.00 Build 0)  -->
<svg version="1.1" id="Capa_1" xmlns="http://www.w3.org/2000/svg" xmlns:xlink="http://www.w3.org/1999/xlink" x="0px" y="0px"
	 viewBox="0 0 512 512" style="enable-background:new 0 0 512 512;" xml:space="preserve">
<path style="fill:#136EF1;" d="M347,60H105c-8.291,0-15-6.709-15-15s6.709-15,15-15h242c8.291,0,15,6.709,15,15S355.291,60,347,60z"
	/>
<path style="fill:#FD3018;" d="M452,45v60c0,8.399-6.599,15-15,15h-90c-8.401,0-15-6.601-15-15V45c0-24.901,20.099-45,45-45h30
	C431.901,0,452,20.099,452,45z"/>
<path style="fill:#E61E14;" d="M437,120h-45V0h15c24.901,0,45,20.099,45,45v60C452,113.399,445.401,120,437,120z"/>
<path style="fill:#B7E0F6;" d="M437,90h-90c-24.901,0-45,20.099-45,45c0,24.899,20.099,45,45,45h90c24.901,0,45-20.101,45-45
	C482,110.099,461.901,90,437,90z"/>
<path style="fill:#A4D9F5;" d="M437,180h-45V90h45c24.901,0,45,20.099,45,45C482,159.899,461.901,180,437,180z"/>
<path style="fill:#CAE8F9;" d="M512,225v15l-30,30H302l-30-30v-15c0-41.4,33.6-75,75-75h90C478.4,150,512,183.6,512,225z"/>
<path style="fill:#B7E0F6;" d="M512,225v15l-30,30h-90V150h45C478.4,150,512,183.6,512,225z"/>
<path style="fill:#CAE8F9;" d="M512,422v45c0,24.899-20.099,45-45,45H317c-24.901,0-45-20.101-45-45v-45l30-30h180L512,422z"/>
<path style="fill:#B7E0F6;" d="M482,392l30,30v45c0,24.899-20.099,45-45,45h-75V392H482z"/>
<g>
	<path style="fill:#FD3018;" d="M75,90H15C6.709,90,0,83.291,0,75V15C0,6.709,6.709,0,15,0h60c24.814,0,45,20.186,45,45
		S99.814,90,75,90z"/>
	<rect x="272" y="240" style="fill:#FD3018;" width="240" height="182"/>
</g>
<rect x="392" y="240" style="fill:#E61E14;" width="120" height="182"/>
<g>
</g>
<g>
</g>
<g>
</g>
<g>
</g>
<g>
</g>
<g>
</g>
<g>
</g>
<g>
</g>
<g>
</g>
<g>
</g>
<g>
</g>
<g>
</g>
<g>
</g>
<g>
</g>
<g>
</g>
</svg>
