<?xml version="1.0" encoding="iso-8859-1"?>
<!-- Generator: Adobe Illustrator 19.0.0, SVG Export Plug-In . SVG Version: 6.00 Build 0)  -->
<svg version="1.1" id="Capa_1" xmlns="http://www.w3.org/2000/svg" xmlns:xlink="http://www.w3.org/1999/xlink" x="0px" y="0px"
	 viewBox="0 0 512 512" style="enable-background:new 0 0 512 512;" xml:space="preserve">
<path style="fill:#FEA832;" d="M466.947,45.054c-31.5-31.501-75-47.701-119.7-44.7c-3.6,0.298-6.899,1.8-9.6,4.199l-332.8,333.11
	c-2.699,2.399-4.199,6-4.499,9.6c-3.001,44.399,13.5,87.9,45,119.399c30.899,30.899,73.799,47.999,119.399,45
	c3.6-0.3,7.2-1.8,9.6-4.501l333.1-332.809c2.399-2.699,3.9-5.999,4.199-9.598C514.647,120.353,498.448,76.554,466.947,45.054z"/>
<path style="fill:#FE9923;" d="M511.646,164.754c-0.298,3.6-1.8,6.899-4.199,9.598l-333.1,332.809c-2.401,2.701-6,4.2-9.6,4.501
	c-45.601,2.999-88.5-14.101-119.399-45L466.947,45.054C498.448,76.554,514.647,120.353,511.646,164.754z"/>
<circle style="fill:#E4741B;" cx="369.49" cy="78.873" r="15"/>
<circle style="fill:#BF6015;" cx="433.13" cy="142.511" r="15"/>
<circle style="fill:#E4741B;" cx="305.85" cy="142.511" r="15"/>
<circle style="fill:#BF6015;" cx="369.49" cy="206.151" r="15"/>
<g>
	<path style="fill:#E4741B;" d="M379.948,153.054c-5.7,6-15.3,6-21,0c-6-5.7-6-15.3,0-21c5.7-6,15.3-6,21,0
		C385.948,137.753,385.948,147.354,379.948,153.054z"/>
	<circle style="fill:#E4741B;" cx="142.64" cy="305.731" r="15"/>
</g>
<circle style="fill:#BF6015;" cx="206.28" cy="369.371" r="15"/>
<circle style="fill:#E4741B;" cx="79" cy="369.371" r="15"/>
<circle style="fill:#BF6015;" cx="142.64" cy="433.011" r="15"/>
<path style="fill:#E4741B;" d="M153.348,379.962c-6,6-15.599,6-21.299,0c-6-5.7-6-15.3,0-21.299c5.7-5.7,15.298-5.7,21.299,0
	C159.048,364.662,159.048,374.262,153.348,379.962z"/>
<g>
	<path style="fill:#BF6015;" d="M153.348,358.663c5.7,5.999,5.7,15.599,0,21.299c-6,6-15.599,6-21.299,0L153.348,358.663z"/>
	<path style="fill:#BF6015;" d="M379.948,153.054c-5.7,6-15.3,6-21,0l21-21C385.948,137.753,385.948,147.354,379.948,153.054z"/>
</g>
<path style="fill:#FEDB41;" d="M337.647,237.954l-31.8-31.8l-31.8-31.802c-5.7-5.698-15.599-5.698-21.299,0l-78.4,78.41
	c-5.7,5.7-5.7,15.3,0,21l63.9,63.9c2.701,2.699,6.599,4.199,10.499,4.199s7.5-1.5,10.501-4.199l78.398-78.41
	c2.701-2.999,4.501-6.599,4.501-10.8C342.147,244.553,340.347,240.653,337.647,237.954z"/>
<path style="fill:#FCBF29;" d="M337.647,237.954c2.701,2.699,4.501,6.599,4.501,10.499c0,4.2-1.8,7.8-4.501,10.8l-78.398,78.41
	c-3.001,2.699-6.601,4.199-10.501,4.199s-7.798-1.5-10.499-4.199l-31.8-31.8l99.398-99.709L337.647,237.954z"/>
<g>
</g>
<g>
</g>
<g>
</g>
<g>
</g>
<g>
</g>
<g>
</g>
<g>
</g>
<g>
</g>
<g>
</g>
<g>
</g>
<g>
</g>
<g>
</g>
<g>
</g>
<g>
</g>
<g>
</g>
</svg>
