<?xml version="1.0" encoding="iso-8859-1"?>
<!-- Generator: Adobe Illustrator 19.0.0, SVG Export Plug-In . SVG Version: 6.00 Build 0)  -->
<svg version="1.1" id="Capa_1" xmlns="http://www.w3.org/2000/svg" xmlns:xlink="http://www.w3.org/1999/xlink" x="0px" y="0px"
	 viewBox="0 0 512 512" style="enable-background:new 0 0 512 512;" xml:space="preserve">
<path style="fill:#CAE8F9;" d="M467,0H45C20.099,0,0,20.099,0,45v422c0,24.901,20.099,45,45,45h422c24.901,0,45-20.099,45-45V45
	C512,20.099,491.901,0,467,0z"/>
<path style="fill:#B7E0F6;" d="M512,45v422c0,24.901-20.099,45-45,45H256V0h211C491.901,0,512,20.099,512,45z"/>
<path style="fill:#81C8EE;" d="M271,75v362c0,8.401-6.599,15-15,15s-15-6.599-15-15V75c0-8.401,6.599-15,15-15S271,66.599,271,75z"
	/>
<path style="fill:#17CEB4;" d="M165,60h-60c-24.901,0-45,20.099-45,45s20.099,45,45,45h60c24.901,0,45-20.099,45-45
	S189.901,60,165,60z"/>
<path style="fill:#FD3018;" d="M210,105c0,24.901-20.099,45-45,45h-30V60h30C189.901,60,210,80.099,210,105z"/>
<path style="fill:#17CEB4;" d="M165,211h-60c-24.901,0-45,20.099-45,45s20.099,45,45,45h60c24.901,0,45-20.099,45-45
	S189.901,211,165,211z"/>
<path style="fill:#FD3018;" d="M210,256c0,24.901-20.099,45-45,45h-30v-90h30C189.901,211,210,231.099,210,256z"/>
<path style="fill:#17CEB4;" d="M165,362h-60c-24.901,0-45,20.099-45,45s20.099,45,45,45h60c24.901,0,45-20.099,45-45
	S189.901,362,165,362z"/>
<path style="fill:#FD3018;" d="M210,407c0,24.901-20.099,45-45,45h-30v-90h30C189.901,362,210,382.099,210,407z"/>
<path style="fill:#17CEB4;" d="M407,60h-60c-24.901,0-45,20.099-45,45s20.099,45,45,45h60c24.901,0,45-20.099,45-45
	S431.901,60,407,60z"/>
<path style="fill:#FD3018;" d="M452,105c0,24.901-20.099,45-45,45h-30V60h30C431.901,60,452,80.099,452,105z"/>
<path style="fill:#17CEB4;" d="M407,211h-60c-24.901,0-45,20.099-45,45s20.099,45,45,45h60c24.901,0,45-20.099,45-45
	S431.901,211,407,211z"/>
<path style="fill:#FD3018;" d="M452,256c0,24.901-20.099,45-45,45h-30v-90h30C431.901,211,452,231.099,452,256z"/>
<path style="fill:#17CEB4;" d="M407,362h-60c-24.901,0-45,20.099-45,45s20.099,45,45,45h60c24.901,0,45-20.099,45-45
	S431.901,362,407,362z"/>
<path style="fill:#FD3018;" d="M452,407c0,24.901-20.099,45-45,45h-30v-90h30C431.901,362,452,382.099,452,407z"/>
<path style="fill:#4DBBEB;" d="M271,75v362c0,8.401-6.599,15-15,15V60C264.401,60,271,66.599,271,75z"/>
<g>
</g>
<g>
</g>
<g>
</g>
<g>
</g>
<g>
</g>
<g>
</g>
<g>
</g>
<g>
</g>
<g>
</g>
<g>
</g>
<g>
</g>
<g>
</g>
<g>
</g>
<g>
</g>
<g>
</g>
</svg>
